<svg xmlns="http://www.w3.org/2000/svg" width="15.273" height="24" viewBox="0 0 15.273 24">
  <g id="icon-mobile-on" transform="translate(-2742.999 -2821)">
    <path id="Icon_material-phone-android" data-name="Icon material-phone-android" d="M19.5,1.5H10.773A3.268,3.268,0,0,0,7.5,4.773V22.227A3.268,3.268,0,0,0,10.773,25.5H19.5a3.268,3.268,0,0,0,3.273-3.273V4.773A3.268,3.268,0,0,0,19.5,1.5ZM17.318,23.318H12.955V22.227h4.364Zm3.545-3.273H9.409V4.773H20.864Z" transform="translate(2735.499 2819.5)" fill="#221f2c"/>
    <path id="Icon_awesome-check" data-name="Icon awesome-check" d="M3.4,11.885.146,8.636a.5.5,0,0,1,0-.707l.707-.707a.5.5,0,0,1,.707,0L3.749,9.411,8.436,4.724a.5.5,0,0,1,.707,0l.707.707a.5.5,0,0,1,0,.707L4.1,11.885A.5.5,0,0,1,3.4,11.885Z" transform="translate(2745.639 2823.969)" fill="#55d392"/>
  </g>
</svg>
