<svg xmlns="http://www.w3.org/2000/svg" width="24" height="19.291" viewBox="0 0 24 19.291">
  <g id="icon-fix-off" transform="translate(-2371 -2824)">
    <path id="entypo_old-phone" d="M20.8,14.762a1.974,1.974,0,0,0-1.536-1.618c-3.107-.728-3.886-2.517-4.017-4.5a18.117,18.117,0,0,0-3.2-.213,18.117,18.117,0,0,0-3.195.213c-.131,1.985-.91,3.774-4.017,4.5a1.976,1.976,0,0,0-1.536,1.618l-.6,4.15a2.391,2.391,0,0,0,2.355,2.779H19.049A2.392,2.392,0,0,0,21.4,18.911Zm-8.748,3.905A3.014,3.014,0,1,1,15.1,15.653,3.031,3.031,0,0,1,12.056,18.667Zm12-11.444c-.029-1.808-4.632-4.821-12-4.823S.088,5.414.06,7.223s.025,4.162,3.056,3.77c3.546-.459,3.328-1.7,3.328-3.467,0-1.235,2.884-1.532,5.612-1.532s5.611.3,5.612,1.532c0,1.77-.218,3.008,3.328,3.467C24.026,11.385,24.08,9.031,24.053,7.223Z" transform="translate(2370.943 2821.6)" fill="#221f2c"/>
    <g id="Icon_ionic-ios-close" data-name="Icon ionic-ios-close" transform="translate(2366.715 2817.358)" fill="#e21e47">
      <path d="M 20.44985961914062 21.78605079650879 C 20.09172821044922 21.78605079650879 19.7559986114502 21.64756202697754 19.5045280456543 21.3961009979248 L 16.28646850585938 18.17802238464355 L 13.06839847564697 21.39609146118164 C 12.81691932678223 21.64756202697754 12.48118877410889 21.78605079650879 12.12306880950928 21.78605079650879 C 11.76494884490967 21.78605079650879 11.42921924591064 21.64756202697754 11.17774868011475 21.3961009979248 C 10.92456912994385 21.14291191101074 10.78514862060547 20.80719184875488 10.78514862060547 20.45076179504395 C 10.78514862060547 20.09432029724121 10.92456912994385 19.75859069824219 11.17773914337158 19.50543022155762 L 14.39580821990967 16.28736114501953 L 11.17773914337158 13.06930160522461 C 10.92457866668701 12.81613159179688 10.78515911102295 12.48041152954102 10.78515911102295 12.1239709854126 C 10.78515911102295 11.7675313949585 10.92457866668701 11.43181133270264 11.1777286529541 11.17865085601807 C 11.42921924591064 10.92716121673584 11.7649393081665 10.78867149353027 12.12306880950928 10.78867149353027 C 12.48120880126953 10.78867149353027 12.81692886352539 10.92716121673584 13.06839847564697 11.1786413192749 L 16.28646850585938 14.39671039581299 L 19.5045280456543 11.1786413192749 C 19.7559986114502 10.92716121673584 20.09171867370605 10.78867149353027 20.44985961914062 10.78867149353027 C 20.80799865722656 10.78867149353027 21.14371871948242 10.927170753479 21.39518928527832 11.1786413192749 C 21.64665985107422 11.43010139465332 21.78515815734863 11.76583099365234 21.78515815734863 12.1239709854126 C 21.78515815734863 12.48210144042969 21.64665985107422 12.81783103942871 21.39517974853516 13.06930160522461 L 18.1771183013916 16.28736114501953 L 21.39517974853516 19.50543022155762 C 21.91642951965332 20.02668190002441 21.91643905639648 20.87482070922852 21.39518928527832 21.39609146118164 C 21.14371871948242 21.64756202697754 20.8079891204834 21.78605079650879 20.44985961914062 21.78605079650879 Z" stroke="none"/>
      <path d="M 20.44985771179199 21.28605079650879 C 20.66457366943359 21.28605079650879 20.8792896270752 21.20488166809082 21.04162979125977 21.04254150390625 C 21.36631965637207 20.71784019470215 21.36631965637207 20.18367195129395 21.04162979125977 19.85898208618164 L 17.47001838684082 16.28736114501953 L 21.04162979125977 12.7157506942749 C 21.36632919311523 12.39105129241943 21.36632919311523 11.8568811416626 21.04162979125977 11.53219127655029 C 20.71694946289062 11.20750141143799 20.18276977539062 11.20750141143799 19.85807800292969 11.53219127655029 L 16.28646850585938 15.10381126403809 L 12.71484851837158 11.53219127655029 C 12.39015865325928 11.20750141143799 11.85598850250244 11.20750141143799 11.53128910064697 11.53219127655029 C 11.3689489364624 11.69454097747803 11.28515911102295 11.90925121307373 11.28515911102295 12.1239709854126 C 11.28515911102295 12.3386812210083 11.3689489364624 12.55340099334717 11.53128910064697 12.7157506942749 L 15.10290908813477 16.28736114501953 L 11.53128910064697 19.85898208618164 C 11.3689489364624 20.02132034301758 11.28514862060547 20.23604202270508 11.28514862060547 20.45076179504395 C 11.28514862060547 20.66547203063965 11.3689489364624 20.88019180297852 11.53128910064697 21.04254150390625 C 11.85598850250244 21.36722183227539 12.39014911651611 21.36722183227539 12.71484851837158 21.04254150390625 L 16.28646850585938 17.47092056274414 L 19.85807800292969 21.04254150390625 C 20.02042388916016 21.20488166809082 20.23514175415039 21.28605079650879 20.44985771179199 21.28605079650879 M 20.44985961914062 22.28605079650879 C 19.95818901062012 22.28605079650879 19.49690818786621 22.09556198120117 19.1509895324707 21.74967193603516 L 16.28646850585938 18.88514137268066 L 13.42195892333984 21.7496509552002 C 13.07601928710938 22.09556198120117 12.61473846435547 22.28605079650879 12.12306880950928 22.28605079650879 C 11.63139915466309 22.28605079650879 11.1701192855835 22.09556198120117 10.82419872283936 21.74967193603516 C 10.47656917572021 21.40202140808105 10.28514862060547 20.94074058532715 10.28514862060547 20.45076179504395 C 10.28514862060547 19.96076202392578 10.47657871246338 19.49947166442871 10.82417869567871 19.15187072753906 L 13.68868827819824 16.28736305236816 L 10.82417869567871 13.42286109924316 C 10.47657871246338 13.07523155212402 10.28515911102295 12.61395072937012 10.28515911102295 12.1239709854126 C 10.28515911102295 11.63399124145508 10.47657871246338 11.17271137237549 10.82415866851807 10.82510089874268 C 11.1701192855835 10.47916126251221 11.63139915466309 10.28867149353027 12.12306880950928 10.28867149353027 C 12.61475849151611 10.28867149353027 13.07604885101318 10.47917079925537 13.42195892333984 10.82508087158203 L 16.28646850585938 13.68959045410156 L 19.15096855163574 10.82508087158203 C 19.49690818786621 10.47916126251221 19.95818901062012 10.28867149353027 20.44985961914062 10.28867149353027 C 20.9415397644043 10.28867149353027 21.40282821655273 10.47917079925537 21.74873924255371 10.82508087158203 C 22.09464836120605 11.17098140716553 22.28515815734863 11.63227081298828 22.28515815734863 12.1239709854126 C 22.28515815734863 12.61565113067627 22.09464836120605 13.07694149017334 21.74873924255371 13.42286109924316 L 18.88423728942871 16.28736305236816 L 21.74873924255371 19.15187072753906 C 22.46492958068848 19.86807060241699 22.46493911743164 21.03342056274414 21.74874877929688 21.74964141845703 C 21.40282821655273 22.09555053710938 20.94154930114746 22.28605079650879 20.44985961914062 22.28605079650879 Z" stroke="none" fill="#fff"/>
    </g>
  </g>
</svg>
