<svg id="bg_banner" xmlns="http://www.w3.org/2000/svg" xmlns:xlink="http://www.w3.org/1999/xlink" width="1280" height="445.272" viewBox="0 0 1280 445.272">
  <defs>
    <linearGradient id="linear-gradient" x1="0.525" y1="0.369" x2="0.525" y2="1.317" gradientUnits="objectBoundingBox">
      <stop offset="0" stop-color="#29abe2"/>
      <stop offset="0.465" stop-color="#077bc3"/>
      <stop offset="0.792" stop-color="#0071bc"/>
      <stop offset="1" stop-color="#0071bc"/>
    </linearGradient>
  </defs>
  <rect id="Rectangle_3190" data-name="Rectangle 3190" width="1280" height="445" fill="url(#linear-gradient)"/>
  <g id="Group_16736" data-name="Group 16736" transform="translate(146.615 250)" opacity="0.2">
    <path id="Path_15345" data-name="Path 15345" d="M88.289,18.959a13.973,13.973,0,0,0-3.68.513A12.653,12.653,0,0,0,74.06,13.254a11.783,11.783,0,0,0-7.391,2.661c-.76-6.658-5.568-11.8-11.4-11.8-6.266,0-11.353,5.928-11.5,13.315a12.71,12.71,0,0,0-6.817-2.011c-6.871,0-12.614,5.644-14.152,13.226a9.162,9.162,0,0,0-3.312-.624c-4.848,0-8.941,3.821-10.251,9.062h95.243c-.49-10.107-7.541-18.129-16.194-18.129" transform="translate(-9.24 158.184)" fill="#dae2f2"/>
    <path id="Path_15347" data-name="Path 15347" d="M135.105,20.029a7.251,7.251,0,0,0-1.849.249,6.436,6.436,0,0,0-5.315-2.995,6.094,6.094,0,0,0-3.721,1.281c-.386-3.2-2.806-5.681-5.742-5.681-3.156,0-5.718,2.855-5.793,6.411a6.615,6.615,0,0,0-3.433-.965c-3.46,0-6.353,2.718-7.128,6.368a4.825,4.825,0,0,0-1.668-.3,5.525,5.525,0,0,0-5.163,4.364h47.972c-.245-4.867-3.8-8.73-8.159-8.73" transform="translate(628.12 165.905)" fill="#eaf0fe"/>
    <path id="Path_15349" data-name="Path 15349" d="M111.566,165.155l-1.435-.007.016-2.032,1.419.007c2.945,0,4.625-.061,4.636-.061l.075,2.028s-1.708.065-4.711.065m-7.573-.122c-1.878-.061-3.932-.147-6.131-.266l.112-2.027c2.182.119,4.221.2,6.082.262Zm-12.252-.669c-1.964-.152-4.006-.333-6.11-.546l.207-2.021c2.086.212,4.111.392,6.062.543Zm-12.2-1.237q-2.99-.378-6.076-.852l.308-2.006c2.037.313,4.05.592,6.02.838Zm-12.125-1.871q-3-.549-6.02-1.2l.427-1.983q3,.648,5.957,1.19Zm-12-2.608q-2.977-.759-5.924-1.631l.579-1.948c1.936.576,3.889,1.111,5.845,1.608Zm-11.789-3.519c-1.983-.69-3.92-1.418-5.76-2.168l.767-1.88c1.806.733,3.712,1.453,5.661,2.13Zm-11.395-4.664c-1.883-.9-3.722-1.864-5.464-2.854l1-1.766c1.7.968,3.5,1.906,5.341,2.79Zm-10.7-6.134c-1.736-1.192-3.393-2.454-4.926-3.743l1.309-1.552c1.481,1.244,3.085,2.464,4.769,3.621Zm-9.435-8a47.875,47.875,0,0,1-3.969-4.779l1.647-1.19a46.031,46.031,0,0,0,3.8,4.575ZM4.851,126.271a41.976,41.976,0,0,1-2.476-5.7L4.3,119.9a40.281,40.281,0,0,0,2.352,5.425ZM.765,114.577A47.476,47.476,0,0,1,0,108.424l2.028-.119a45.231,45.231,0,0,0,.733,5.889Zm1.279-12.244-2.027-.121a60.567,60.567,0,0,1,.69-6.157l2,.326c-.326,2.016-.551,4.022-.667,5.952M3.934,90.5,1.962,90c.481-1.918,1.062-3.911,1.724-5.917l1.93.635C4.97,86.681,4.4,88.627,3.934,90.5m3.71-11.473-1.9-.726c.73-1.909,1.512-3.822,2.329-5.681l1.86.816c-.8,1.831-1.573,3.712-2.294,5.591m4.862-11.057-1.817-.912c.931-1.85,1.908-3.672,2.909-5.418l1.761,1.012c-.98,1.712-1.939,3.5-2.853,5.318m6-10.471-1.7-1.11c1.122-1.72,2.3-3.42,3.511-5.052l1.635,1.208c-1.187,1.6-2.343,3.267-3.442,4.954m7.179-9.68L24.13,46.51c1.328-1.577,2.72-3.113,4.13-4.571l1.46,1.412c-1.379,1.425-2.739,2.926-4.039,4.47M91.329,45.8l-.261-2.016a10.686,10.686,0,0,0,5.066-2.112l1.253,1.6A12.764,12.764,0,0,1,91.329,45.8m-6.463-1.223a16.7,16.7,0,0,1-5.184-3.838l1.5-1.376a14.915,14.915,0,0,0,4.552,3.376Zm-50.813-5.4L32.7,37.66c1.537-1.379,3.129-2.709,4.736-3.948l1.243,1.607c-1.568,1.211-3.124,2.508-4.622,3.854m66.722-1.71-2.023-.193a4.827,4.827,0,0,0,.026-.53,8.426,8.426,0,0,0-1.563-4.548l1.7-1.111a10.427,10.427,0,0,1,1.892,5.66c0,.247-.012.488-.035.723M76.253,35.308a19,19,0,0,1-1.363-6.26l2.028-.1a16.931,16.931,0,0,0,1.216,5.593ZM43.575,31.829l-1.115-1.7c1.738-1.138,3.521-2.2,5.3-3.169l.968,1.785c-1.731.942-3.467,1.978-5.156,3.085M93.33,27.891a40.171,40.171,0,0,0-3.439-2.66q-.62-.433-1.3-.821l1-1.766q.764.433,1.46.919a42.265,42.265,0,0,1,3.612,2.8Zm-39.2-1.778-.81-1.866c1.913-.828,3.862-1.568,5.789-2.2l.625,1.936c-1.864.6-3.749,1.321-5.6,2.126m23.407-2.9-1.969-.5a26.65,26.65,0,0,1,2.321-5.882l1.792.957c-.3.571-.585,1.145-.84,1.717a32.583,32.583,0,0,1,4.844.823l-.5,1.971a31.089,31.089,0,0,0-5.126-.821c-.2.583-.376,1.164-.525,1.738m-12.021-.786-.42-1.986a51.448,51.448,0,0,1,6.145-.929l.179,2.023a50.112,50.112,0,0,0-5.9.893m17.429-9.557L81.35,11.606a45.024,45.024,0,0,1,4.218-4.582l1.4,1.468a43.724,43.724,0,0,0-4.027,4.379m8.579-8.26L90.283,3C91.6,1.985,93.015.978,94.494,0l1.122,1.694c-1.439.952-2.816,1.934-4.1,2.917" transform="translate(497.056 0) rotate(50)" fill="#d7d9dd"/>
    <g id="Group_16744" data-name="Group 16744" transform="translate(583.188 71.455)">
      <path id="Path_15350" data-name="Path 15350" d="M31.516,87.435a17.193,17.193,0,1,0,8.94,22.613,17.2,17.2,0,0,0-8.94-22.613M21.083,111.507a9.043,9.043,0,1,1,11.892-4.7,9.044,9.044,0,0,1-11.892,4.7" transform="translate(-2.465 -82.489)" fill="#dff1fa"/>
      <path id="Path_15351" data-name="Path 15351" d="M26.745,93.931l-7.108-3.083s1.238-6.2,2.983-6.889c1.8-.711,6.594,1.216,7.111,3.083.5,1.809-2.986,6.889-2.986,6.889" transform="translate(4.381 -83.731)" fill="#dff1fa"/>
      <path id="Path_15352" data-name="Path 15352" d="M20.669,106.807l-7.113-3.081s-3.675,5.142-2.983,6.888c.711,1.8,5.392,3.978,7.108,3.081,1.663-.869,2.987-6.888,2.987-6.888" transform="translate(-0.773 -72.512)" fill="#dff1fa"/>
      <path id="Path_15353" data-name="Path 15353" d="M21.2,90.461,14.41,94.2s-4.144-4.773-3.622-6.577c.539-1.86,4.993-4.472,6.788-3.741,1.738.711,3.624,6.577,3.624,6.577" transform="translate(-0.628 -83.758)" fill="#dff1fa"/>
      <path id="Path_15354" data-name="Path 15354" d="M15.428,93.515l-4.2,6.511s-5.914-2.232-6.309-4.069c-.41-1.892,2.276-6.308,4.2-6.513,1.865-.2,6.309,4.071,6.309,4.071" transform="translate(-3.933 -80.56)" fill="#dff1fa"/>
      <path id="Path_15355" data-name="Path 15355" d="M25.108,105.43l3.367-6.982s6.144,1.491,6.763,3.264c.638,1.829-1.484,6.538-3.369,6.978-1.829.43-6.761-3.261-6.761-3.261" transform="translate(7.463 -75.484)" fill="#dff1fa"/>
      <path id="Path_15356" data-name="Path 15356" d="M25.715,92.186l1.913,7.51s6.316-.239,7.275-1.854c.99-1.662-.153-6.7-1.913-7.507-1.7-.785-7.275,1.851-7.275,1.851" transform="translate(7.805 -80.137)" fill="#dff1fa"/>
      <path id="Path_15357" data-name="Path 15357" d="M13.826,105.158,11.913,97.65S5.6,97.888,4.639,99.5c-.99,1.665.152,6.7,1.913,7.508,1.706.785,7.274-1.852,7.274-1.852" transform="translate(-4.273 -75.934)" fill="#dff1fa"/>
      <path id="Path_15358" data-name="Path 15358" d="M19.4,107.876l6.788-3.741s4.146,4.771,3.624,6.577c-.538,1.857-4.995,4.471-6.786,3.739-1.738-.71-3.625-6.575-3.625-6.575" transform="translate(4.247 -72.281)" fill="#dff1fa"/>
    </g>
    <path id="Path_15410" data-name="Path 15410" d="M125.891,66.052v0Z" transform="translate(396.791 -52.394)" fill="#585af9"/>
  </g>
  <path id="Icon_awesome-phone" data-name="Icon awesome-phone" d="M74.916,2.771,59.126.068A4.1,4.1,0,0,0,54.95,1.634L47.662,14.25A2.28,2.28,0,0,0,48.71,17.4l9.2,5.587c-5.466,8.64-15.017,15.826-26.905,19.96l-7.531-6.826a4.515,4.515,0,0,0-4.251-.777L2.218,40.754C.593,41.283-.3,42.59.092,43.863L3.736,55.577a3.583,3.583,0,0,0,3.553,2.1c38.885,0,70.452-23.373,70.452-52.265C77.741,4.146,76.572,3.053,74.916,2.771Z" transform="translate(743.001 372.441)" fill="#3495cf"/>
</svg>
