<svg width="375" height="140" viewBox="0 0 375 140" fill="none" xmlns="http://www.w3.org/2000/svg">
    <mask id="dvnos0i58a" style="mask-type:luminance" maskUnits="userSpaceOnUse" x="0" y="0" width="376" height="140">
        <path d="M375.077 0h-375v140h375V0z" fill="#fff"/>
    </mask>
    <g mask="url(#dvnos0i58a)">
        <mask id="smt6gg7txb" style="mask-type:luminance" maskUnits="userSpaceOnUse" x="-5" y="-8" width="396" height="148">
            <path d="M390.077-8h-395v148h395V-8z" fill="#fff"/>
        </mask>
        <g mask="url(#smt6gg7txb)">
            <path d="M349.762-91.244H-12.046v328.995h361.808V-91.244z" fill="#FFE3D5"/>
            <path d="M57.453 17.341V6.731h17.612v-50.73h4.848V6.734h18.971v10.607h10.157v212.724h-73.26V17.341h21.672z" fill="#E6A786"/>
            <path d="M45.937 17.344H35.78v191.347h10.157V17.344z" fill="#A67566"/>
            <path d="M145.658 68.017H72.406v162.048h73.252V68.017z" fill="#E6A786"/>
            <path d="M82.563 68.017H72.406v162.048h10.157V68.017zM135.452 74.925h-10.516v4.36h10.516v-4.36zM117.744 74.925h-10.507v4.36h10.507v-4.36zM135.452 90.81h-10.516v4.36h10.516v-4.36zM117.744 90.81h-10.507v4.36h10.507v-4.36zM100.047 90.81H89.54v4.36h10.507v-4.36zM135.452 106.695h-10.516v4.36h10.516v-4.36zM100.047 106.695H89.54v4.36h10.507v-4.36zM117.744 114.637h-10.507v4.36h10.507v-4.36zM135.452 122.58h-10.516v4.36h10.516v-4.36zM117.744 130.523h-10.507v4.36h10.507v-4.36zM135.452 138.465h-10.516v4.36h10.516v-4.36zM100.047 138.465H89.54v4.36h10.507v-4.36z" fill="#A67566"/>
            <path d="M320.95 68.017h-73.261v162.048h73.261V68.017z" fill="#E6A786"/>
            <path d="M257.846 68.017h-10.157v162.048h10.157V68.017z" fill="#A67566"/>
            <path d="M241.91-9.057h-98.286v239.122h98.286V-9.057z" fill="#E6A786"/>
            <path d="M153.781-9.057h-10.157v239.122h10.157V-9.057zM231.556 2.391H216.21V8.76h15.346V2.391zM205.719 2.391h-15.346V8.76h15.346V2.391zM231.556 25.594H216.21v6.369h15.346v-6.369zM205.719 25.594h-15.346v6.369h15.346v-6.369zM179.875 25.594H164.52v6.369h15.355v-6.369zM231.556 48.789H216.21v6.369h15.346v-6.369zM179.875 48.789H164.52v6.369h15.355v-6.369zM205.719 60.391h-15.346v6.369h15.346v-6.369zM231.556 71.984H216.21v6.369h15.346v-6.369zM205.719 83.586h-15.346v6.369h15.346v-6.369zM231.556 95.187H216.21v6.369h15.346v-6.369zM179.875 95.187H164.52v6.369h15.355v-6.369zM231.556 116.621H216.21v6.369h15.346v-6.369zM205.719 116.621h-15.346v6.369h15.346v-6.369zM231.556 139.816H216.21v6.369h15.346v-6.369zM205.719 139.816h-15.346v6.369h15.346v-6.369zM179.875 139.816H164.52v6.369h15.355v-6.369z" fill="#A67566"/>
            <path d="M394.501 8.769h-96.336v221.296h96.336V8.769z" fill="#E6A786"/>
            <path d="M308.117 8.769h-9.952v221.296h9.952V8.769zM384.353 19.361h-15.047v5.899h15.047v-5.899zM359.022 19.361h-15.047v5.899h15.047v-5.899zM384.353 40.829h-15.047v5.899h15.047v-5.899zM359.022 40.829h-15.047v5.899h15.047v-5.899zM333.69 40.829h-15.047v5.899h15.047v-5.899zM384.353 62.306h-15.047v5.899h15.047v-5.899zM333.69 62.306h-15.047v5.899h15.047v-5.899zM359.022 73.035h-15.047v5.899h15.047v-5.899zM384.353 83.774h-15.047v5.899h15.047v-5.899zM359.022 94.503h-15.047v5.899h15.047v-5.899zM384.353 105.242h-15.047v5.899h15.047v-5.899zM333.69 105.242h-15.047v5.899h15.047v-5.899zM384.353 125.076h-15.047v5.899h15.047v-5.899zM359.022 125.076h-15.047v5.899h15.047v-5.899z" fill="#A67566"/>
            <path d="M48.878 79.123h-62.044v150.942h62.044V79.123z" fill="#E6A786"/>
            <path d="M42.338 86.356h-9.687v4.018h9.687v-4.018zM26.025 86.356h-9.687v4.018h9.687v-4.018zM42.338 100.992h-9.687v4.018h9.687v-4.018zM26.025 100.992h-9.687v4.018h9.687v-4.018zM9.705 100.992H.018v4.018h9.687v-4.018zM42.338 115.638h-9.687v4.018h9.687v-4.018zM9.705 115.638H.018v4.018h9.687v-4.018zM26.025 122.956h-9.687v4.018h9.687v-4.018zM42.338 130.283h-9.687v4.018h9.687v-4.018zM26.025 137.602h-9.687v4.018h9.687v-4.018z" fill="#A67566"/>
            <path opacity=".72" d="M210.892-79.317h-262.94v299.798h262.94V-79.317z" fill="#fff"/>
            <path d="M213.774-82.754h-5.754v307.1h5.754v-307.1z" fill="#fff"/>
            <path opacity=".5" d="M38.482 215.06H18.074L127.465-75.889h20.408L38.483 215.06zM2.445 215.06H-7.763l109.4-290.949h10.208L2.445 215.06zM124.277 215.06h-10.2l93.789-259.718v20.929L124.277 215.06z" fill="#fff"/>
            <path d="M126.132-81.198h-5.754v303.996h5.754V-81.198z" fill="#fff"/>
            <path opacity=".72" d="M475.218-85.251H212.277v299.798h262.941V-85.251z" fill="#fff"/>
            <path d="M213.799-82.754h-5.754v307.1h5.754v-307.1z" fill="#fff"/>
            <path opacity=".5" d="M255.761 215.06h-20.408l109.4-290.949h20.408l-109.4 290.949zM219.732 215.06h-10.208l109.4-290.949h10.2L219.732 215.06z" fill="#fff"/>
            <path d="M301.449-81.198h-5.754v303.996h5.754V-81.198z" fill="#fff"/>
            <path d="M486.187 62.793H-54.922v3.428h541.109v-3.428z" fill="#fff"/>
            <path d="M259.98 14.573a3.391 3.391 0 0 1-2.59 3.74 45.076 45.076 0 0 1-43.371-13.4c-19.472-20.523 43.541-9.398 45.961 9.66z" fill="#FFE3D5"/>
            <path d="M193.78 73.684a.78.78 0 0 0-.629-.484 1.254 1.254 0 0 0 .39-1.075c-.138-.509-.528-.578-1.062-.547a1.6 1.6 0 0 0-.283.038.492.492 0 0 0 0-.094.415.415 0 0 0-.346-.245 4.71 4.71 0 0 0-2.451.534c-2.181.93-2.653 1.025-3.482.792.553-.534.629-.685 1.182-.773a.822.822 0 0 0 .673-.484c.094-.333-.893-.629-1.163-.729a3.332 3.332 0 0 0-2.125.629 20.522 20.522 0 0 0-3.357 6.047c-.182.515 1.917 3.193 2.433 2.131.151-.321 1.4-1.76 2.018-2.917 2.3.277 5.657.132 5.8-.924 1.441-.296 2.786-.862 2.402-1.899z" fill="#FCB295"/>
            <path d="m170.679 186.598-3.646.371-4.808.49a.347.347 0 0 0-.05-.119c-.415-.943.038-8.8.088-15.356.038-8.171-3.507-19.617-4.092-27.657a90.307 90.307 0 0 1-.157-1.886c-.321-4.017-3.495-11.754-6.078-18.4-.371-.968-.742-1.886-1.075-2.81-1.678-4.463-2.8-8-2.093-8.8 1.842-2.093 12.225-17.355 18.48-10.308 7.153 8.071 8.341 29.153 8.341 40.517 0 11.364-3.098 32.594-4.91 43.958z" fill="#D86E54"/>
            <path d="M164.074 171.525c-1.389-11.9 2.722-24.464-2.345-35.828-1.427-3.193-3.734-6.468-3.507-10.12.107-1.8 1.257-3.866.251-5.607-1.829-3.143-5.286-1.018-6.914 1.119a.634.634 0 0 0-.578.05c-.057.05-.132.082-.189.132.333.9.7 1.842 1.075 2.81 2.583 6.644 5.758 14.381 6.078 18.4.044.578.094 1.2.157 1.886.691 8.008 1.823 18.612 2.7 26.726 1.094 10.17.8 15.406 1.307 16.255a.347.347 0 0 1 .05.119l4.808-.49c.552-6.369-2.176-9.217-2.893-15.452z" fill="#B85E43"/>
            <path d="M150.806 150.436c-1.257 11.314-18.04 32.057-26.689 37.035 0 0-5.494-3.338-5.274-3.929 1.383-3.771 5.028-8.222 7.291-15.475 4-12.948 7.65-16.971 7.681-24.464.088-15.085-3.771-22.628 0-33.7.264-.779.566-1.559.9-2.37.8-1.886 4.211-5.028 5.525-7.235.195-.314 11.352 1.383 15.412 5.726.452.451-2.86 26.86-4.846 44.412z" fill="#D86E54"/>
            <path d="M135.984 116.903c-.195-1.54-.629-5.418-2.143-7.008-3.771 11.063.063 18.6 0 33.7-.031 7.505-13.589 36.174-14.972 39.939-.22.591 1.087 1.389 2.332 2.037 1.113-.911 6.172-18.228 9.548-24.822 3.376-6.594 5.914-12.719 5.784-20.168 0-.767-.075-1.534-.132-2.3.603-7.121.464-14.286-.417-21.378z" fill="#B85E43"/>
            <path d="M132.395 63.695c.943 4.243 7.329 7.342 11.113 4.727 2.363-1.634 3.413-4.689 3.47-7.448.031-1.5-.358-3.074-.063-4.563.585-2.9 2.357-2.961 3.878-4.746a.35.35 0 0 0 .075-.145.53.53 0 0 0 .132-.673c-1.333-2.7-6.072-4.061-8.574-2.238a8.04 8.04 0 0 0-2.722 4.953 37.529 37.529 0 0 0-.446 4.526 10.677 10.677 0 0 1-.629 3.539c-1.213 2.395-4.079 1.634-5.336 1.477a.587.587 0 0 0-.898.591z" fill="#904B44"/>
            <path d="M173.017 94.212c6.587-3.872 12.232-16.343 12.232-16.343l-3.884-2.395c-.245.138-10.686 11.314-12.138 9.8-.629-.666-1.333-15.2-11.314-17.474-2.131-.484-1.653-.082-2.363 1.986-1.433 4.192-.4 14.048 2.9 19.781 3.927 6.763 8.327 8.312 14.567 4.645z" fill="#5968BB"/>
            <path d="M133.105 105.714a22.578 22.578 0 0 0 6.493 2.319c13.445 2.69 31.019-3.815 31.019-3.815s-3.866-5.839-7.1-11.974c-.314-.559-.629-1.125-.886-1.7-1.427-2.822-1.113-4.683-.251-6.33 1.169-2.275 3.382-4.142 3.526-7.6.239-5.965-12.477-10.956-12.477-10.956-19.064-1.138-14.557 10.057-12.741 19.1.17.83.314 1.628.409 2.407 0 .17.038.346.05.515.001.223.016.445.044.666.356 8.921-8.086 17.368-8.086 17.368z" fill="#5968BB"/>
            <path d="M141.205 88.354a2.14 2.14 0 0 0-.031-.459c-.031-.151 0-.484-.057-.729-.1-.779-2.062-9.428-2.15-11.553.515-.968 2.187 5.594 3.507 4.4 3.47-3.281 3.03-11.66 3.03-11.66.792 4.023 1.427 11.943.082 14.394-.289.522-1.307 2.558-1.364 2.653-.981 3.03-.264 6.066-.421 9.164a25.206 25.206 0 0 1-2.081 7.775c-.528 1.333-1.1 4.224-2.106 5.72a22.58 22.58 0 0 1-6.509-2.344s8.442-8.448 8.1-17.361z" fill="#4A5396"/>
            <path d="M155.425 63.066v3.369s.905 1.666 0 1.848c-1.993.4-4.871-2.709-4.871-2.709v-4.519l4.871 2.011z" fill="#FCB295"/>
            <path d="M150.554 63.934v-2.577s2.477 2.363 4.871 2.514c0-.012-2.885 1.389-4.871.063z" fill="#BE7264"/>
            <path d="M156.62 53.23a26.566 26.566 0 0 1 2.257 7.027c.321 2.407-4.086 5.588-7.675 2.2-3.589-3.388-2.596-8.577-2.596-8.577l8.014-.65z" fill="#FCB295"/>
            <path d="M158.354 53.107c-.245-.151-.566-.163-.8-.308-.735-.471-.434-.7-.855-1.163a2.91 2.91 0 0 0-1.219-.855 7.241 7.241 0 0 0-4.136 0 .502.502 0 0 0-.314.779 5.745 5.745 0 0 0-3.4 8.561c.88 1.345 2.514 2.451 3.432.666a7.251 7.251 0 0 0 .459-4.1 6.968 6.968 0 0 1 0-1.4 3.588 3.588 0 0 1 2.753-1.647c.27.277.5.685.754.955.372.413.826.745 1.333.974a2.013 2.013 0 0 0 2.464-.4 1.443 1.443 0 0 0-.471-2.062z" fill="#904B44"/>
            <path d="M151.874 57.083s-1.446-.673-1.735.484a1.234 1.234 0 0 0 .208 1.187 1.236 1.236 0 0 0 1.118.447c.56-.213.742-1.634.409-2.118z" fill="#FCB295"/>
            <path d="M147.763 53.104a4.936 4.936 0 0 1 3.262-2.678c.717-.258 1.219.823.5 1.087a3.902 3.902 0 0 0-2.634 1.993.63.63 0 0 1-1.125-.4l-.003-.002z" fill="#383057"/>
            <path d="M154.935 87.185c.3 1.15 2.671 1.76 3.577 2.131a44.316 44.316 0 0 1 5.028 2.929c-.314-.559-.629-1.125-.886-1.7-1.427-2.822-1.113-4.683-.251-6.33-2 .93-4.236.629-6.286 1.414-.654.248-1.409.695-1.182 1.556z" fill="#4A5396"/>
            <path fill-rule="evenodd" clip-rule="evenodd" d="M150.183 81.635a2.729 2.729 0 1 0 .9 5.38 2.729 2.729 0 0 0-.9-5.38zm.729 4.438a1.768 1.768 0 0 1-2.055-1.801 1.769 1.769 0 0 1 2.17-1.66 1.768 1.768 0 0 1 1.339 1.437 1.77 1.77 0 0 1-1.452 2.024h-.002z" fill="#383057"/>
            <path fill-rule="evenodd" clip-rule="evenodd" d="m160.184 105.865-11.742 1.923a2.2 2.2 0 0 1-2.514-1.817l-2.973-18.153a2.19 2.19 0 0 1 1.817-2.514l11.735-1.926a2.199 2.199 0 0 1 2.514 1.817l3 18.14a2.215 2.215 0 0 1-.392 1.646 2.213 2.213 0 0 1-1.443.881l-.002.003z" fill="#FFC88B"/>
            <path d="M157.117 95.909c.666-.849-.258-4.054-.251-4.073-2.03.409-4.494.383-5.2 1.295-.333.427 1.257 3.08 1.408 3.042.303-.094 4.011-.22 4.043-.264z" fill="#FCB295"/>
            <path d="M127.687 97.688c-3.262-7.543 1.49-18.341 3.539-22.062 2.91-5.267 10.736-10.642 14-7.926 1.257 1.05.585 4.111.377 5.028-1.639 7.694-7.339 18.643-7.281 20.215.075 1.923 13.432-2.741 14.495-1.257 0 0 2.407 4.8 1.446 5.506.001.012-20.423 14.658-26.576.496z" fill="#5968BB"/>
            <path d="M161.33 94.205a1.095 1.095 0 0 0 .05-1.207.704.704 0 0 0-.113-.119.797.797 0 0 0 .207-.93 1.05 1.05 0 0 0-.767-.566.84.84 0 0 0 0-.308c-.4-1.383-2.653-.05-3.388.226a.483.483 0 0 0-.339.478c-.061.04-.118.087-.17.138a3.295 3.295 0 0 0-.365 3.036 2.345 2.345 0 0 0 2.621 1.458c.823-.088 2.552-.377 2.7-1.414a.668.668 0 0 0-.44-.792h.004z" fill="#FCB295"/>
            <path d="M159.812 88.97a2.702 2.702 0 0 0-2.376.239 7.546 7.546 0 0 0-1.81 2.778c-.39.233.126.226.723.346.71.138 1.54 0 1.735-.811.088-.358 0-.691.289-.981.38-.29.848-.443 1.326-.434a.63.63 0 0 0 .113-1.137z" fill="#FCB295"/>
            <path d="m206.018 70.201-13.983-5.33s-6.242 7.838-7.027 15.456c0 0 11.075 8.41 13.539 9.391-.022 0 2.088-14.517 7.471-19.517z" fill="#fff"/>
            <path d="m193.491 67.793.151-.471a71.218 71.218 0 0 1 8.523 3.426l-.22.44a72.675 72.675 0 0 0-8.454-3.395zM192.498 69.648l.151-.471a74.665 74.665 0 0 1 8.523 3.426l-.22.446a73.77 73.77 0 0 0-8.454-3.401zM190.216 74.135l.151-.471a74.246 74.246 0 0 1 8.523 3.426l-.22.446a73.77 73.77 0 0 0-8.454-3.401zM189.198 75.99l.195-.459a89.665 89.665 0 0 1 8.473 4.086l-.245.434a92.288 92.288 0 0 0-8.423-4.061zM188.683 78.435l.233-.44a55.865 55.865 0 0 1 7.612 5.029l-.314.383a55.222 55.222 0 0 0-7.53-4.972h-.001z" fill="#C2BEB5"/>
            <path d="M186.703 70.609a3.107 3.107 0 0 0-3.375 2.338c-.049.06-.095.123-.138.189-.327.685-.264 1.421.515 1.7a1.887 1.887 0 0 0 2.288-.742c.321-.534.239-1.421 1.012-1.54s1.729.591 2.319.987a.632.632 0 0 0 .804-.229.622.622 0 0 0 .096-.286c.168-1.926-2.105-2.272-3.521-2.417z" fill="#FCB295"/>
            <path d="M183.685 72.495s-.566 1.012-.867 1.54a1.39 1.39 0 0 0 0 1.163l.629 1.012.446.063a.999.999 0 0 0 .761-.182c.162-.19.35-.355.559-.49.151-.057.415-.886.415-.886s-.409.094-.239-.277a4.69 4.69 0 0 0-.176-1.691l-1.528-.252zM155.105 92.283a1.099 1.099 0 0 0 .849-.629 1.64 1.64 0 0 1 1.961-.585c.289.2.547-.145 1.05-.245s0 1.741 0 1.741l-1.5 3.426a2.186 2.186 0 0 0-1.094-.182c-.735 0-1.659-2.684-1.659-2.684l.393-.842z" fill="#FCB295"/>
            <path d="M145.64 71.427s.289-.453.358.17 2.011.811 2.03.49a3.662 3.662 0 0 0 0-2.3c-.459-.893-.673-1.113-.993-1.76-.32-.647-.459-.823-.629-.886-.17-.063-2.326-.427-2.326-.427l-3.231.811s1.483 2.175 1.5 2.219c.017.044 3.291 1.683 3.291 1.683z" fill="#5968BB"/>
            <path d="m151.522 56.712-.069 1.881v.383a.56.56 0 0 1 .038.421c-.057.289 1.584.352 1.584.352.289-.452.439-.979.434-1.515-.044-.811-.044-1.439-.352-1.716-.308-.277-.371-.547-.786-.4-.415.147-.779.327-.779.327l-.07.267z" fill="#FCB295"/>
            <path d="M229.4 153.913a4.037 4.037 0 0 0 2.502 3.747c.492.203 1.02.308 1.552.307h33.766l2.426-.761c6.091-1.936 21.66-7.008 22.7-8.636 1.295-2.024 4.4-30.649 4.4-30.649h-33.8a4.047 4.047 0 0 0-2.953.959 4.06 4.06 0 0 0-1.409 2.768l-.786 17.9a11.26 11.26 0 0 1-11.17 10.308h-13.2a4.056 4.056 0 0 0-4.028 4.057z" fill="#5968BB"/>
            <path d="M267.221 157.979h13.2a19.4 19.4 0 0 0 19.253-17.795l.786-17.9a4.066 4.066 0 0 0-.893-3.05 4.056 4.056 0 0 0-6.8.845 4.041 4.041 0 0 0-.384 1.576l-.786 17.9a11.263 11.263 0 0 1-11.169 10.315h-13.2a4.056 4.056 0 0 0-2.867 6.921 4.056 4.056 0 0 0 2.867 1.187l-.007.001z" fill="#4A5396"/>
            <path d="M297.21 135.087h4.444v61.241c0 .32-.127.627-.354.853a1.203 1.203 0 0 1-.853.354h-2.03a1.207 1.207 0 0 1-1.207-1.207v-61.241z" fill="#904B44"/>
            <path d="M279.063 135.087h4.444v61.241a1.206 1.206 0 0 1-1.207 1.207h-2.03a1.207 1.207 0 0 1-1.207-1.207v-61.241z" fill="#BA6F5A"/>
            <path d="M221.461 135.087h4.444v61.241c0 .32-.127.627-.354.853a1.203 1.203 0 0 1-.853.354h-2.062a1.207 1.207 0 0 1-1.207-1.207v-61.241h.032z" fill="#904B44"/>
            <path d="M203.316 135.087h4.44v61.241a1.207 1.207 0 0 1-1.207 1.207h-2.03a1.204 1.204 0 0 1-1.207-1.207v-61.241h.004z" fill="#BA6F5A"/>
            <path d="M275.788 133.83h-77.426v3.947h77.426v-3.947z" fill="#BA6F5A"/>
            <path d="M310.064 133.83h-34.282v3.947h34.282v-3.947z" fill="#904B44"/>
            <path d="M230.532 107.727s2.8 17.826 2.8 26.318c0 0 22.553-.629 31.359 0 0 0-.578-17.436-.893-28.1.01.002-24.85 2.416-33.266 1.782z" fill="#fff"/>
            <path d="M228.65 133.573c.145-2.514-.453-10.208-1.043-16.82a1.974 1.974 0 0 0-.031-.434 78.319 78.319 0 0 0-.126-1.289c-.44-4.947-.836-8.894-.836-8.894.592.45 1.236.828 1.917 1.125a4.834 4.834 0 0 0 1.967.453 65.273 65.273 0 0 1 1.389 7.065c.446 3.074.754 6.235.962 9.083l.151 2.3c.157 2.59.233 4.764.264 6.172v1.7l-4.614-.461z" fill="#E0DCD1"/>
            <path d="M264.293 120.838a53.45 53.45 0 0 1-7.36 1.1 31.48 31.48 0 0 0 7.4.471l-.04-1.571zM263.808 111.083a33.512 33.512 0 0 1-13.753 4.494s7.668.321 14.048 0l-.295-4.494zM233.05 126.646s7.876-.4 10.378-1.2l-10.558-1.572.18 2.772zM230.922 116.966l-3.3-.214-.031-.434-.1-1.289-.063-.836c.202.289.434.557.691.8.823.802 1.77 1.468 2.803 1.973zM229.702 129.11l3.539 1.886-.113-2.194s-2.188.943-3.426.308zM226.629 106.136a250.17 250.17 0 0 0 32.138-1.886s1.37.591 5.028 1.7c0 0-22.339 2.514-33.27 1.779.007.001-.829.475-3.896-1.593z" fill="#C2BEB5"/>
            <path d="M245.617 133.805c-.05-1.062-.195-3.966-.358-7.392l-.044-1.056c-.05-1.15-.107-2.345-.17-3.539-.1-2.282-.207-4.544-.289-6.48-3.671-.748-5.028-1.144-5.028-1.144-2.59.239-5.217.434-7.8.6h-.365l-3.451.189h-.629c.044.421.088.855.126 1.289l.031.434c.591 6.612 1.188 14.319 1.043 16.82l4.676.471c4.746 0 9.334.05 12.326.195-.018.047-.024-.098-.068-.387z" fill="#E0DCD1"/>
            <path d="m208.724 93.866-8.134 13.64s7.046 7.964 14.865 10.176c0 0 10.824-10.057 12.295-12.427.004.001-14.773-4.871-19.026-11.389z" fill="#fff"/>
            <path d="m203.919 106.501-.465-.245a76.203 76.203 0 0 1 5.142-8.284l.421.308a76.26 76.26 0 0 0-5.1 8.222l.002-.001zM205.672 107.883l-.465-.256a78.56 78.56 0 0 1 5.142-8.284l.427.314a76.936 76.936 0 0 0-5.1 8.222l-.004.004zM209.947 111.089l-.465-.251a78.725 78.725 0 0 1 5.142-8.284l.427.314a76.936 76.936 0 0 0-5.1 8.222l-.004-.001zM211.675 112.484l-.44-.283a93.762 93.762 0 0 1 5.827-8.108l.409.333c-2.905 3.577-5.746 8.014-5.796 8.058zM214.19 113.478l-.415-.327a58.895 58.895 0 0 1 6.644-7.04l.346.4a57.962 57.962 0 0 0-6.575 6.964v.003z" fill="#C2BEB5"/>
            <path d="M208.199 117.274s2.8 11.214 2.8 16.55c0 0 22.553-.4 31.359 0 0 0-.585-10.968-.893-17.669.004 0-24.862 1.521-33.266 1.119z" fill="#fff"/>
            <path d="M208.199 117.274a9.209 9.209 0 0 1-3.916-1s2.307 14.312 2.037 17.248l4.683.3s-.101-10.105-2.804-16.548z" fill="#E0DCD1"/>
            <path d="M241.953 125.521s-2.477.4-7.367.691a50.13 50.13 0 0 0 7.411.3l-.044-.991zM241.469 119.386a47.628 47.628 0 0 1-13.753 2.829s7.668.2 14.048 0l-.295-2.829zM210.733 129.172s7.857-.251 10.371-.735l-10.56-.987.189 1.722zM205.088 121.341a9.244 9.244 0 0 0 3.488 1.747l-3.294-.138-.194-1.609zM207.363 130.718l3.539 1.169-.113-1.377a7.766 7.766 0 0 1-3.426.208zM204.283 116.275s16.827.138 32.145-1.188c0 0 1.37.371 5.028 1.069 0 0-22.339 1.578-33.27 1.119.013-.001-.829.301-3.903-1z" fill="#C2BEB5"/>
            <path d="M256.548 117.155s2.8 11.207 2.8 16.544c0 0 22.553-.4 31.359 0 0 0-.578-10.962-.893-17.663.004 0-24.862 1.521-33.266 1.119z" fill="#fff"/>
            <path d="M256.548 117.154a9.179 9.179 0 0 1-3.91-1s2.3 14.312 2.03 17.248l4.683.3s-.1-10.107-2.803-16.548z" fill="#E0DCD1"/>
            <path d="M290.303 125.395s-2.477.4-7.367.7c2.459.283 4.936.383 7.411.3l-.044-1zM289.818 119.266a47.48 47.48 0 0 1-13.753 2.822s7.668.2 14.048 0l-.295-2.822zM259.081 129.065s7.876-.258 10.378-.754l-10.56-.993.182 1.747zM253.438 121.221a9.733 9.733 0 0 0 3.494 1.741l-3.293-.132-.201-1.609zM255.712 130.6l3.539 1.169-.113-1.383a7.767 7.767 0 0 1-3.426.214zM252.638 116.155s16.82.138 32.138-1.188c0 0 1.37.371 5.028 1.069 0 0-22.339 1.578-33.27 1.119.014-.001-.829.301-3.896-1z" fill="#C2BEB5"/>
            <path d="m288.542 121.202 1.452 12.7h9.8l1.452-12.7h-12.704z" fill="#383057"/>
            <path d="M301.245 121.199c0 .553-2.847 1-6.355 1-3.508 0-6.348-.446-6.348-1s2.841-.993 6.348-.993c3.507 0 6.355.449 6.355.993z" fill="#383057"/>
            <path d="M294.89 122.529c-1.112 0-6.675-.063-6.675-1.32 0-1.257 5.563-1.326 6.675-1.326s6.682.063 6.682 1.326c0 1.263-5.563 1.32-6.682 1.32zm-5.94-1.32c3.912.888 7.974.888 11.886 0-.534-.3-2.728-.673-5.946-.673-3.218 0-5.405.357-5.94.673z" fill="#292340"/>
            <path d="M301.427 116.054a5.499 5.499 0 0 0-2.64.717c.371-.997.659-2.023.861-3.067a2.932 2.932 0 0 0 2.741.849 1.891 1.891 0 0 0 1.452-1.544c.039-.247.029-.5-.031-.744a1.838 1.838 0 0 0-1.002-1.054 1.842 1.842 0 0 0-1.456-.002 3.373 3.373 0 0 0-1.421.786c.113-.855.195-1.716.258-2.571 1.131-.421 2.6-1.175 3.023-2.357a2.232 2.232 0 0 0-.157-1.622c-.176-.4-.471-1.15-.974-1.257-.88-.163-2.018 1.383-2.376 2.024a2.582 2.582 0 0 0-.138 2.772 42.323 42.323 0 0 1-.321 3.2 2.26 2.26 0 0 0-1.565-1.471 1.352 1.352 0 0 0-1.653 1.3 2.622 2.622 0 0 0 1.578 2.024 1.496 1.496 0 0 0 1.345-.189 16.547 16.547 0 0 1-1.144 3.539 3.37 3.37 0 0 0-1.534-1.766 1.254 1.254 0 0 0-1.448.337 1.269 1.269 0 0 0-.252.463 1.69 1.69 0 0 0 .811 1.886 2.337 2.337 0 0 0 1.8.277 11.391 11.391 0 0 1-1.961 2.451c-.308.289.157.754.471.465a11.81 11.81 0 0 0 2.244-2.929c.629 1.257 1.527 1.333 2.91 1.15 1.113-.145 2.816-.685 3.042-2.011.226-1.326-1.482-1.668-2.463-1.656z" fill="#99A371"/>
            <path d="M298.172 102.314c.585-.5 1.069-1.559.465-2.238a1.827 1.827 0 0 0-2.181-.1 5.856 5.856 0 0 0-1.741 2.653.34.34 0 0 0 0 .195.432.432 0 0 0 0 .22c-.132.333-.258.673-.371 1.018a4.574 4.574 0 0 0-.666-2.1c-.4-.629-1.32-1.7-2.15-1.157-.83.543-.629 1.678-.314 2.376a7.718 7.718 0 0 0 2.709 2.514 30.827 30.827 0 0 0-.522 4.595v1.257l-.038.327a.313.313 0 0 0 .05.176v.126a3.46 3.46 0 0 0-.691-.773c-.541-.427-1.471-.817-1.961-.113a1.883 1.883 0 0 0 .182 2.219 3.173 3.173 0 0 0 2.64.767 55.611 55.611 0 0 0 1.634 7.14.33.33 0 0 0 .398.211.328.328 0 0 0 .231-.387c-.4-1.452-.8-2.885-1.131-4.324a3.578 3.578 0 0 0 1.93-1.081 1.932 1.932 0 0 0 .459-2.068 1.06 1.06 0 0 0-1.666-.434 3.389 3.389 0 0 0-1.081 1.829 23.019 23.019 0 0 1-.339-3.495 4.6 4.6 0 0 1 .1-.629 1.928 1.928 0 0 0 1.119-.918c.189-.371.27-.943-.251-1.056a.975.975 0 0 0-.905.459c.07-2.15.495-4.274 1.257-6.286a4.724 4.724 0 0 0 2.835-.924l-.001.001z" fill="#738249"/>
            <path d="M294.167 121.077a33.975 33.975 0 0 0-2.791-4.79 4.832 4.832 0 0 0 2.03-.962 1.246 1.246 0 0 0 .319-.919 1.255 1.255 0 0 0-.432-.872c-1.314-1.257-2.269.277-2.81 1.527-.258-.346-.515-.7-.792-1.031a.341.341 0 0 0-.072-.158.338.338 0 0 0-.142-.1c-.239-.289-.471-.591-.723-.874 1.351-.629 2.156-3.382.754-4.325a1.266 1.266 0 0 0-1.015-.132 1.262 1.262 0 0 0-.776.666 5.192 5.192 0 0 0-.49 2.175c-.157-.163-.314-.327-.478-.484a.379.379 0 0 0-.138-.075 5.323 5.323 0 0 0-2.634-3.457c-.987-.534-2.986-1.144-3.6.214a2.92 2.92 0 0 0 .943 3.614 6.724 6.724 0 0 0 5.148.371h.031c.226.22.446.453.673.679a.265.265 0 0 0 .081.241.27.27 0 0 0 .246.067c.182.189.358.383.534.578a6.865 6.865 0 0 0-2.671-.1c-.924.113-2.464.308-2.426 1.546.031 1.075 1.194 1.571 2.118 1.6a7.887 7.887 0 0 0 4.268-1.54c.308.377.6.773.886 1.169a1.882 1.882 0 0 0-1.553.541 1.095 1.095 0 0 0-.286.794 1.086 1.086 0 0 0 .368.759 1.256 1.256 0 0 0 1.609 0 1.564 1.564 0 0 0 .6-1.081 35.1 35.1 0 0 1 2.684 4.651c.154.424.72.091.537-.292z" fill="#99A371"/>
        </g>
    </g>
    <path d="M90.693 38h2.232V22.424h5.28v-2.16H85.413v2.16h5.28V38zm19.595-6.648c0-1.992-.576-3.576-1.728-4.752-1.152-1.176-2.64-1.752-4.44-1.752-1.896 0-3.456.624-4.656 1.896-1.2 1.272-1.8 2.856-1.8 4.8 0 3.36 1.992 6.744 6.816 6.744 2.136 0 4.248-.816 5.496-1.8l-.912-1.656c-1.224.864-3 1.464-4.536 1.464-2.784 0-4.248-1.584-4.608-3.816h10.296c.048-.576.072-.96.072-1.128zm-6.168-4.56c2.136 0 3.792 1.464 3.912 3.768H99.92c.36-2.232 1.992-3.768 4.2-3.768zM115.217 38v-6.912c0-2.76 1.488-4.2 3.576-4.2.408 0 .864.072 1.32.216l.192-2.088a6.327 6.327 0 0 0-1.488-.192c-1.728 0-2.976.744-3.72 2.256v-1.92h-2.016V38h2.136zm21.787-13.176c-2.016 0-3.816.96-4.68 2.4-.744-1.512-2.328-2.4-4.08-2.4-1.704 0-3.096.864-3.864 2.232V25.16h-2.088V38h2.136v-7.2c0-2.4 1.44-3.984 3.528-3.984 1.992 0 3.192 1.464 3.192 3.936V38h2.136v-7.248c0-2.328 1.416-3.936 3.504-3.936 1.944 0 3.168 1.392 3.168 3.888V38h2.136v-7.608c0-1.704-.456-3.048-1.368-4.056-.912-1.008-2.16-1.512-3.72-1.512zm7.745 6.744c0 1.896.624 3.504 1.896 4.8 1.272 1.296 2.88 1.944 4.824 1.944s3.552-.648 4.824-1.944c1.272-1.296 1.896-2.904 1.896-4.8 0-1.872-.648-3.456-1.92-4.752-1.272-1.32-2.856-1.968-4.8-1.968s-3.552.648-4.824 1.968c-1.272 1.296-1.896 2.88-1.896 4.752zm11.28 0c0 1.32-.432 2.448-1.32 3.384-.888.936-1.968 1.392-3.24 1.392-1.272 0-2.352-.456-3.24-1.392-.888-.936-1.32-2.064-1.32-3.384 0-1.296.432-2.4 1.32-3.336.888-.936 1.968-1.416 3.24-1.416 1.272 0 2.352.48 3.24 1.416.888.936 1.32 2.04 1.32 3.336zm8.462 6.72c1.32 0 2.424-.384 3.264-1.128.84-.744 1.272-1.656 1.272-2.736 0-1.392-.72-2.472-2.184-3.24-.36-.192-.936-.456-1.68-.768l-1.464-.672c-.696-.336-1.056-.864-1.056-1.56 0-.888.672-1.632 1.896-1.632 1.152 0 2.064.504 2.712 1.512l1.44-1.272c-.768-1.344-2.376-2.064-4.008-2.064-1.224 0-2.232.336-2.976 1.008-.744.672-1.104 1.512-1.104 2.544 0 1.344.648 2.376 1.92 3.072.288.168.816.408 1.608.744.792.336 1.296.576 1.56.72.816.456 1.224 1.032 1.224 1.728 0 .984-.936 1.848-2.352 1.848-1.176 0-2.376-.696-3.12-2.064l-1.632 1.128c.96 1.896 2.76 2.832 4.68 2.832zm25.039-6.936c0-1.992-.576-3.576-1.728-4.752-1.152-1.176-2.64-1.752-4.44-1.752-1.896 0-3.456.624-4.656 1.896-1.2 1.272-1.8 2.856-1.8 4.8 0 3.36 1.992 6.744 6.816 6.744 2.136 0 4.248-.816 5.496-1.8l-.912-1.656c-1.224.864-3 1.464-4.536 1.464-2.784 0-4.248-1.584-4.608-3.816h10.296c.048-.576.072-.96.072-1.128zm-6.168-4.56c2.136 0 3.792 1.464 3.912 3.768h-8.112c.36-2.232 1.992-3.768 4.2-3.768zm15.347-6.528V38h2.208v-6.888h3.408c1.896 0 3.336-.528 4.344-1.584 1.032-1.08 1.536-2.352 1.536-3.84 0-1.464-.48-2.736-1.464-3.816-.96-1.08-2.352-1.608-4.2-1.608h-5.832zm2.208 8.76v-6.648h3.768c2.112 0 3.288 1.464 3.288 3.264 0 1.848-1.224 3.384-3.624 3.384h-3.432zm10.723 2.544c0 1.896.624 3.504 1.896 4.8 1.272 1.296 2.88 1.944 4.824 1.944s3.552-.648 4.824-1.944c1.272-1.296 1.896-2.904 1.896-4.8 0-1.872-.648-3.456-1.92-4.752-1.272-1.32-2.856-1.968-4.8-1.968s-3.552.648-4.824 1.968c-1.272 1.296-1.896 2.88-1.896 4.752zm11.28 0c0 1.32-.432 2.448-1.32 3.384-.888.936-1.968 1.392-3.24 1.392-1.272 0-2.352-.456-3.24-1.392-.888-.936-1.32-2.064-1.32-3.384 0-1.296.432-2.4 1.32-3.336.888-.936 1.968-1.416 3.24-1.416 1.272 0 2.352.48 3.24 1.416.888.936 1.32 2.04 1.32 3.336zm7.117-11.736h-2.136V38h2.136V19.832zm5.645 3.24 2.232-3.984h-2.664l-1.416 3.984h1.848zm.144 2.088h-2.136V38h2.136V25.16zm11.045 10.416c-.816.504-1.584.768-2.328.768-1.416 0-2.112-.864-2.112-2.592v-6.744h4.584V25.16h-4.584v-4.536h-2.112v4.536h-2.304v1.848h2.28v6.528c0 3.048 1.368 4.776 4.056 4.776 1.32 0 2.448-.36 3.36-1.08l-.84-1.656zm3.837-12.288c.864 0 1.56-.696 1.56-1.584 0-.888-.696-1.56-1.56-1.56-.936 0-1.608.672-1.608 1.56s.672 1.584 1.608 1.584zm1.032 1.872h-2.136V38h2.136V25.16zm9.605 13.128c2.496 0 4.8-1.344 5.856-3.288l-1.776-1.032c-.36.672-.936 1.224-1.704 1.68-.768.456-1.56.672-2.376.672-1.32 0-2.424-.456-3.312-1.344-.864-.912-1.296-2.04-1.296-3.384 0-1.368.456-2.496 1.344-3.408.888-.912 2.016-1.368 3.384-1.368 1.656 0 3.144.936 4.032 2.4l1.776-1.032c-.984-2.016-3.288-3.336-5.808-3.336-2.016 0-3.672.624-4.968 1.896-1.272 1.272-1.92 2.88-1.92 4.848 0 1.944.624 3.552 1.896 4.824 1.272 1.248 2.88 1.872 4.872 1.872zm18.592-11.232c-1.176-1.464-2.712-2.208-4.584-2.208-1.848 0-3.384.624-4.608 1.896-1.224 1.248-1.824 2.832-1.824 4.752 0 1.944.6 3.552 1.824 4.872 1.224 1.296 2.76 1.944 4.608 1.944 1.896 0 3.408-.72 4.584-2.16V38h2.064V25.16h-2.064v1.896zm.168 4.512c0 1.344-.432 2.472-1.272 3.408-.84.912-1.92 1.368-3.264 1.368-1.344 0-2.424-.456-3.264-1.368-.816-.936-1.224-2.064-1.224-3.384 0-1.344.408-2.472 1.224-3.384.84-.936 1.92-1.392 3.264-1.392 1.344 0 2.424.456 3.264 1.392.84.912 1.272 2.04 1.272 3.36zm9.026 6.72c1.32 0 2.424-.384 3.264-1.128.84-.744 1.272-1.656 1.272-2.736 0-1.392-.72-2.472-2.184-3.24-.36-.192-.936-.456-1.68-.768l-1.464-.672c-.696-.336-1.056-.864-1.056-1.56 0-.888.672-1.632 1.896-1.632 1.152 0 2.064.504 2.712 1.512l1.44-1.272c-.768-1.344-2.376-2.064-4.008-2.064-1.224 0-2.232.336-2.976 1.008-.744.672-1.104 1.512-1.104 2.544 0 1.344.648 2.376 1.92 3.072.288.168.816.408 1.608.744.792.336 1.296.576 1.56.72.816.456 1.224 1.032 1.224 1.728 0 .984-.936 1.848-2.352 1.848-1.176 0-2.376-.696-3.12-2.064l-1.632 1.128c.96 1.896 2.76 2.832 4.68 2.832z" fill="#1F2023"/>
</svg>
