<svg xmlns="http://www.w3.org/2000/svg" xmlns:xlink="http://www.w3.org/1999/xlink" width="1280" height="478" viewBox="0 0 1280 478">
  <defs>
    <clipPath id="clip-path">
      <rect id="Rectangle_9395" data-name="Rectangle 9395" width="1280" height="478" transform="translate(0 96)" fill="#b3b8c1"/>
    </clipPath>
  </defs>
  <g id="banner" transform="translate(0 -96)" clip-path="url(#clip-path)">
    <g id="Layer_2" data-name="Layer 2" transform="translate(-112.965 -171.284)">
      <g id="Layer_1" data-name="Layer 1" transform="translate(-21 10)">
        <g id="Group_18950" data-name="Group 18950">
          <rect id="Rectangle_9620" data-name="Rectangle 9620" width="1169.317" height="1063.269" transform="translate(138.57)" fill="#ffe3d5"/>
          <path id="Path_35496" data-name="Path 35496" d="M176.135,243.142v-34.29h56.92V44.89h15.667V208.852h61.313v34.29H342.86V930.63H106.09V243.142Z" transform="translate(187.047 79.146)" fill="#e6a786"/>
          <rect id="Rectangle_9621" data-name="Rectangle 9621" width="32.826" height="618.41" transform="translate(325.963 940.725) rotate(180)" fill="#a67566"/>
          <rect id="Rectangle_9622" data-name="Rectangle 9622" width="236.77" height="523.718" transform="translate(648.279 1009.775) rotate(180)" fill="#e6a786"/>
          <rect id="Rectangle_9623" data-name="Rectangle 9623" width="32.826" height="523.718" transform="translate(444.362 1009.775) rotate(180)" fill="#a67566"/>
          <rect id="Rectangle_9624" data-name="Rectangle 9624" width="33.986" height="14.092" transform="translate(615.232 522.475) rotate(180)" fill="#a67566"/>
          <rect id="Rectangle_9625" data-name="Rectangle 9625" width="33.986" height="14.092" transform="translate(558.063 522.475) rotate(180)" fill="#a67566"/>
          <rect id="Rectangle_9626" data-name="Rectangle 9626" width="33.986" height="14.092" transform="translate(615.232 573.841) rotate(180)" fill="#a67566"/>
          <rect id="Rectangle_9627" data-name="Rectangle 9627" width="33.986" height="14.092" transform="translate(558.063 573.841) rotate(180)" fill="#a67566"/>
          <rect id="Rectangle_9628" data-name="Rectangle 9628" width="33.959" height="14.092" transform="translate(500.84 573.841) rotate(180)" fill="#a67566"/>
          <rect id="Rectangle_9629" data-name="Rectangle 9629" width="33.986" height="14.092" transform="translate(615.232 625.151) rotate(180)" fill="#a67566"/>
          <rect id="Rectangle_9630" data-name="Rectangle 9630" width="33.959" height="14.092" transform="translate(500.84 625.151) rotate(180)" fill="#a67566"/>
          <rect id="Rectangle_9631" data-name="Rectangle 9631" width="33.986" height="14.092" transform="translate(558.063 650.821) rotate(180)" fill="#a67566"/>
          <rect id="Rectangle_9632" data-name="Rectangle 9632" width="33.986" height="14.092" transform="translate(615.232 676.49) rotate(180)" fill="#a67566"/>
          <rect id="Rectangle_9633" data-name="Rectangle 9633" width="33.986" height="14.092" transform="translate(558.063 702.159) rotate(180)" fill="#a67566"/>
          <rect id="Rectangle_9634" data-name="Rectangle 9634" width="33.986" height="14.092" transform="translate(615.232 727.828) rotate(180)" fill="#a67566"/>
          <rect id="Rectangle_9635" data-name="Rectangle 9635" width="33.959" height="14.092" transform="translate(500.84 727.828) rotate(180)" fill="#a67566"/>
          <rect id="Rectangle_9636" data-name="Rectangle 9636" width="33.986" height="14.092" transform="translate(615.232 775.271) rotate(180)" fill="#a67566"/>
          <rect id="Rectangle_9637" data-name="Rectangle 9637" width="33.986" height="14.092" transform="translate(558.063 775.271) rotate(180)" fill="#a67566"/>
          <rect id="Rectangle_9638" data-name="Rectangle 9638" width="33.986" height="14.092" transform="translate(615.232 826.609) rotate(180)" fill="#a67566"/>
          <rect id="Rectangle_9639" data-name="Rectangle 9639" width="33.986" height="14.092" transform="translate(558.063 826.609) rotate(180)" fill="#a67566"/>
          <rect id="Rectangle_9640" data-name="Rectangle 9640" width="33.959" height="14.092" transform="translate(500.84 826.609) rotate(180)" fill="#a67566"/>
          <rect id="Rectangle_9641" data-name="Rectangle 9641" width="33.986" height="14.092" transform="translate(615.232 877.948) rotate(180)" fill="#a67566"/>
          <rect id="Rectangle_9642" data-name="Rectangle 9642" width="33.959" height="14.092" transform="translate(500.84 877.948) rotate(180)" fill="#a67566"/>
          <rect id="Rectangle_9643" data-name="Rectangle 9643" width="33.986" height="14.092" transform="translate(558.063 903.617) rotate(180)" fill="#a67566"/>
          <rect id="Rectangle_9644" data-name="Rectangle 9644" width="33.959" height="14.092" transform="translate(500.84 903.617) rotate(180)" fill="#a67566"/>
          <rect id="Rectangle_9645" data-name="Rectangle 9645" width="33.986" height="14.092" transform="translate(615.232 929.286) rotate(180)" fill="#a67566"/>
          <rect id="Rectangle_9646" data-name="Rectangle 9646" width="33.986" height="14.092" transform="translate(558.063 954.955) rotate(180)" fill="#a67566"/>
          <rect id="Rectangle_9647" data-name="Rectangle 9647" width="33.986" height="14.092" transform="translate(615.232 980.652) rotate(180)" fill="#a67566"/>
          <rect id="Rectangle_9648" data-name="Rectangle 9648" width="33.959" height="14.092" transform="translate(500.84 980.652) rotate(180)" fill="#a67566"/>
          <rect id="Rectangle_9649" data-name="Rectangle 9649" width="236.77" height="523.718" transform="translate(1214.77 1009.775) rotate(180)" fill="#e6a786"/>
          <rect id="Rectangle_9650" data-name="Rectangle 9650" width="32.826" height="523.718" transform="translate(1010.853 1009.775) rotate(180)" fill="#a67566"/>
          <rect id="Rectangle_9651" data-name="Rectangle 9651" width="317.674" height="772.812" transform="translate(959.348 1009.775) rotate(180)" fill="#e6a786"/>
          <rect id="Rectangle_9652" data-name="Rectangle 9652" width="32.826" height="772.812" transform="translate(674.528 1009.775) rotate(180)" fill="#a67566"/>
          <rect id="Rectangle_9653" data-name="Rectangle 9653" width="49.625" height="20.585" transform="translate(925.887 294.574) rotate(180)" fill="#a67566"/>
          <rect id="Rectangle_9654" data-name="Rectangle 9654" width="49.625" height="20.585" transform="translate(842.359 294.574) rotate(180)" fill="#a67566"/>
          <rect id="Rectangle_9655" data-name="Rectangle 9655" width="49.625" height="20.585" transform="translate(925.887 369.537) rotate(180)" fill="#a67566"/>
          <rect id="Rectangle_9656" data-name="Rectangle 9656" width="49.625" height="20.585" transform="translate(842.359 369.537) rotate(180)" fill="#a67566"/>
          <rect id="Rectangle_9657" data-name="Rectangle 9657" width="49.598" height="20.585" transform="translate(758.83 369.537) rotate(180)" fill="#a67566"/>
          <rect id="Rectangle_9658" data-name="Rectangle 9658" width="49.625" height="20.585" transform="translate(925.887 444.5) rotate(180)" fill="#a67566"/>
          <rect id="Rectangle_9659" data-name="Rectangle 9659" width="49.598" height="20.585" transform="translate(758.83 444.5) rotate(180)" fill="#a67566"/>
          <rect id="Rectangle_9660" data-name="Rectangle 9660" width="49.625" height="20.585" transform="translate(842.359 481.995) rotate(180)" fill="#a67566"/>
          <rect id="Rectangle_9661" data-name="Rectangle 9661" width="49.625" height="20.585" transform="translate(925.887 519.491) rotate(180)" fill="#a67566"/>
          <rect id="Rectangle_9662" data-name="Rectangle 9662" width="49.625" height="20.585" transform="translate(842.359 556.958) rotate(180)" fill="#a67566"/>
          <rect id="Rectangle_9663" data-name="Rectangle 9663" width="49.625" height="20.585" transform="translate(925.887 594.453) rotate(180)" fill="#a67566"/>
          <rect id="Rectangle_9664" data-name="Rectangle 9664" width="49.598" height="20.585" transform="translate(758.83 594.453) rotate(180)" fill="#a67566"/>
          <rect id="Rectangle_9665" data-name="Rectangle 9665" width="49.625" height="20.585" transform="translate(925.887 663.724) rotate(180)" fill="#a67566"/>
          <rect id="Rectangle_9666" data-name="Rectangle 9666" width="49.625" height="20.585" transform="translate(842.359 663.724) rotate(180)" fill="#a67566"/>
          <rect id="Rectangle_9667" data-name="Rectangle 9667" width="49.625" height="20.585" transform="translate(925.887 738.715) rotate(180)" fill="#a67566"/>
          <rect id="Rectangle_9668" data-name="Rectangle 9668" width="49.625" height="20.585" transform="translate(842.359 738.715) rotate(180)" fill="#a67566"/>
          <rect id="Rectangle_9669" data-name="Rectangle 9669" width="49.598" height="20.585" transform="translate(758.83 738.715) rotate(180)" fill="#a67566"/>
          <rect id="Rectangle_9670" data-name="Rectangle 9670" width="49.625" height="20.585" transform="translate(925.887 813.678) rotate(180)" fill="#a67566"/>
          <rect id="Rectangle_9671" data-name="Rectangle 9671" width="49.598" height="20.585" transform="translate(758.83 813.678) rotate(180)" fill="#a67566"/>
          <rect id="Rectangle_9672" data-name="Rectangle 9672" width="49.625" height="20.585" transform="translate(842.359 851.173) rotate(180)" fill="#a67566"/>
          <rect id="Rectangle_9673" data-name="Rectangle 9673" width="49.598" height="20.585" transform="translate(758.83 851.173) rotate(180)" fill="#a67566"/>
          <rect id="Rectangle_9674" data-name="Rectangle 9674" width="49.625" height="20.585" transform="translate(925.887 888.641) rotate(180)" fill="#a67566"/>
          <rect id="Rectangle_9675" data-name="Rectangle 9675" width="49.625" height="20.585" transform="translate(842.359 926.136) rotate(180)" fill="#a67566"/>
          <rect id="Rectangle_9676" data-name="Rectangle 9676" width="49.625" height="20.585" transform="translate(925.887 963.631) rotate(180)" fill="#a67566"/>
          <rect id="Rectangle_9677" data-name="Rectangle 9677" width="49.598" height="20.585" transform="translate(758.83 963.631) rotate(180)" fill="#a67566"/>
          <rect id="Rectangle_9678" data-name="Rectangle 9678" width="311.346" height="715.201" transform="translate(1452.479 1009.775) rotate(180)" fill="#e6a786"/>
          <rect id="Rectangle_9679" data-name="Rectangle 9679" width="32.162" height="715.201" transform="translate(1173.295 1009.775) rotate(180)" fill="#a67566"/>
          <rect id="Rectangle_9680" data-name="Rectangle 9680" width="48.631" height="19.065" transform="translate(1419.653 347.874) rotate(180)" fill="#a67566"/>
          <rect id="Rectangle_9681" data-name="Rectangle 9681" width="48.631" height="19.065" transform="translate(1337.81 347.874) rotate(180)" fill="#a67566"/>
          <rect id="Rectangle_9682" data-name="Rectangle 9682" width="48.631" height="19.065" transform="translate(1419.653 417.256) rotate(180)" fill="#a67566"/>
          <rect id="Rectangle_9683" data-name="Rectangle 9683" width="48.631" height="19.065" transform="translate(1337.81 417.256) rotate(180)" fill="#a67566"/>
          <rect id="Rectangle_9684" data-name="Rectangle 9684" width="48.631" height="19.065" transform="translate(1255.94 417.256) rotate(180)" fill="#a67566"/>
          <rect id="Rectangle_9685" data-name="Rectangle 9685" width="48.631" height="19.065" transform="translate(1419.653 486.637) rotate(180)" fill="#a67566"/>
          <rect id="Rectangle_9686" data-name="Rectangle 9686" width="48.631" height="19.065" transform="translate(1255.94 486.637) rotate(180)" fill="#a67566"/>
          <rect id="Rectangle_9687" data-name="Rectangle 9687" width="48.631" height="19.065" transform="translate(1337.81 521.342) rotate(180)" fill="#a67566"/>
          <rect id="Rectangle_9688" data-name="Rectangle 9688" width="48.631" height="19.065" transform="translate(1419.653 556.046) rotate(180)" fill="#a67566"/>
          <rect id="Rectangle_9689" data-name="Rectangle 9689" width="48.631" height="19.065" transform="translate(1337.81 590.723) rotate(180)" fill="#a67566"/>
          <rect id="Rectangle_9690" data-name="Rectangle 9690" width="48.631" height="19.065" transform="translate(1419.653 625.428) rotate(180)" fill="#a67566"/>
          <rect id="Rectangle_9691" data-name="Rectangle 9691" width="48.631" height="19.065" transform="translate(1255.94 625.428) rotate(180)" fill="#a67566"/>
          <rect id="Rectangle_9692" data-name="Rectangle 9692" width="48.631" height="19.065" transform="translate(1419.653 689.532) rotate(180)" fill="#a67566"/>
          <rect id="Rectangle_9693" data-name="Rectangle 9693" width="48.631" height="19.065" transform="translate(1337.81 689.532) rotate(180)" fill="#a67566"/>
          <rect id="Rectangle_9694" data-name="Rectangle 9694" width="48.631" height="19.065" transform="translate(1419.653 758.913) rotate(180)" fill="#a67566"/>
          <rect id="Rectangle_9695" data-name="Rectangle 9695" width="48.631" height="19.065" transform="translate(1337.81 758.913) rotate(180)" fill="#a67566"/>
          <rect id="Rectangle_9696" data-name="Rectangle 9696" width="48.631" height="19.065" transform="translate(1255.94 758.913) rotate(180)" fill="#a67566"/>
          <rect id="Rectangle_9697" data-name="Rectangle 9697" width="48.631" height="19.065" transform="translate(1419.653 828.295) rotate(180)" fill="#a67566"/>
          <rect id="Rectangle_9698" data-name="Rectangle 9698" width="48.631" height="19.065" transform="translate(1255.94 828.295) rotate(180)" fill="#a67566"/>
          <rect id="Rectangle_9699" data-name="Rectangle 9699" width="48.631" height="19.065" transform="translate(1337.81 862.972) rotate(180)" fill="#a67566"/>
          <rect id="Rectangle_9700" data-name="Rectangle 9700" width="48.631" height="19.065" transform="translate(1255.94 862.972) rotate(180)" fill="#a67566"/>
          <rect id="Rectangle_9701" data-name="Rectangle 9701" width="48.631" height="19.065" transform="translate(1419.653 897.676) rotate(180)" fill="#a67566"/>
          <rect id="Rectangle_9702" data-name="Rectangle 9702" width="48.631" height="19.065" transform="translate(1337.81 932.353) rotate(180)" fill="#a67566"/>
          <rect id="Rectangle_9703" data-name="Rectangle 9703" width="48.631" height="19.065" transform="translate(1419.653 967.057) rotate(180)" fill="#a67566"/>
          <rect id="Rectangle_9704" data-name="Rectangle 9704" width="48.631" height="19.065" transform="translate(1255.94 967.057) rotate(180)" fill="#a67566"/>
          <rect id="Rectangle_9705" data-name="Rectangle 9705" width="200.518" height="487.825" transform="translate(335.468 1009.775) rotate(180)" fill="#e6a786"/>
          <rect id="Rectangle_9706" data-name="Rectangle 9706" width="20.723" height="487.825" transform="translate(155.673 1009.775) rotate(180)" fill="#a67566"/>
          <rect id="Rectangle_9707" data-name="Rectangle 9707" width="31.306" height="12.987" transform="translate(314.33 558.312) rotate(180)" fill="#a67566"/>
          <rect id="Rectangle_9708" data-name="Rectangle 9708" width="31.306" height="12.987" transform="translate(261.61 558.312) rotate(180)" fill="#a67566"/>
          <rect id="Rectangle_9709" data-name="Rectangle 9709" width="31.306" height="12.987" transform="translate(314.33 605.644) rotate(180)" fill="#a67566"/>
          <rect id="Rectangle_9710" data-name="Rectangle 9710" width="31.306" height="12.987" transform="translate(261.61 605.644) rotate(180)" fill="#a67566"/>
          <rect id="Rectangle_9711" data-name="Rectangle 9711" width="31.306" height="12.987" transform="translate(208.89 605.644) rotate(180)" fill="#a67566"/>
          <rect id="Rectangle_9712" data-name="Rectangle 9712" width="31.306" height="12.987" transform="translate(314.33 652.948) rotate(180)" fill="#a67566"/>
          <rect id="Rectangle_9713" data-name="Rectangle 9713" width="31.306" height="12.987" transform="translate(208.89 652.948) rotate(180)" fill="#a67566"/>
          <rect id="Rectangle_9714" data-name="Rectangle 9714" width="31.306" height="12.987" transform="translate(261.61 676.628) rotate(180)" fill="#a67566"/>
          <rect id="Rectangle_9715" data-name="Rectangle 9715" width="31.306" height="12.987" transform="translate(314.33 700.28) rotate(180)" fill="#a67566"/>
          <rect id="Rectangle_9716" data-name="Rectangle 9716" width="31.306" height="12.987" transform="translate(261.61 723.932) rotate(180)" fill="#a67566"/>
          <rect id="Rectangle_9717" data-name="Rectangle 9717" width="31.306" height="12.987" transform="translate(314.33 747.612) rotate(180)" fill="#a67566"/>
          <rect id="Rectangle_9718" data-name="Rectangle 9718" width="31.306" height="12.987" transform="translate(208.89 747.612) rotate(180)" fill="#a67566"/>
          <rect id="Rectangle_9719" data-name="Rectangle 9719" width="31.306" height="12.987" transform="translate(314.33 791.352) rotate(180)" fill="#a67566"/>
          <rect id="Rectangle_9720" data-name="Rectangle 9720" width="31.306" height="12.987" transform="translate(261.61 791.352) rotate(180)" fill="#a67566"/>
          <rect id="Rectangle_9721" data-name="Rectangle 9721" width="31.306" height="12.987" transform="translate(314.33 838.656) rotate(180)" fill="#a67566"/>
          <rect id="Rectangle_9722" data-name="Rectangle 9722" width="31.306" height="12.987" transform="translate(261.61 838.656) rotate(180)" fill="#a67566"/>
          <rect id="Rectangle_9723" data-name="Rectangle 9723" width="31.306" height="12.987" transform="translate(208.89 838.656) rotate(180)" fill="#a67566"/>
          <rect id="Rectangle_9724" data-name="Rectangle 9724" width="31.306" height="12.987" transform="translate(314.33 886.016) rotate(180)" fill="#a67566"/>
          <rect id="Rectangle_9725" data-name="Rectangle 9725" width="31.306" height="12.987" transform="translate(208.89 886.016) rotate(180)" fill="#a67566"/>
          <rect id="Rectangle_9726" data-name="Rectangle 9726" width="31.306" height="12.987" transform="translate(261.61 909.64) rotate(180)" fill="#a67566"/>
          <rect id="Rectangle_9727" data-name="Rectangle 9727" width="31.306" height="12.987" transform="translate(208.89 909.64) rotate(180)" fill="#a67566"/>
          <rect id="Rectangle_9728" data-name="Rectangle 9728" width="31.306" height="12.987" transform="translate(314.33 933.32) rotate(180)" fill="#a67566"/>
          <rect id="Rectangle_9729" data-name="Rectangle 9729" width="31.306" height="12.987" transform="translate(261.61 957) rotate(180)" fill="#a67566"/>
          <rect id="Rectangle_9730" data-name="Rectangle 9730" width="31.306" height="12.987" transform="translate(314.33 980.652) rotate(180)" fill="#a67566"/>
          <rect id="Rectangle_9731" data-name="Rectangle 9731" width="31.306" height="12.987" transform="translate(208.89 980.652) rotate(180)" fill="#a67566"/>
          <rect id="Rectangle_9732" data-name="Rectangle 9732" width="849.792" height="968.909" transform="translate(9.312 35.755)" fill="#fff" opacity="0.72"/>
          <rect id="Rectangle_9733" data-name="Rectangle 9733" width="18.596" height="992.506" transform="translate(849.792 24.674)" fill="#fff"/>
          <path id="Path_35497" data-name="Path 35497" d="M151.335,957.288H85.38L438.919,16.95h65.955Z" transform="translate(150.534 29.885)" fill="#fff" opacity="0.5"/>
          <path id="Path_35498" data-name="Path 35498" d="M88.151,957.288H55.16L408.726,16.95h32.991Z" transform="translate(97.253 29.885)" fill="#fff" opacity="0.5"/>
          <path id="Path_35499" data-name="Path 35499" d="M230.634,892.865H197.67L500.782,53.49v67.641Z" transform="translate(348.512 94.308)" fill="#fff" opacity="0.5"/>
          <rect id="Rectangle_9734" data-name="Rectangle 9734" width="25.642" height="868.387" transform="translate(0 1019.225) rotate(-90)" fill="#fff"/>
          <rect id="Rectangle_9735" data-name="Rectangle 9735" width="18.596" height="982.476" transform="translate(566.546 29.676)" fill="#fff"/>
          <rect id="Rectangle_9736" data-name="Rectangle 9736" width="7.82" height="831.003" transform="translate(849.681 987.173) rotate(90)" fill="#fff"/>
          <rect id="Rectangle_9737" data-name="Rectangle 9737" width="22.16" height="868.387" transform="translate(0 46.835) rotate(-90)" fill="#fff"/>
          <rect id="Rectangle_9738" data-name="Rectangle 9738" width="7.82" height="831.362" transform="translate(849.874 46.835) rotate(90)" fill="#fff"/>
          <rect id="Rectangle_9739" data-name="Rectangle 9739" width="849.792" height="968.909" transform="translate(863.552 16.579)" fill="#fff" opacity="0.72"/>
          <rect id="Rectangle_9740" data-name="Rectangle 9740" width="18.596" height="992.506" transform="translate(849.874 24.674)" fill="#fff"/>
          <rect id="Rectangle_9741" data-name="Rectangle 9741" width="18.596" height="992.506" transform="translate(1699.666 24.674)" fill="#fff"/>
          <path id="Path_35500" data-name="Path 35500" d="M405.485,957.288H339.53L693.069,16.95h65.955Z" transform="translate(598.626 29.885)" fill="#fff" opacity="0.5"/>
          <path id="Path_35501" data-name="Path 35501" d="M342.3,957.288H309.31L662.876,16.95H695.84Z" transform="translate(545.345 29.885)" fill="#fff" opacity="0.5"/>
          <path id="Path_35502" data-name="Path 35502" d="M538.214,892.865H505.25L808.362,53.49v67.641Z" transform="translate(890.807 94.308)" fill="#fff" opacity="0.6"/>
          <rect id="Rectangle_9742" data-name="Rectangle 9742" width="18.596" height="982.476" transform="translate(1133.148 29.676)" fill="#fff"/>
          <rect id="Rectangle_9743" data-name="Rectangle 9743" width="25.642" height="868.387" transform="translate(849.874 1019.225) rotate(-90)" fill="#fff"/>
          <rect id="Rectangle_9744" data-name="Rectangle 9744" width="18.596" height="982.476" transform="translate(1416.393 29.676)" fill="#fff"/>
          <rect id="Rectangle_9745" data-name="Rectangle 9745" width="7.82" height="831.003" transform="translate(1699.556 987.173) rotate(90)" fill="#fff"/>
          <rect id="Rectangle_9746" data-name="Rectangle 9746" width="22.16" height="868.387" transform="translate(849.875 46.835) rotate(-90)" fill="#fff"/>
          <rect id="Rectangle_9747" data-name="Rectangle 9747" width="7.82" height="831.362" transform="translate(1699.749 46.834) rotate(90)" fill="#fff"/>
          <rect id="Rectangle_9748" data-name="Rectangle 9748" width="11.08" height="1748.794" transform="translate(0 210.521) rotate(-90)" fill="#fff"/>
          <rect id="Rectangle_9749" data-name="Rectangle 9749" width="11.08" height="1748.794" transform="translate(0 506.145) rotate(-90)" fill="#fff"/>
          <rect id="Rectangle_9750" data-name="Rectangle 9750" width="11.08" height="1748.794" transform="translate(0 801.769) rotate(-90)" fill="#fff"/>
        </g>
        <g id="Group_19122" data-name="Group 19122" transform="translate(-30 10)">
          <path id="Path_35512" data-name="Path 35512" d="M664.129,336.689H1.5a1.237,1.237,0,1,1,0-2.454h662.63a1.237,1.237,0,0,1,0,2.454Z" transform="translate(474.128 490.982)" fill="#bfbdb1"/>
          <path id="Path_35513" data-name="Path 35513" d="M57.172,288.066a14.953,14.953,0,0,0,8.5-2.8,72.936,72.936,0,0,1-1.256,15.637c-3.348,5.4-12.632,15.314-12,15.219a30.176,30.176,0,0,0,7.457-1.731,55.169,55.169,0,0,1-5.707,9.284c-4.509,6.011-10.92,10.805-13.317,18.149a.494.494,0,0,1-.285.323.533.533,0,0,1-.875.381C27.571,331.117,25.4,313.558,23.614,297.787l-.228-2.226a48.888,48.888,0,0,0,11.11,8.751c.59.323-7.609-12.765-11.585-18.8a35.651,35.651,0,0,1,2.074-11.186,94.873,94.873,0,0,1,12.422-21.249l.609-.8a36.451,36.451,0,0,0,5.212,9.512c.38.495-.856-9.512-1.636-14.173,1.2-1.465,2.378-2.949,3.614-4.356,1.617-1.9,3.6-5.136,6.506-4.718s9.226,11.928,10.044,15.219c.342,1.408.666,2.835.951,4.28.133.628.247,1.255.361,1.9a176.589,176.589,0,0,1,2.207,17.54c-.209.323-.4.628-.628.932C62.289,281.56,56.582,288.066,57.172,288.066Z" transform="translate(494.703 404.613)" fill="#99a371"/>
          <path id="Path_35514" data-name="Path 35514" d="M40.632,275.185c5.973-.894,10.558-4.68,14.934-8.58.666-.571-.152-1.674-.818-1.084-4.109,3.633-8.389,7.286-13.963,8.237q1.9-13.316,4.49-26.633c.171-.875-1.179-1.084-1.351-.209-2.321,11.7-4.185,23.456-5.707,35.289A59.2,59.2,0,0,1,30.3,266.3c-.266-.837-1.541-.323-1.275.514a59.982,59.982,0,0,0,8.542,16.912.571.571,0,0,0,.495.266c-.323,2.587-.609,5.174-.875,7.762a37.02,37.02,0,0,1-5.878-10.273c-.3-.837-1.579-.323-1.275.495a38.048,38.048,0,0,0,6.677,11.414A.514.514,0,0,0,37,293.6q-1.313,12.784-2,25.625a.628.628,0,0,0,0,.285c-.19,3.139-.285,6.278-.323,9.4,0,2.036-.133,4.09-.171,6.126a.571.571,0,0,0,.19.457,299.532,299.532,0,0,0,7.267,57.242l1.332-.3a283.719,283.719,0,0,1-7.305-64.947c0-2.3.19-4.6.285-6.925a.609.609,0,0,0,.609,0,22.828,22.828,0,0,0,6.278-6.392c.476-.742-.59-1.6-1.084-.856a21.876,21.876,0,0,1-5.707,5.954q1.141-22.105,4.223-44.059Z" transform="translate(500.19 411.691)" fill="#738249"/>
          <path id="Path_35515" data-name="Path 35515" d="M16.71,301.023a14.915,14.915,0,0,1-8.066.7,52.085,52.085,0,0,0,5.707,11.414c4.413,2.949,15.219,7.362,14.629,7.514a29.294,29.294,0,0,1-6.829,1.141,42.877,42.877,0,0,0,7.514,5.117c5.574,3.025,12.422,4.528,16.627,9.245a.437.437,0,0,0,.342.152.495.495,0,0,0,.856,0c6.963-12.632,3.8-26.481.647-38.9-.133-.59-.285-1.179-.438-1.769a44.48,44.48,0,0,1-6.963,10.235c-.419.438,2.739-12.08,4.394-17.92a26.044,26.044,0,0,0-5.022-7.743,74.363,74.363,0,0,0-16.741-11.871c-.228-.152-.495-.266-.742-.4a28,28,0,0,1-1.693,8.808,81.955,81.955,0,0,1-2.72-11.186c-1.446-.7-2.873-1.427-4.337-2.093-1.9-.894-4.566-2.663-6.906-1.389s-4.375,12-4.109,14.743c.114,1.179.266,2.359.438,3.538a10.125,10.125,0,0,0,.228,1.522A126.285,126.285,0,0,0,6.8,295.791l.8.476C10.452,297.827,17.186,300.833,16.71,301.023Z" transform="translate(476.59 425.48)" fill="#99a371"/>
          <path id="Path_35516" data-name="Path 35516" d="M54.585,376.508a214.626,214.626,0,0,0-10.444-45.39.4.4,0,0,0,0-.419c-.628-1.522-1.275-3.044-1.9-4.547-.932-2.34-1.9-4.661-3.006-6.944a.3.3,0,0,0-.152-.19c-2.854-6.3-5.916-12.5-9.131-18.605a.57.57,0,0,0,.171-.247A30.134,30.134,0,0,0,32.5,289.475c0-.723-1.218-.685-1.237,0a29.03,29.03,0,0,1-2,9.664c-.989-1.9-1.9-3.71-3.006-5.555a.552.552,0,0,0,.342-.361,46.741,46.741,0,0,0,2.34-15.409c0-.723-1.256-.685-1.237,0a45.048,45.048,0,0,1-2.112,14.553q-7.02-12.613-15.067-24.731c-.4-.59-1.484,0-1.084.609,4.052,6.05,7.876,12.232,11.547,18.491-5.022,1.122-9.721-.209-14.268-1.6a.59.59,0,0,0-.38,1.1c4.87,1.484,9.835,2.815,15.219,1.522h0q9,15.466,16.4,31.712a18.356,18.356,0,0,1-6.6-2.587c-.628-.4-1.294.609-.666.989a19.422,19.422,0,0,0,7.172,2.758.666.666,0,0,0,.552-.133c.761,1.693,1.522,3.386,2.245,5.1A202.869,202.869,0,0,1,53.349,376.66Z" transform="translate(479.464 430.675)" fill="#738249"/>
          <path id="Path_35517" data-name="Path 35517" d="M13.729,275.606A31.466,31.466,0,0,1,3,271.44a10.122,10.122,0,0,0,.228,1.522,32.97,32.97,0,0,0,10.044,3.8C14.11,276.843,14.414,275.739,13.729,275.606Z" transform="translate(476.737 434.327)" fill="#738249"/>
          <path id="Path_35518" data-name="Path 35518" d="M99.553,283.239c0,4.927-11.414,7.324-15.1,8.656-8.009,2.968-15.828,5.973-21.763,12.422a261.96,261.96,0,0,0-19.024,24.731,1.427,1.427,0,0,1-1.427.609,21.4,21.4,0,0,1-1.655-3.6c-2.074-5.136-5.27-14.5-4.471-19.842a32.341,32.341,0,0,1,3.71-10.577,9.511,9.511,0,0,0,2.283,4.509,96.275,96.275,0,0,0,1.313-9.93c.533-.647,1.065-1.275,1.617-1.9a35.594,35.594,0,0,1,4.223-3.8l.97-.742a40.762,40.762,0,0,1,3.8-2.549L55.1,280.6c1.237-.685,2.53-1.313,3.8-1.9a25.662,25.662,0,0,0,2.112,7.039,44.708,44.708,0,0,0,.837-8.218c1.237-.476,2.511-.856,3.8-1.217a19.383,19.383,0,0,0,1.579,4.528,23.681,23.681,0,0,0,2.473-5.517,49.464,49.464,0,0,1,12.213-.951h1.046a23.045,23.045,0,0,1,3.234.361c3.938.609,13.183,3.1,13.317,8.409Z" transform="translate(506.5 436.909)" fill="#99a371"/>
          <path id="Path_35519" data-name="Path 35519" d="M54,291.966c-9.683,9.512-12.689,27.128-13.317,32.112a22.429,22.429,0,0,0-2,6.487,142.125,142.125,0,0,0-.552,24.141c0,2.625.171,5.232.3,7.838l1.351-.247c0-1.655-.152-3.291-.209-4.946q-.371-10.672,0-21.345a31.351,31.351,0,0,1,1.9-10.767,1.71,1.71,0,0,0,.438-.4A261.944,261.944,0,0,1,60.94,300.108c5.935-6.449,13.754-9.512,21.763-12.422,3.634-1.332,15.029-3.8,15.1-8.656C82.665,280.875,65.144,280.97,54,291.966Z" transform="translate(508.189 441.176)" fill="#738249"/>
          <path id="Path_35520" data-name="Path 35520" d="M46.868,288.595a31.978,31.978,0,0,1-.209-11.015l-1.065.628a32,32,0,0,0,.3,10.6C46.012,289.451,46.982,289.222,46.868,288.595Z" transform="translate(514.898 439.867)" fill="#738249"/>
          <path id="Path_35521" data-name="Path 35521" d="M45.3,289.047a41.718,41.718,0,0,1-1.408-9.8l-.97.742a41.68,41.68,0,0,0,1.408,9.283C44.5,289.9,45.469,289.675,45.3,289.047Z" transform="translate(512.759 441.375)" fill="#738249"/>
          <path id="Path_35522" data-name="Path 35522" d="M86.429,325.587A35.479,35.479,0,0,1,71.8,354.446H29.948A35.479,35.479,0,0,1,15.3,325.587a34.623,34.623,0,0,1,.856-7.743,33.52,33.52,0,0,1,1.9-6.145H83.614a33.518,33.518,0,0,1,1.9,6.145A34.622,34.622,0,0,1,86.429,325.587Z" transform="translate(487.835 470.656)" fill="#d86e54"/>
          <path id="Path_35523" data-name="Path 35523" d="M79.481,325.569a35.479,35.479,0,0,1-14.629,28.859H23c54.5,2.7,53.609-42.708,53.609-42.708a33.522,33.522,0,0,1,1.9,6.145A34.622,34.622,0,0,1,79.481,325.569Z" transform="translate(494.784 470.674)" fill="#b85e43"/>
          <path id="Path_35537" data-name="Path 35537" d="M90.616,342.711c-2.682-4.433-5.193-9.417-5.193-9.417s1.56-16.17.438-17.673c-1.37-1.9-14.077-.38-14.23.59-.457,2.968-3.063,17.121-1.655,18.548a5.213,5.213,0,0,0,2.016.875l11.3,9.911,6.7,3.8S93.223,347.144,90.616,342.711Z" transform="translate(536.8 473.374)" fill="#fcb295"/>
          <path id="Path_35538" data-name="Path 35538" d="M127.16,341.925c-3.006-4.185-6.677-8.237-6.677-8.237.247-2.473,2.949-16.379,1.617-18.168s-16.189-.323-16.341.647c-.457,2.968-1.16,14.287.266,15.771.228.247-1.275.628-1.275.628L120.1,345.349l6.925,3.177S130.166,346.205,127.16,341.925Z" transform="translate(568.552 473.343)" fill="#fcb295"/>
          <path id="Path_35539" data-name="Path 35539" d="M131.873,208.873c4.889,5.136,9.512,10.882,10.958,12.651,4.318,4.927,13.317-3.8,17.121-13.868,2.264-6.011-1.122-12.765-1.712-18.719-.78-7.99-.8-15.219-2.873-23.057-1.084-4.09-6.373-14.857-10.653-7.8a1.5,1.5,0,0,0-1.141.97C139.52,168.505,120.573,196.965,131.873,208.873Z" transform="translate(589.825 329.923)" fill="#d6a875"/>
          <path id="Path_35540" data-name="Path 35540" d="M241.324,176.16c.209-2.15-1.008-2.873-2.835-3.329a5.31,5.31,0,0,0-1.008-.171,2.7,2.7,0,0,0,0-.38,1.617,1.617,0,0,0-.837-1.37c-2.7-1.427-6.049-1.046-8.941-.647-8.523,1.218-13.107,1.275-15.58-.571a7.1,7.1,0,0,1,.685-1.2c.989-.361,1.9,0,3.291-.457a3.519,3.519,0,0,0,2.169-1.655,2.8,2.8,0,0,0,2.34-1.2c.761-1.2,0-2.055-.685-2.72a8.675,8.675,0,0,0-6.925-.609l-.476.247a9.168,9.168,0,0,0-2.4,0,5.4,5.4,0,0,0-3.443,2.492c-1.693,2.416-5.536,8.37-5.707,14.211-12.822,8.237-36.7,22.543-42.4,18.091-4.642-3.672-8.542-15.885-13.7-29.468-1.046-2.7-2.131-5.479-3.291-8.256-5.308-12.8-11.186-19.651-21.1-26.633-1.465-1.027-14.667,18-17.92,24.388-.913,1.9-.3,6.772,1.788,12.879,16.684,48.7,49.614,57.984,64.357,53.494,12.042-3.367,35.422-26.176,43.849-35l1.541-1.579c6.772,2.226,14.1,3.367,15.409.533,5.27.476,10.577-.228,10.653-4.718a2.835,2.835,0,0,0-1.522-2.625A5.707,5.707,0,0,0,241.324,176.16Z" transform="translate(566.209 308.952)" fill="#fcb295"/>
          <path id="Path_35541" data-name="Path 35541" d="M105.128,165.475c5.593-4.832,15.809-9.188,22.124-13.317a21.609,21.609,0,0,0,.19-5.1,22.522,22.522,0,0,0,4.528.114,22.146,22.146,0,0,1,0,4.356c.342.571-1.16,4.6-1.636,5.707-2.587,5.041-6.582,9.074-8.846,13.659a14.667,14.667,0,0,0,0,13.2c.723,1.617,11.947,11.224,17.121,14.039,9.245,5.041,16.4,6.354,26.519,2.663a93.025,93.025,0,0,0,21.611-11.414c6.791-4.737,12.575-10.729,19.765-14.9a1.9,1.9,0,0,1,2.3.228,2.225,2.225,0,0,1,1.1.437c-8.427,8.808-31.807,31.617-43.849,34.984-19.024,5.707-35.574-7.609-46.151-19.67a4.146,4.146,0,0,1-.4-.418C115.1,184.993,104.177,166.293,105.128,165.475Z" transform="translate(568.84 322.091)" fill="#be7264"/>
          <path id="Path_35542" data-name="Path 35542" d="M107.393,192.7c6.164,21.421,29.125,34.243,50.165,37.153,6.544.894,15.219,1.6,14.991-7.305-.114-5.174-3.995-11.034-5.06-16.132a32.911,32.911,0,0,1,4.109-25.568c.685-1.046,3.8-7.609-1.75-8.808-5.27-1.122-9.284.438-11.243,4.737-4.756-9.512-8.066-21.059-15.542-28.421-5.174-5.079-15.466-11.034-23.038-10.063-8.96,1.16-11,10.615-12.479,18.053C105.186,168.271,103.988,180.846,107.393,192.7Z" transform="translate(569.029 314.083)" fill="#ffc88b"/>
          <path id="Path_35543" data-name="Path 35543" d="M139.838,163.183c1.1-.3,5.536,1.9,3.8,3.234-1.218.552-2.34,1.008-2.835,1.217-2.4,3.995-1.084,9.911-.228,14.344.285,1.5.856,7.4,3.462,11.129.457-.209,1.218-.761,2.207-1.256.476,2.435-1.617,9.017-2.3,8.846-3.063-.723-5.479-11.547-6.049-13.488C135.862,180.552,134.131,164.762,139.838,163.183Z" transform="translate(596.718 336.615)" fill="#d6a875"/>
          <path id="Path_35544" data-name="Path 35544" d="M135.565,161.655a42.689,42.689,0,0,0-3.8,17.9s-2.549-17.882.7-24.617Z" transform="translate(592.068 329.202)" fill="#d6a875"/>
          <path id="Path_35545" data-name="Path 35545" d="M142.656,149.136s1.75,10.9-2.568,19.556-8.846,20.812-4.794,26.538,7.21,14.953,4.794,19.747-9.36,5.707-9.36,5.707-15.466-7.267-18.32-14.173-4.509-47.293-4.509-47.293L124.089,142.1l5.954-2.4S139.765,142.611,142.656,149.136Z" transform="translate(571.394 315.449)" fill="#d6a875"/>
          <path id="Path_35546" data-name="Path 35546" d="M76.64,188.935c32.169,12.917,64.033,7.115,90.819,1.275-.266-1.75-3.063-8.237-5.916-15.409-5.707,3.5-30.438,16.36-79.462,1.56a90.436,90.436,0,0,0-5.441,12.575Z" transform="translate(543.186 347.123)" fill="#383057"/>
          <path id="Path_35547" data-name="Path 35547" d="M117.441,303.744c1.693,22.828.152,68.6-1.541,91.313-.1,1.522-.1,54.35-.1,54.35l19.727,2.055c10.748-34.737,31.256-112.6,31.256-147.167s-2.739-92.169-14.477-119.506c-11.148-25.967-55.168,9.911-60.3,16.284-2.378,2.949,2.131,29.239,8.37,46.684C107.643,267.98,116.547,291.531,117.441,303.744Z" transform="translate(556.47 347.729)" fill="#383057"/>
          <path id="Path_35548" data-name="Path 35548" d="M113.757,431.746l12.175,1.275c-1.1-8.313,0-26.8.419-35.251.818-14.705,4.166-29.087,7.324-43.336,4.965-22.638,9.7-46.627,3.8-69.626-3.063-11.814-9.759-20.051-15.219-30.438a44.1,44.1,0,0,1-4.889-23.076c.285-4.414,2.816-9.968,1.446-14.382-1.712-5.555-17.121-24.369-20.926-21.535-4.737,3.462-2.34,16.817-4.261,23.038,7.248,20.2,20.926,55.454,21.839,67.667,1.693,22.828-1.788,68.485-2.93,91.2S113.757,431.746,113.757,431.746Z" transform="translate(558.517 365.43)" fill="#292340"/>
          <path id="Path_35549" data-name="Path 35549" d="M70.3,448.818l17.521,2.055c9.131-32.759,33.577-88.707,37.172-123.064,5.574-53.266,12.308-110.47,12.613-124.51v-3.462c-12.061-15.9-32.511-22.372-41.6-23.532-3.6-.476-6.221.285-7.362,2.321a152.4,152.4,0,0,0-8.827,18.7c-14.686,37.781-2.321,60.59-2.606,109.709v8.618c-.457,20.317,4.585,45.314-.8,66.583C65.808,423.783,70.3,448.818,70.3,448.818Z" transform="translate(536.611 348.357)" fill="#383057"/>
          <path id="Path_35550" data-name="Path 35550" d="M70.52,450.358l3.995.419c0-11.129.133-26.88,1.256-37.952a224.633,224.633,0,0,1,11.814-50.28c8.941-26.5,14.953-52.657,13.317-81.155-.932-15.5-5.479-29.867-7.457-45.086-1.275-9.816.609-19.252,2.055-28.783a100.829,100.829,0,0,0,1.313-16.474c-.133-4.585,6.7-22.828-7.857-14.382C63.2,230.654,77.787,259.456,77.5,308.651v8.618c-.438,20.317-1.122,43.412-4.166,65.175C65.916,434.663,70.52,450.358,70.52,450.358Z" transform="translate(536.39 346.817)" fill="#292340"/>
          <path id="Path_35551" data-name="Path 35551" d="M56.464,183.98c1.9,3.976,7.21,6.316,10.805,8.466,2.911,1.769,6.107,3.177,8.941,5.041,3.957,2.606,6.221,6.2,9.036,9.835,2.587,3.329,5.5,6.753,9.607,7.876,1.313.38,2.055-1.674,2.169-2.72a1.9,1.9,0,0,0,.361-1.56c-1.179-5.878-4.775-10.691-7.933-15.694s-6.3-10.615-10.92-14.648c-3.8-3.329-19.651-17.673-24.426-13.126C51.917,169.5,55.246,181.45,56.464,183.98Z" transform="translate(522.195 339.692)" fill="#d6a875"/>
          <path id="Path_35552" data-name="Path 35552" d="M98.111,174.883c-2.949,5.308-8.808,14.077-13.963,17.958a32.686,32.686,0,0,0-.3-3.8c-.3-2.492-.761-5.041-1.294-7.609a40.444,40.444,0,0,1,8.465-10.672c11.053-10.463,10.1-36.145,10.1-36.145C103.609,147.451,102.43,167.026,98.111,174.883Z" transform="translate(548.519 310.857)" fill="#211551"/>
          <path id="Path_35553" data-name="Path 35553" d="M79.5,219.383c48.948,14.8,73.85,1.9,79.462-1.56-1.179-2.835-2.321-5.707-3.31-8.542a54.427,54.427,0,0,1-3.367-11.985c0-.495,1.9-10.387,2.169-10.882,3.8-7.248,10.805-13.183,11.262-24.217.761-19.024-39.8-34.946-39.8-34.946-60.876-3.614-39.208,69.7-39.17,70.235s.19,4.432.19,4.432a25.3,25.3,0,0,1-2.549,7.895C82.962,212.82,81.212,216.187,79.5,219.383Z" transform="translate(545.767 304.1)" fill="#ffc88b"/>
          <path id="Path_35554" data-name="Path 35554" d="M114.583,125.9v10.767s2.892,5.308,0,5.878c-6.354,1.275-15.523-8.637-15.523-8.637V119.47Z" transform="translate(563.417 297.194)" fill="#fcb295"/>
          <path id="Path_35555" data-name="Path 35555" d="M99.06,128.161V120s7.895,7.609,15.523,7.971C114.583,127.914,105.395,132.384,99.06,128.161Z" transform="translate(563.417 297.673)" fill="#be7264"/>
          <path id="Path_35556" data-name="Path 35556" d="M121.559,106.35a85.8,85.8,0,0,1,7.172,22.41c1.008,7.609-13.031,17.806-24.483,7s-8.275-27.337-8.275-27.337Z" transform="translate(560.266 285.356)" fill="#fcb295"/>
          <path id="Path_35557" data-name="Path 35557" d="M89.367,134.667c-1.769,4.375,5.079,10.254,10.824,4.566a3.8,3.8,0,0,0,4.547.647c2.055.761,4.128.247,5.574-2.644,2.169-4.356,1.9-8.408,1.465-13.05a21.706,21.706,0,0,1,0-4.471,11.3,11.3,0,0,1,8.751-5.251c.875.856,1.617,2.169,2.416,3.025a12.327,12.327,0,0,0,4.337,3.025c2.549,1.065,6.088,1.294,7.838-1.275a4.547,4.547,0,0,0,.647-1.465,3.519,3.519,0,0,0,1.6-3.31,4.471,4.471,0,0,0-4.109-4.623c1.294-3.8-3.633-8.37-7.058-6.639a6.734,6.734,0,0,0-10.159-1.75,6.487,6.487,0,0,0-11.642,4.128,6.354,6.354,0,0,0-6.982,6.829c-3.976-.989-8.2,0-8.789,5.308a5.365,5.365,0,0,0,3.044,5.878,10.159,10.159,0,0,0-3.253,8.313,5.954,5.954,0,0,0,.951,2.758Z" transform="translate(553.782 278.631)" fill="#383057"/>
          <path id="Path_35558" data-name="Path 35558" d="M103.96,113.09s-4.6-2.131-5.517,1.56,2.435,5.878,4.223,5.212S105.026,114.65,103.96,113.09Z" transform="translate(562.721 290.886)" fill="#fcb295"/>
          <path id="Path_35559" data-name="Path 35559" d="M98.568,131.673c19.138,9.512,1.427,42.993,0,46.323-1.332,2.968-3.957,5.1-5.821,7.781s-4.737,10.064-8.713,11.414v-1.56A12.515,12.515,0,0,0,83.9,193.5a16.557,16.557,0,0,0-.171-1.655c-.228-1.9-.571-3.919-.989-5.935,1.16-2.036,2.454-3.938,3.481-5.536,1.9-2.93,5.384-10.672,9.8-10.025.114-1.122.228-2.264.419-3.443C96.7,164.374,96.361,130.569,98.568,131.673Z" transform="translate(548.691 308.182)" fill="#d6a875"/>
          <path id="Path_35560" data-name="Path 35560" d="M139.885,130.894c-16.227-3.8-34.642,17.369-39.189,29.411-10.1,26.766-25.7,76.932-59.6,107.655-4.109.228-7.115,3.405-9.645,6.43-1.141,1.332.247,2.854,1.636,2.758A16.742,16.742,0,0,0,31.64,280c-.761,1.9,1.731,3.082,2.93,1.9-.209.552-.419,1.122-.609,1.674-.742,2.169,2.587,3.462,3.329,1.275.19-.552.4-1.122.609-1.674h0a1.9,1.9,0,0,0,3.576.362,10.006,10.006,0,0,1,4.718-7.457l1.237,1.75a3.8,3.8,0,0,1-1.332,1.9c-1.9,1.351.266,4.413,2.169,3.063a7.8,7.8,0,0,0,3.082-7.99,2.949,2.949,0,0,0,0-.4c22.562-9.322,39.778-28.1,49.29-40.2C114.374,216.729,146.181,173.7,149,155.8,150.157,147.654,150.024,133.253,139.885,130.894Z" transform="translate(502.028 307.097)" fill="#fcb295"/>
          <path id="Path_35561" data-name="Path 35561" d="M57.168,210.915c6.963,2.968,13.507,4.356,19.5,9.7,5.27,4.7,7.02,10.672,10.235,16.684,1.75,3.253,5.878,14.268,11.414,10.729,2.682-1.731,2.568-7.058,2.816-9.607.685-6.925.361-13.735.514-20.66.19-8.389,6.259-15.523,10.539-22.41l11.566-18.567c10.006-16.075,17.825-26.31,2.873-44.325a1.541,1.541,0,0,0-1.332-1.769c-25.891-4.87-35.821,8.77-49.575,26.956a133.165,133.165,0,0,0-18.567,35.517C55.114,198.759,49.635,207.7,57.168,210.915Z" transform="translate(522.138 306.423)" fill="#ffc88b"/>
          <path id="Path_35562" data-name="Path 35562" d="M81.613,189.936s.133-12.708,6.316-22.3c0,0-11.414,2.72-12.422,8.218S81.613,189.936,81.613,189.936Z" transform="translate(542.075 340.662)" fill="#d6a875"/>
          <path id="Path_35563" data-name="Path 35563" d="M79.06,180.292a6.844,6.844,0,0,0,.837.228c48.948,14.8,73.85,1.9,79.462-1.56l1.218-.875a11.814,11.814,0,0,0-3.919-7.895l-.609.228c-31.256,13.031-69.7,1.027-71.262.533h0C81.875,172.435,79.06,180.292,79.06,180.292Z" transform="translate(545.37 342.963)" fill="#383057"/>
          <path id="Path_35564" data-name="Path 35564" d="M106.4,321.24s-2.511,2.53-2.606,9.7c0,0,7.724-2.473,13.317,13.316,1.275,3.653,11.68,2.017,15.485,2.34,0,0,4.09-1.275,1.579-6.221-1.008-1.9-4.813-2.454-6.145-4.318C125.572,341.462,118.5,340.853,106.4,321.24Z" transform="translate(567.685 479.265)" fill="#3a4175"/>
          <path id="Path_35565" data-name="Path 35565" d="M197.04,348.909l2.587,14.667,3.12.171v-14.5l-3.995-2.892Z" transform="translate(474.435 461.298)" fill="#3a4175"/>
          <path id="Path_35566" data-name="Path 35566" d="M71.458,320.72s-2.7,2.321-3.348,9.512c0,0,7.914-1.9,12.289,14.4,1.008,3.8,11.509,2.949,15.219,3.6,0,0,4.185-.951,2.036-6.088-.856-2.055-4.6-2.835-5.8-4.794C89.074,342.464,82.054,341.266,71.458,320.72Z" transform="translate(535.489 478.796)" fill="#3a4175"/>
          <path id="Path_35567" data-name="Path 35567" d="M161.36,348.187l1.484,14.838,3.1.419,1.1-14.458-3.767-3.2Z" transform="translate(442.239 460.784)" fill="#3a4175"/>
          <path id="Path_35568" data-name="Path 35568" d="M248.893,220.341l-55.663,17.426a10.786,10.786,0,0,1-13.507-7.077L152.8,144.627a10.786,10.786,0,0,1,7.058-13.507l55.663-17.407a10.786,10.786,0,0,1,13.507,7.077l26.918,86.063a10.748,10.748,0,0,1-7.058,13.488Z" transform="translate(611.468 291.556)" fill="#5968bb" fill-rule="evenodd"/>
          <path id="Path_35569" data-name="Path 35569" d="M173.209,111.639a13.316,13.316,0,1,0,10.225.891,13.317,13.317,0,0,0-10.225-.891Zm6.582,20.926a4.3,4.3,0,1,1,0,.1Z" transform="translate(621.958 289.56)" fill="#383057" fill-rule="evenodd"/>
          <path id="Path_35570" data-name="Path 35570" d="M238.754,211.694,192.07,226.285a9.017,9.017,0,0,1-11.319-5.916l-24.1-77.065a9.036,9.036,0,0,1,5.916-11.414L209.249,117.3a9.036,9.036,0,0,1,11.414,5.916l24.1,77.065a9.055,9.055,0,0,1-6.011,11.414Z" transform="translate(614.986 294.839)" fill="#ebebeb" fill-rule="evenodd"/>
          <path id="Path_35571" data-name="Path 35571" d="M0,0H29.639V5.992a4.09,4.09,0,0,1-4.09,4.09H4.109a4.09,4.09,0,0,1-4.09-4.09V0Z" transform="matrix(0.954, -0.299, 0.299, 0.954, 786.52, 423.242)" fill="#383057"/>
          <path id="Path_35572" data-name="Path 35572" d="M215.736,128.251a3.158,3.158,0,0,1-1.655,1.256l-50.108,15.675a3.08,3.08,0,0,1-1.9-5.859l50.089-15.675a3.063,3.063,0,0,1,3.8,1.9A3.1,3.1,0,0,1,215.736,128.251Z" transform="translate(618.353 300.836)" fill="#e0dcd1"/>
          <path id="Path_35573" data-name="Path 35573" d="M217.156,132.768a3.063,3.063,0,0,1-1.655,1.256L165.393,149.7a3.08,3.08,0,0,1-1.9-5.859l50.089-15.675a3.082,3.082,0,0,1,3.5,4.6Z" transform="translate(619.635 304.918)" fill="#e0dcd1"/>
          <path id="Path_35574" data-name="Path 35574" d="M220,141.851a3.158,3.158,0,0,1-1.655,1.256l-50.108,15.675a3.08,3.08,0,0,1-1.9-5.859l50.089-15.675a3.1,3.1,0,0,1,3.8,2.017A3.139,3.139,0,0,1,220,141.851Z" transform="translate(622.197 313.127)" fill="#e0dcd1"/>
          <path id="Path_35575" data-name="Path 35575" d="M221.416,146.366a2.987,2.987,0,0,1-1.655,1.256L169.652,163.3a3.063,3.063,0,0,1-3.8-2,3.1,3.1,0,0,1,2.016-3.8l50.089-15.656a3.063,3.063,0,0,1,3.5,4.585Z" transform="translate(623.574 317.249)" fill="#e0dcd1"/>
          <path id="Path_35576" data-name="Path 35576" d="M222.827,150.951a3.025,3.025,0,0,1-1.655,1.256l-50.089,15.676a3.08,3.08,0,1,1-1.9-5.859l50.108-15.675a3.063,3.063,0,0,1,3.481,4.6Z" transform="translate(624.769 321.32)" fill="#e0dcd1"/>
          <path id="Path_35577" data-name="Path 35577" d="M227.106,164.578a3.158,3.158,0,0,1-1.655,1.256l-50.108,15.675a3.08,3.08,0,0,1-1.9-5.859l50.108-15.675a3.082,3.082,0,0,1,3.5,4.6Z" transform="translate(628.613 333.623)" fill="#e0dcd1"/>
          <path id="Path_35578" data-name="Path 35578" d="M100.684,112.941l.133,3.462-.133,3.8s.209.228,0,1.256,3.405,2.055,3.8,1.75a57.874,57.874,0,0,0,2.055-6.658s1.179-3.8-1.16-4.509-2.245-.818-2.625-.571S100.684,112.941,100.684,112.941Z" transform="translate(564.875 289.875)" fill="#fcb295"/>
          <path id="Path_35579" data-name="Path 35579" d="M94.153,130.794s1.9.285,2.549-.78,7.191.4,7.191.4,9.626,16.417,9.626,16.7v11.414s-.419,5.041-2.587,6.7-3.6,2.644-3.6,2.644l-4.642-1.256s0-1.16-1.084-.533-8.884,3.348-9.835,1.731-5.46-11.281-5.46-11.281-3.367-9.873-1.256-13.811a55.437,55.437,0,0,1,3.063-5.935A83.292,83.292,0,0,1,94.153,130.794Z" transform="translate(550.156 306.359)" fill="#ffc88b"/>
          <path id="Path_35580" data-name="Path 35580" d="M168.474,146.469a9.036,9.036,0,0,0-7.819,1.6c-2.131,1.9-4.394,7.21-5.1,9.835-1.237.894.495.7,2.511.894,2.416.247,5.1-.495,5.5-3.253.19-1.217-.228-2.3.628-3.367a7.133,7.133,0,0,1,4.28-1.9,2,2,0,0,0,0-3.8Z" transform="translate(614.023 321.293)" fill="#fcb295"/>
          <path id="Path_35581" data-name="Path 35581" d="M385.288,229.932c-22.98-27.679-48.491-13.317-55-5.517-59.182,71.567-147.947,85.93-156.716,130.578-4.756,24.16,15.656,84.674,138.092,85.606,127.763.894,157.591-73.013,128.409-120.267S408.268,257.65,385.288,229.932Z" transform="translate(630.096 382.2)" fill="#ffc88b"/>
          <path id="Path_35582" data-name="Path 35582" d="M314.285,441.425h-2.34c-75.029-.476-109.329-23.3-124.871-42.328-13.317-16.341-15.885-33.406-13.811-43.907,4.509-23.019,29.639-37.857,61.465-56.633,29.582-17.464,66.411-39.189,95.384-74.192a35.193,35.193,0,0,1,25.3-11h0c11.224,0,21.535,5.555,30.628,16.532h0c13.64,16.436,20.165,28.535,29.2,45.486,6.126,11.414,13.735,25.644,25.644,44.9a66.582,66.582,0,0,1,1.75,68.485c-8.808,15.657-24.1,28.669-44.268,37.648C375.826,436.346,347.538,441.425,314.285,441.425Zm41.148-226.857h0a33.824,33.824,0,0,0-24.35,10.52c-29.106,35.213-66.031,57.071-95.708,74.535-31.541,18.605-56.462,33.31-60.876,55.777-2.016,10.235.495,26.88,13.564,42.879,15.371,18.833,49.461,41.4,123.92,41.852,34.09.266,63.006-4.813,85.93-15.01,19.9-8.865,35-21.706,43.754-37.134a65.289,65.289,0,0,0-1.731-67.172c-11.928-19.29-19.537-33.52-25.663-44.953-9.017-16.8-15.523-28.935-29.068-45.3C376.264,219.952,366.276,214.568,355.433,214.568Z" transform="translate(629.799 381.927)" fill="#d6a875"/>
          <path id="Path_35583" data-name="Path 35583" d="M362.488,264.1c-5.574-43.222-33.577-37.724-73.678-7.7s-52.125,44.725-78.472,45.885S183.7,318.544,188.5,322.386c26.177,21.1,97.382,24.54,143.685,17.312,23.97-3.8,46.893-30.628,65.1-28.745C397.282,310.953,367.015,299.083,362.488,264.1Z" transform="translate(641.977 399.436)" fill="#d6a875"/>
          <path id="Path_35584" data-name="Path 35584" d="M275.162,435.6v-1.218c-20.412,0-34.623-13.735-41.11-26.633-6.772-13.45-7.724-31.77,5.5-42.366,9.949-7.971,22.828-9.284,35.118-10.558,18.909-1.9,38.447-3.957,48.986-28.973,17.216-40.863-10.121-108.435-10.387-109.062l-1.427.38c.285.685,27.451,67.819,10.406,108.3-10.235,24.274-28.535,26.157-47.768,28.136-12.613,1.294-25.663,2.644-35.974,10.9-12.061,9.664-14.344,26.823-5.821,43.754C239.34,421.484,254.008,435.6,275.162,435.6Z" transform="translate(679.385 385.013)" fill="#d6a875"/>
          <path id="Path_35585" data-name="Path 35585" d="M212.418,418.163l.495-1.141c-19.747-5.84-28.307-27.128-27.908-44.439.342-14.934,7.191-32.588,25.4-37.343a117.34,117.34,0,0,1,31.18-3.577c16.018-.19,29.867-.361,56.215-19.48,40.5-29.392,40.863-94,40.863-94.643h-1.5c0,.647-.361,64.68-40.349,93.729-25.948,18.833-39.531,19.024-55.168,19.176a120.5,120.5,0,0,0-31.617,3.634c-19.024,4.965-26.081,23.133-26.443,38.485C183.1,390.332,192.006,412.152,212.418,418.163Z" transform="translate(639.667 385.689)" fill="#d6a875"/>
          <path id="Path_35586" data-name="Path 35586" d="M262,408.973a159.358,159.358,0,0,0,31.845-6.221,125.977,125.977,0,0,0,28.84-12.689,77.559,77.559,0,0,0,22.01-19.785,62.987,62.987,0,0,0,11.015-25.111A67.162,67.162,0,0,0,357,331.852c0-2.226-.1-4.452-.19-6.7a55.694,55.694,0,0,0-.742-6.658,121.745,121.745,0,0,0-6.944-26.1,201.233,201.233,0,0,0-11.6-24.959c-4.47-8.1-9.512-16.037-14.686-23.818,5.041,7.876,9.778,15.885,14.02,24.065a199.745,199.745,0,0,1,11.167,24.978c1.579,4.242,2.854,8.561,4.052,12.879a113.869,113.869,0,0,1,2.644,13.088c.342,2.188.495,4.394.7,6.6a48.087,48.087,0,0,1,.152,6.62,68.078,68.078,0,0,1-1.351,13.164,61.581,61.581,0,0,1-10.767,24.731,78.452,78.452,0,0,1-21.554,19.613,124.6,124.6,0,0,1-28.4,12.879A157.574,157.574,0,0,1,262,408.973Z" transform="translate(710.448 409.224)" fill="#d6a875"/>
          <path id="Path_35587" data-name="Path 35587" d="M215.29,284.844c-20.089-11.814-17.749-13.887-21.5-23.551-.856-2.226,6.468-5.574,6.468-5.574,15.219,12.936,20.089,11.852,24.5,7.229,1.9-2.036,14.4-48.206,31.636-57.071,5.935-3.044,5.06-.266,7.21,6.049,4.375,12.784-1.084,40.977-11.167,58.422C240.553,290.932,234.2,296.011,215.29,284.844Z" transform="translate(648.838 374.049)" fill="#fcb295"/>
          <path id="Path_35588" data-name="Path 35588" d="M351.87,255.557c-4.28.647-8.713,1.16-13.317,1.446a117.947,117.947,0,0,1-18.244-.266,1.351,1.351,0,0,0-1.351.989c-12.575,1.046-25.111,2.435-37.61,3.329-19.575,1.389-38.751,2.682-56.6-5.46-14.344-6.525-15.656-10.254-32.568-6.05-2.131.552-9.835,15.923-7.724,15.371,8.694-2.169,7-7.324,15.618-6.525-.951,6.62,4.68,11.414,9.3,15.714a294.239,294.239,0,0,0,25.606,19.88c9.379,6.906,18.833,13.64,28.383,20.3,6.887,4.794,13.317,11.167,22.22,10.729,19.651-.989,38.314-11.738,54.56-21.915,7.99-5,15.656-10.425,23.152-16.094C361.172,275.607,353.354,258.7,351.87,255.557Z" transform="translate(640.153 412.962)" fill="#5968bb"/>
          <path id="Path_35589" data-name="Path 35589" d="M254.63,255.862a51.46,51.46,0,0,1-20.184-.628,36.82,36.82,0,0,1-3.8-1.122A47.085,47.085,0,0,1,214.3,243.935c.7-3.5,6.107-26.8,18.206-37.4a58.972,58.972,0,0,1,11.319-7.914c4.356-2.245,8.979-3.481,12.4-1.56a7.112,7.112,0,0,1,1.579,1.179C268.327,208.665,260.927,236.154,254.63,255.862Z" transform="translate(667.405 366.353)" fill="#d76e4e"/>
          <path id="Path_35590" data-name="Path 35590" d="M310.562,252.043c0,.19.837,1.788.818,1.9-1.084,11.319-16.912,13.6-25.53,13.773-3.614.1-7.286,0-10.92,0-14.211,2.644-29.449,4.147-43.564.59a1.712,1.712,0,0,1-.3-3.272c8.446-3.519,19.024-2.3,28.707-1.446a88.906,88.906,0,0,0,11.224-2.283c7.609-2.112,14.686-5.231,22.334-6.963a32.968,32.968,0,0,0,3.8-1.084C302.934,252.861,311.095,251.606,310.562,252.043Z" transform="translate(681.556 416.742)" fill="#4a5396"/>
          <path id="Path_35591" data-name="Path 35591" d="M237.129,257.251a95.964,95.964,0,0,1-14.249-3.139c16.57-11.68.685-27.793,6.183-35.06,2.34-3.082,3.576-17.9,7-20.431,4.356-2.245,8.979-3.481,12.4-1.56-3.044,2.416-8.713,7.609-11.414,9.645-4.946,6.734-.59,17.121-.495,25.32C236.748,233.662,238.042,256.775,237.129,257.251Z" transform="translate(675.148 366.353)" fill="#b85e43"/>
          <path id="Path_35592" data-name="Path 35592" d="M215.53,313.405c51.04,22.258,107.5-5.707,107.731-5.84-.951-1.9-12.346-21.1-15.466-28.117a38.582,38.582,0,0,1-2.816-11.776,87.623,87.623,0,0,1,0-18.13c.209-2.207.438-3.8.552-4.642a.835.835,0,0,0,0-.266c4.109-20.431,13.031-44.667-10.672-52.125a48.965,48.965,0,0,0-10.387-1.9h0a99.925,99.925,0,0,0-15.029-.1,143.516,143.516,0,0,0-15.485,6.7,96.53,96.53,0,0,0-8.637,4.851C236.76,207.406,234.9,218.173,235.2,225.5c.209,5.1,6.278,15.923,7.933,18.129C239.557,267.577,219.468,306.328,215.53,313.405Z" transform="translate(668.515 361.087)" fill="#d76e4e"/>
          <path id="Path_35593" data-name="Path 35593" d="M241.481,189.177v9.512s-2.568,4.718,0,5.231c5.707,1.141,13.811-7.609,13.811-7.609V183.47Z" transform="translate(690.903 354.946)" fill="#fcb295"/>
          <path id="Path_35594" data-name="Path 35594" d="M254.317,192.362V185s-6.6,8.542-13.317,8.922C240.886,193.979,248.61,196.129,254.317,192.362Z" transform="translate(691.498 356.327)" fill="#be7264"/>
          <path id="Path_35595" data-name="Path 35595" d="M233.78,177.991a119.605,119.605,0,0,0,5.174,23.019c2.454,6.43,17.73,8.37,22.105-4.927S255.9,171.2,255.9,171.2Z" transform="translate(684.983 343.874)" fill="#fcb295"/>
          <path id="Path_35596" data-name="Path 35596" d="M269.735,164.468a10.216,10.216,0,0,0-12.974-1.389,6.506,6.506,0,0,0-3.481,4.946,6.335,6.335,0,0,0,.951,3.443c-7.819-.342-35.251,8.37-19.176,25.891.989-10.006,12.556-13.849,18.814-9.835a19.16,19.16,0,0,1,1.9,3.5c1.693,3.8,3.139,7.1,6.7,9.512,4.623,3.234,9.169,1.141,9.512-3.424a37.379,37.379,0,0,0-2.644-13.488,7.8,7.8,0,0,0,7.838-4.318C279.247,174.3,273.14,167.625,269.735,164.468Z" transform="translate(681.654 335.007)" fill="#904b44"/>
          <path id="Path_35597" data-name="Path 35597" d="M243.405,178.682s2.682-3.634,4.965-1.122a3.5,3.5,0,0,1-1.084,5.859C245.612,183.647,243.215,180.356,243.405,178.682Z" transform="translate(693.659 348.814)" fill="#fcb295"/>
          <path id="Path_35598" data-name="Path 35598" d="M236.305,235.668c7.5,5.707,18.148,5.707,26.842,9.093,7.609,2.949,15.542,10.006,23.589,11.776a87.627,87.627,0,0,1,0-18.13,3.306,3.306,0,0,0-.228-.266c.228-1.427.476-2.892.78-4.375a.646.646,0,0,1,0-.266,36.142,36.142,0,0,0-7.514-9.512,58.975,58.975,0,0,1-13.925-21.478,42.651,42.651,0,0,0,5.06,28.535,45.338,45.338,0,0,0,5.916,7.914c0,.133-.114.228-.114.4.247,3.8-18.548-3.995-21.287-4.7a57.756,57.756,0,0,0-18.567-2.15C235.468,232.681,235.3,234.85,236.305,235.668Z" transform="translate(686.681 372.127)" fill="#b85e43"/>
          <path id="Path_35599" data-name="Path 35599" d="M316.349,299.167c-.97-.152-1.9-.342-2.949-.533a4.966,4.966,0,0,0,.742-1.084c.323-.647,2.854-26.861,2.283-27.3-2.587-1.9-8.941,1.16-12.08,1.351a60.138,60.138,0,0,1-9.055.723c-4.509-.4-9.017,1.218-13.316-.209-12.632-4.185-25.492,1.237-37.743-3.976-6.963-2.987-13.678,2.72-19.747-1.9-4.471-3.386-8.542-7.343-13.316-10.292-2.264-1.408-12.27-7.609-12.556-.571-.247,6.088,11.966,11.2,16.189,13.488,13.145,7.153,24.084,17.407,35.422,27.033,7.781,6.582,14.914,15.923,25.872,15.219,13.773-.818,17.35,4.528,30.343,0C308.055,310.676,318.023,299.49,316.349,299.167Z" transform="translate(653.246 416.854)" fill="#3a4175"/>
          <path id="Path_35600" data-name="Path 35600" d="M284.776,289.5c-.609-3.8-2.663-3.8-5.859-3.8-5.878.152-10.044-3.672-16.056-2.568a34.967,34.967,0,0,1-12.346.761c-1.465-.209-3.538-1.122-5.06-.533-3.386,1.313-5.346,6.81-4.984,10.044a.932.932,0,0,0,.8.856.837.837,0,0,0,.742.609c6.525,1.008,11.2,6.944,17.121,9.512a36.907,36.907,0,0,0,7.876,2.4,19.878,19.878,0,0,1,5.555,1.313,17.118,17.118,0,0,0,3.177,2.036C282.931,311.375,285.5,294.007,284.776,289.5Z" transform="translate(690.982 444.69)" fill="#fcb295"/>
          <path id="Path_35601" data-name="Path 35601" d="M249.31,284.467s6.582,19.309,4.718,21.687c0,0,13.6,29.62,20.013,8.694s-10.9-32.34-10.9-32.34a25.91,25.91,0,0,0-13.83,1.959Z" transform="translate(698.997 444.109)" fill="#383057"/>
          <path id="Path_35602" data-name="Path 35602" d="M302.78,314.556c-7.609-8.675-44.192-36.145-52.867-43.64a103.391,103.391,0,0,0-27.451-17.749c-7.819-3.2-18.472-6.43-26.956-4.356-7.609,1.9-9.512,5.821-11.852,12.613a34.129,34.129,0,0,0-1.484,6.849,30.914,30.914,0,0,0,3.576,18.434c4.851,8.656,13.982,13.868,22.105,19.024,9.512,5.992,83,23.894,87.052,21.23a15.218,15.218,0,0,0,3.462-3.938h0C301.011,319.426,302.133,318.532,302.78,314.556Z" transform="translate(638.222 413.316)" fill="#5968bb"/>
          <path id="Path_35603" data-name="Path 35603" d="M293.915,309.778c-7.971-4.756-17.121-6.887-26.2-8.58a230.981,230.981,0,0,1-31.256-7.172c-11.985-3.995-23.951-8.656-34.109-16.3A153.54,153.54,0,0,1,182.17,258.7a30.913,30.913,0,0,0,3.576,18.434c4.851,8.656,13.982,13.868,22.105,19.024,9.512,5.992,83,23.894,87.052,21.23a15.217,15.217,0,0,0,3.462-3.938h0A16.91,16.91,0,0,0,293.915,309.778Z" transform="translate(638.222 422.831)" fill="#4a5396"/>
          <path id="Path_35604" data-name="Path 35604" d="M284.214,335.365c-.856-4.718-5.212-9-4.356-13.906a.571.571,0,0,0-.38-.647.689.689,0,0,0-.59-.7c-2.968-.723-8.751,0-10.939,2.207-.989,1.027-.7,2.682-.894,3.8a16.743,16.743,0,0,1-1.275,3.938,43.9,43.9,0,0,1-2.892,4.965C260.188,339.265,284.595,337.4,284.214,335.365Z" transform="translate(711.062 478)" fill="#fcb295"/>
          <path id="Path_35605" data-name="Path 35605" d="M263.053,334.64h0a7.058,7.058,0,0,1,7-4.585,40.785,40.785,0,0,1,5.707,1.427,38.986,38.986,0,0,1,7.248,1.9c1.122.438,0,1.693-1.179,1.294-5.593-1.9-11.833-.533-17.6,1.179C263.186,336.124,262.349,335.134,263.053,334.64Z" transform="translate(711.164 487.209)" fill="#abcef4"/>
          <path id="Path_35606" data-name="Path 35606" d="M301.566,297.35c-.818-9.112-1.332-19.138-5.935-26.957A26.138,26.138,0,0,0,283.4,259.55a24.729,24.729,0,0,0-5.574-1.617c-4.471-.7-9.055-.989-12.784,1.541a11.854,11.854,0,0,0-3.082,3.025c-4.585,6.392-6.088,16.874-6.563,24.921a114.6,114.6,0,0,0,3.12,31.009c2.34,10.558,10.939,53.456,14.591,63.577.1.285.856.457,2.036.514a31.9,31.9,0,0,0,6.354-.4h0a11.415,11.415,0,0,0,4.147-1.294C289.048,378.5,302.517,307.965,301.566,297.35Z" transform="translate(704.421 421.696)" fill="#5968bb"/>
          <path id="Path_35607" data-name="Path 35607" d="M275.106,381.555c-1.179,0-1.9-.228-2.035-.514-3.653-10.121-12.251-53.019-14.591-63.577a114.6,114.6,0,0,1-3.082-31.008c.476-8.047,1.9-18.529,6.563-24.921a11.849,11.849,0,0,1,3.082-3.025c0,.571-3.063,24.883-1.218,37.686S276.533,374.021,275.106,381.555Z" transform="translate(704.418 422.66)" fill="#4a5396"/>
          <path id="Path_35608" data-name="Path 35608" d="M259.52,175.732a40.73,40.73,0,0,1-14.838-9.816c-1.5-1.579-3.8.97-2.245,2.53a42.538,42.538,0,0,0,15.542,10.311C260,179.518,261.556,176.512,259.52,175.732Z" transform="translate(692.325 338.658)" fill="#383057"/>
          <path id="Path_35609" data-name="Path 35609" d="M245.217,177.282l.723,1.332,2.3,4.052a3.138,3.138,0,0,0,.647,1.236c.514.59-1.9,2.055-2.835,1.446s-3.8-3.12-3.8-3.12a7.268,7.268,0,0,1-.285-3.272c.38-1.084,2.3-2.017,2.3-2.017Z" transform="translate(692.303 349.054)" fill="#fcb295"/>
          <path id="Path_35610" data-name="Path 35610" d="M269.711,194.093l-2.245-1.351c-.856-.533-13.982.495-13.982.495l-.97,7.115L251.62,211.5l3.082,2.416s.266-1.008.78-.247,2.815,1.065,2.815,1.065l5.155-5.935s4.432-6.791,4.7-7.267S269.711,194.093,269.711,194.093Z" transform="translate(701.081 363.175)" fill="#fff"/>
          <path id="Path_35611" data-name="Path 35611" d="M237,197.136a31.541,31.541,0,0,1-5.06,3.291c-1.313.419-7.5,5.365-7.229,9.8s1.6,11.566,1.6,11.566l.247-1.294s0-1.294.818-.457,2.378-.19,2.378-.19l3.691-6.107,9.512-9,5.954-1.9-1.046-6.753Z" transform="translate(676.795 366.333)" fill="#d76e4e"/>
          <path id="Path_35612" data-name="Path 35612" d="M309.876,288.207c-11.833,16.608-64.376,1.008-64.376,1.008l.742-9.188s30.913,2.511,37.058-7.762c1.1-1.9-2.15-23.19-7.895-28.707-2.568-2.454-5.27-4.87-7.609-6.906a32.854,32.854,0,0,1-11.053-19.024,34.033,34.033,0,0,1,1.5-17.863,10.235,10.235,0,0,1,16.075-4.223c10.387,8.466,27.128,30.191,27.546,30.7C316.724,245.67,321.766,271.542,309.876,288.207Z" transform="translate(695.559 363.723)" fill="#fcb295"/>
          <path id="Path_35613" data-name="Path 35613" d="M270.578,248.672c-2.359-2.245-17.254-16.836-19.518-31.332-1.046-6.6,1.008-22.524,9.207-24.426,13.145-3.044,30.723,16.056,42.86,30.438C297.553,235.926,285.416,244.734,270.578,248.672Z" transform="translate(700.348 363.176)" fill="#d76e4e"/>
          <path id="Path_35614" data-name="Path 35614" d="M234.865,241.2a18.356,18.356,0,0,1,7.02-.742,7.6,7.6,0,0,1,.875-.152c-.152-.266-.342-.514-.476-.78-.78-1.731-.913-4.661,1.237-5.517s3.691,1.9,4.851,3.348a16.644,16.644,0,0,0,4.794,4.223,28.324,28.324,0,0,0,6.049,1.294c1.446.266,3.8.342,4.756,1.769a7.819,7.819,0,0,1,.4,4.851c-.38,1.617-1.807,2.4-3.234,3.044a16.212,16.212,0,0,1-3.8,1.122,12.879,12.879,0,0,1-7.191.418,9.746,9.746,0,0,1-1.465-.571,12.271,12.271,0,0,1-6.677.8,1.5,1.5,0,0,1-1.16-2.074,2.873,2.873,0,0,1-1.237-.7,2.245,2.245,0,0,1-.571-1.446,5.231,5.231,0,0,1-1.179-.856,4.052,4.052,0,0,1-.97-4.261,19.557,19.557,0,0,0-5.707,4.585,1.6,1.6,0,0,1-2.682-.514C226.818,245.554,232.125,242.13,234.865,241.2Z" transform="translate(679.923 400.403)" fill="#fcb295"/>
          <path id="Path_35615" data-name="Path 35615" d="M246.421,238.81a57.861,57.861,0,0,0,5.954.628c1.9,0,2.226,5.859,2.226,5.859l-3.462,2.777-2.131-.133s-.514-.59-1.9,0-4.375-3.424-4.375-3.424l.628-2.587s-.171-.685.894-1.275a6.737,6.737,0,0,0,1.655-1.046Z" transform="translate(693.06 404.883)" fill="#fcb295"/>
          <path id="Path_35616" data-name="Path 35616" d="M254.739,221.976s-.647-.97-.685.228-4.775-2.549-5.174-5.1-1.389-9.017,0-12.137,8.789-12.594,8.789-12.594l9.188-.285,3.177.951,6.677,3.8-1.655,9.759s-9.7,17.882-10.1,17.882S254.739,221.976,254.739,221.976Z" transform="translate(697.963 362.725)" fill="#d76e4e"/>
          <path id="Path_35617" data-name="Path 35617" d="M289.115,334.761v.4a7.762,7.762,0,0,1-6.944,7.609H267.695a7.743,7.743,0,0,1-6.925-7.609v-.4a4.773,4.773,0,0,1,.266-1.484,1.74,1.74,0,0,1,.171-.913c.418-2.15,6.316-7.077,6.316-7.077,10.064,2.854,16.208-.247,16.208-.247a14.857,14.857,0,0,1,5,7.99,4.491,4.491,0,0,1,.38,1.731Z" transform="translate(709.338 482.694)" fill="#383057"/>
          <path id="Path_35618" data-name="Path 35618" d="M331.01,277.5l44.953,2.72-43.031,12.061Z" transform="translate(595.325 399.161)" fill="#c2beb5"/>
          <path id="Path_35619" data-name="Path 35619" d="M375.051,278.93l.228,4.261-43.26,13.221v-5.422Z" transform="translate(596.236 400.452)" fill="#e0dcd1"/>
          <path id="Path_35620" data-name="Path 35620" d="M283.13,282.31l93.006,5.631v5.422l-92.987-6.2Z" transform="translate(552.12 403.501)" fill="#c2beb5"/>
          <path id="Path_35621" data-name="Path 35621" d="M193.2,286.313l93.025,5.707-7.172-50.7a3.691,3.691,0,0,0-3.424-3.215l-85.606-5.155a3.671,3.671,0,0,0-3.8,4.147Z" transform="translate(642.034 399.593)" fill="#e0dcd1"/>
          <path id="Path_35622" data-name="Path 35622" d="M289.115,330.36a7.762,7.762,0,0,1-6.944,7.609H267.695a7.743,7.743,0,0,1-6.925-7.609Z" transform="translate(709.338 487.494)"/>
        </g>
      </g>
    </g>
  </g>
</svg>
