<svg width="139" height="89" viewBox="0 0 139 89" fill="none" xmlns="http://www.w3.org/2000/svg">
<path d="M35.1775 59.385C21.1515 59.464 14.4195 64.036 5.75345 69.265C3.69345 70.509 1.08645 72.811 0.969454 74.942C0.875454 76.651 2.62445 80.071 3.96945 81.348C6.74432 83.8896 9.90884 85.9696 13.3425 87.509C14.0329 87.8706 14.8006 88.0594 15.58 88.0594C16.3593 88.0594 17.127 87.8706 17.8175 87.509C19.6175 86.376 19.4615 84.055 19.4585 83.457C19.4455 80.157 20.0915 74.008 20.0915 74.008L52.0415 73.981L35.1775 59.385Z" fill="#0065A4"/>
<mask id="mask0_3209_454" style="mask-type:luminance" maskUnits="userSpaceOnUse" x="34" y="0" width="105" height="74">
<path d="M138.036 0H34.0361V74H138.036V0Z" fill="white"/>
</mask>
<g mask="url(#mask0_3209_454)">
<path d="M132.355 53.951C132.49 58.897 54.296 77.444 58.806 85.999C60.0052 88.2314 61.6677 90.1818 63.682 91.7194C65.6963 93.2571 68.016 94.3464 70.4856 94.9146C72.9553 95.4827 75.5178 95.5165 78.0015 95.0137C80.4853 94.5108 82.8329 93.483 84.887 91.999C85.7611 91.5695 86.5956 91.0639 87.381 90.488C87.798 90.345 94.697 85.466 101.924 82.56C116.336 76.76 124.657 73.008 123.716 69.336C123.589 68.9288 123.371 68.5555 123.08 68.2438C122.789 67.9322 122.431 67.6903 122.033 67.536C135.49 58.208 132.355 53.948 132.355 53.948" fill="#004F91"/>
<path d="M129.773 52.844C134.473 47.369 137.036 41.433 136.359 40.044C135.419 38.116 113.073 38.144 86.8214 50.144C77.0654 54.599 59.4574 61.679 56.9084 73.188C54.9604 81.977 59.5654 90.831 68.3194 93.238C70.7387 93.9046 73.2777 94.0138 75.7453 93.5572C78.2129 93.1006 80.5448 92.0902 82.5654 90.602C82.9804 90.46 93.5854 83.174 100.886 80.454C113.056 75.919 119.722 72.383 119.657 70.623C119.604 69.161 113.714 67.733 113.714 67.733C122.778 66.389 132.653 57.629 132.472 54.269C132.422 53.323 129.772 52.849 129.772 52.849" fill="#0065A4"/>
<path d="M69.8128 19.781C59.3128 9.42702 71.4398 -0.210986 67.8738 -0.259986C63.3348 -0.322986 58.3958 5.79901 56.6738 15.181C54.9518 24.563 57.1738 32.86 61.6338 33.714C66.0938 34.568 76.5918 26.465 69.8138 19.782" fill="#0065A4"/>
<path d="M36.9422 41.351C37.1562 25.501 53.9102 13.051 65.8912 13.017V13.023C77.8662 13.466 94.2912 26.478 94.1042 42.328C94.0262 48.769 98.0481 73.702 97.9451 82.222C97.7331 99.835 83.9722 113.346 72.2802 113.259C71.3034 113.251 70.3301 113.144 69.3752 112.938C67.8124 112.603 66.2211 112.419 64.6232 112.388C63.0264 112.364 61.431 112.494 59.8592 112.776C58.8986 112.949 57.9229 113.024 56.9472 112.998C45.2582 112.687 31.8472 98.714 32.0852 81.098C32.1992 72.579 36.8562 47.798 36.9422 41.353" fill="#0065A4"/>
<path d="M77.7009 19.451C78.4009 4.67902 93.6119 7.50302 91.2769 4.77102C88.3039 1.29402 80.4769 1.59102 72.3769 6.47102C64.2769 11.351 59.5939 18.502 61.9299 22.444C64.2659 26.386 77.2559 28.988 77.7059 19.452" fill="#0065A4"/>
<path d="M54.023 61.041C53.963 68.699 58.923 74.754 65.091 74.827C71.259 74.9 76.311 68.962 76.37 61.304C76.429 53.646 75.832 44.586 65.323 44.471C54.794 44.357 54.081 53.383 54.023 61.041Z" fill="#201F2C"/>
<path d="M55.0963 59.979C55.0373 67.637 59.5403 70.956 65.1263 71.021C70.7123 71.086 75.2653 67.876 75.3263 60.221C75.3873 52.566 70.9263 43.357 65.3413 43.292C59.7563 43.227 55.1573 52.325 55.0983 59.983" fill="#18171D"/>
<path d="M53.8162 49.887C53.8162 49.887 60.1521 33.951 65.3391 34.012C65.4031 34.012 65.4692 34.018 65.5392 34.023C65.6091 34.028 65.6692 34.016 65.7332 34.017C70.9212 34.077 77.0131 50.16 77.0131 50.16C78.7652 54.971 69.4132 60.333 66.4132 61.905C66.0771 62.0793 65.6981 62.1536 65.3211 62.119C64.9437 62.1432 64.567 62.0607 64.2341 61.881C61.2632 60.237 51.9921 54.655 53.8181 49.887" fill="#F4A92F"/>
<path d="M51.4979 51.723C51.4979 51.723 52.2979 50.346 53.5659 48.453C56.3659 44.268 61.4349 37.553 65.1499 37.599C65.2169 37.599 65.2849 37.605 65.3499 37.61C65.4149 37.615 65.4849 37.603 65.5499 37.604C69.3499 37.648 74.5499 44.887 77.2839 49.149C78.4259 50.931 79.1369 52.192 79.1369 52.192C80.9629 56.792 69.3919 62.749 66.2779 64.249C65.5463 64.5285 64.7357 64.5188 64.0109 64.222C60.9209 62.65 49.5979 56.276 51.4939 51.722" fill="#201F2C"/>
<path d="M60.1556 53.726C60.1156 59.001 63.7246 63.321 63.3716 63.316C62.6977 60.1731 62.3678 56.9663 62.3876 53.752C62.4276 48.477 64.3116 44.223 63.5176 44.213C62.7236 44.203 60.1966 48.452 60.1556 53.726Z" fill="#4C4447"/>
<path d="M91.1224 65.504C94.8224 62.524 96.9054 58.55 96.3894 54.079C96.3894 54.079 95.7184 46.006 93.8424 44.145C93.1584 43.466 91.2974 43.378 91.1584 46.069C91.1584 46.069 95.2224 53.16 91.7334 60.621C89.5682 64.9542 86.5992 68.8364 82.9844 72.061L91.1224 65.504Z" fill="#004F91"/>
<path d="M95.3049 40.591C94.6939 48.379 87.3419 49.226 81.4489 46.48C79.8897 45.7698 78.4184 44.8805 77.0649 43.83C75.3049 42.184 74.3089 40.203 75.0109 34.177C76.0039 25.663 80.2109 19.177 84.4019 19.693C88.5929 20.209 96.3879 26.793 95.3019 40.593" fill="#8FC1E1"/>
<path d="M94.6451 42.371C94.2881 47.066 88.7801 47.521 85.4571 47.109C83.6322 46.7596 81.8909 46.0645 80.3271 45.061C79.3687 44.5158 78.5689 43.7302 78.0065 42.7817C77.4442 41.8332 77.1387 40.7545 77.1201 39.652C77.3011 32.913 82.1201 22.922 85.6311 23.352C89.1421 23.782 95.4701 31.521 94.6451 42.371Z" fill="white"/>
<path d="M81.4945 34.508C82.0743 34.4026 82.6206 34.1602 83.0878 33.801C83.555 33.4419 83.9297 32.9763 84.1806 32.443C84.4316 31.9098 84.5515 31.3243 84.5304 30.7353C84.5093 30.1464 84.3479 29.571 84.0595 29.057C84.2808 29.0271 84.5041 29.0137 84.7274 29.017C87.8974 29.09 90.4045 32.541 90.3275 36.725C90.2505 40.909 87.6155 44.242 84.4465 44.169C81.2775 44.096 78.7695 40.645 78.8465 36.462C78.8605 35.6751 78.9693 34.8928 79.1705 34.132C79.8811 34.5132 80.6989 34.6456 81.4935 34.508" fill="#18171D"/>
<path d="M39.0465 64.62C35.4265 61.52 33.4465 57.472 34.0725 53.02C34.0725 53.02 34.9475 44.973 36.8725 43.177C37.5725 42.522 39.4355 42.497 39.5065 45.192C39.5065 45.192 35.2625 52.142 38.5605 59.718C40.6158 64.1249 43.4831 68.1051 47.0125 71.45L39.0465 64.62Z" fill="#004F91"/>
<path d="M35.5248 39.897C36.0648 48.459 44.7638 48.934 50.9068 45.313C54.5848 43.145 56.7758 42.5 55.9128 33.964C55.0498 25.428 50.9458 18.844 46.7458 19.264C42.5458 19.684 34.6528 26.079 35.5258 39.901" fill="#8FC1E1"/>
<path d="M36.1586 41.691C36.4166 45.938 40.9256 46.826 44.2496 46.713C46.1357 46.5482 47.9727 46.0227 49.6606 45.165C51.4146 44.239 53.7606 42.431 53.7206 39.384C53.6436 32.642 48.9756 22.538 45.4606 22.884C41.9456 23.23 35.4986 30.82 36.1606 41.684" fill="white"/>
<path d="M46.2727 28.573C46.4962 28.5746 46.7191 28.5933 46.9397 28.629C46.7323 28.9868 46.5866 29.3769 46.5087 29.783C46.3227 30.7465 46.5243 31.7445 47.0697 32.5603C47.6151 33.376 48.4603 33.9437 49.4217 34.14C50.2115 34.2962 51.0308 34.1832 51.7487 33.819C51.9389 34.5832 52.0359 35.3676 52.0377 36.155C52.0517 40.34 49.4927 43.731 46.3217 43.729C43.1507 43.727 40.5697 40.329 40.5557 36.148C40.5417 31.967 43.1017 28.571 46.2727 28.573Z" fill="#18171D"/>
</g>
</svg>
