<svg xmlns="http://www.w3.org/2000/svg" xmlns:xlink="http://www.w3.org/1999/xlink" width="1280" height="478" viewBox="0 0 1280 478">
  <defs>
    <clipPath id="clip-path">
      <rect id="Rectangle_9395" data-name="Rectangle 9395" width="1280" height="478" transform="translate(0 100)" fill="#b3b8c1"/>
    </clipPath>
  </defs>
  <g id="banner" transform="translate(0 -100)" clip-path="url(#clip-path)">
    <g id="Group_18952" data-name="Group 18952">
      <g id="Group_18949" data-name="Group 18949" transform="translate(-64 -117.162)">
        <path id="Path_35072" data-name="Path 35072" d="M137.53,210.884V179.029H190.4V26.75H204.97V179.029h56.919v31.855h30.485V849.378H72.48V210.884Z" transform="translate(138.758 -26.75)" fill="#dec9c2"/>
        <rect id="Rectangle_9396" data-name="Rectangle 9396" width="30.485" height="574.347" transform="translate(241.723 758.481) rotate(180)" fill="#c7b4ae"/>
        <rect id="Rectangle_9397" data-name="Rectangle 9397" width="219.894" height="486.39" transform="translate(541.094 822.628) rotate(180)" fill="#dec9c2"/>
        <rect id="Rectangle_9398" data-name="Rectangle 9398" width="30.485" height="486.39" transform="translate(351.685 822.628) rotate(180)" fill="#c7b4ae"/>
        <path id="Path_35073" data-name="Path 35073" d="M9.116,347.1c-9.006-4.313-1.807-15.971,5.217-14.135a37.042,37.042,0,0,1,1.6-14.572,2.3,2.3,0,0,1,2.914-1.6,116.107,116.107,0,0,1,27.6,13.173A12.124,12.124,0,0,1,55.4,319.7c9.093-2.769,16.059,4.6,20.984,11.658a38.415,38.415,0,0,1,2.273-4.692,2.3,2.3,0,0,1,3.118-.816c.758.5,1.428,1.02,2.128,1.544-3.352-9.676-5.508-21.975,3.7-24.743,9.734-2.914,18.273,7.607,24.248,17.895A11.25,11.25,0,0,1,121.5,308.89c10.638-1.894,14.572,11.425,16.525,21.479a49.545,49.545,0,0,1,5.3-6.7,2.332,2.332,0,0,1,3.614.466,24.635,24.635,0,0,1,2.477,4.576c4.313-8.977,11.308-20.022,20.4-20.809,10.171-.874,14.368,14.864,17.487,24.336a12.1,12.1,0,0,1,15.184-.466,15.1,15.1,0,0,1,13.377-11.1,16.35,16.35,0,0,1,15.213,8.364c2.536-13.989,2.914-26.871,13.873-36.518a7.315,7.315,0,0,1,10.609.845c8.16,13.494,9.822,26.375,10.987,41.822A107.825,107.825,0,0,1,277.623,320.4a2.3,2.3,0,0,1,2.914-.35,36.37,36.37,0,0,1,13.028,13.523c2.186-5.829,7.024-10.171,13.844-9.035a11.92,11.92,0,0,1,9.3,7.9,207.327,207.327,0,0,1,16.554-22.7c4.109-4.838,9.53-11.4,16.612-8.044,10.871,5.1,8.423,18.39,3.439,29.144,9.151-6.966,20.751-13.552,27.25-6.5,7.14,7.752,1.02,16-5.275,22.791Z" transform="translate(355.276 478.415)" fill="#c7b4ae"/>
        <path id="Path_35074" data-name="Path 35074" d="M-78.229,347.02c-9.006-4.313-1.836-15.971,5.188-14.135a37.6,37.6,0,0,1,1.6-14.572,2.3,2.3,0,0,1,1.115-1.424,2.3,2.3,0,0,1,1.8-.179,116.11,116.11,0,0,1,27.6,13.173,12.153,12.153,0,0,1,8.976-10.259c9.064-2.769,16.029,4.6,20.955,11.658A38.4,38.4,0,0,1-8.72,326.59a2.332,2.332,0,0,1,3.148-.816c.729.5,1.428,1.02,2.1,1.545-3.352-9.676-5.508-21.975,3.7-24.744C9.962,299.661,18.5,310.182,24.5,320.47a11.191,11.191,0,0,1,9.618-11.658c10.638-1.895,14.572,11.425,16.525,21.479a47.614,47.614,0,0,1,5.188-6.587,2.3,2.3,0,0,1,3.585.466,24.885,24.885,0,0,1,2.506,4.576c4.284-8.976,11.279-20.022,20.4-20.809C92.5,307.063,96.7,322.8,99.814,332.273A12.1,12.1,0,0,1,115,331.807,15.126,15.126,0,0,1,128.4,320.7a16.38,16.38,0,0,1,15.213,8.364c2.506-13.989,2.914-26.871,13.873-36.518a7.286,7.286,0,0,1,10.579.845c8.16,13.494,9.822,26.376,10.987,41.822a107.83,107.83,0,0,1,11.075-14.776,2.3,2.3,0,0,1,2.769-.35,36.373,36.373,0,0,1,13.027,13.523c2.186-5.829,7.024-10.171,13.844-9.035a12.008,12.008,0,0,1,9.326,7.9,203.333,203.333,0,0,1,16.525-22.7c4.109-4.838,9.53-11.4,16.612-8.044,10.871,5.1,8.452,18.39,3.439,29.144,9.151-6.966,20.78-13.552,27.25-6.5,7.14,7.752,1.02,16-5.275,22.791Z" transform="translate(188.045 478.493)" fill="#c7b4ae"/>
        <rect id="Rectangle_9399" data-name="Rectangle 9399" width="219.894" height="486.39" transform="translate(1124.592 822.628) rotate(180)" fill="#dec9c2"/>
        <rect id="Rectangle_9400" data-name="Rectangle 9400" width="30.485" height="486.39" transform="translate(935.212 822.628) rotate(180)" fill="#c7b4ae"/>
        <rect id="Rectangle_9401" data-name="Rectangle 9401" width="295.028" height="717.737" transform="translate(829.972 822.628) rotate(180)" fill="#dec9c2"/>
        <rect id="Rectangle_9402" data-name="Rectangle 9402" width="30.485" height="717.737" transform="translate(565.429 822.628) rotate(180)" fill="#c7b4ae"/>
        <rect id="Rectangle_9403" data-name="Rectangle 9403" width="46.077" height="19.119" transform="translate(798.904 158.37) rotate(180)" fill="#edd8d0"/>
        <rect id="Rectangle_9404" data-name="Rectangle 9404" width="46.077" height="19.119" transform="translate(721.322 158.37) rotate(180)" fill="#edd8d0"/>
        <rect id="Rectangle_9405" data-name="Rectangle 9405" width="46.077" height="19.119" transform="translate(798.904 228.025) rotate(180)" fill="#edd8d0"/>
        <rect id="Rectangle_9406" data-name="Rectangle 9406" width="46.077" height="19.119" transform="translate(721.322 228.025) rotate(180)" fill="#edd8d0"/>
        <rect id="Rectangle_9407" data-name="Rectangle 9407" width="46.077" height="19.119" transform="translate(643.74 228.025) rotate(180)" fill="#edd8d0"/>
        <rect id="Rectangle_9408" data-name="Rectangle 9408" width="46.077" height="19.119" transform="translate(798.904 297.651) rotate(180)" fill="#edd8d0"/>
        <rect id="Rectangle_9409" data-name="Rectangle 9409" width="46.077" height="19.119" transform="translate(643.74 297.651) rotate(180)" fill="#edd8d0"/>
        <rect id="Rectangle_9410" data-name="Rectangle 9410" width="46.077" height="19.119" transform="translate(721.322 332.449) rotate(180)" fill="#edd8d0"/>
        <rect id="Rectangle_9411" data-name="Rectangle 9411" width="46.077" height="19.119" transform="translate(798.904 367.248) rotate(180)" fill="#edd8d0"/>
        <rect id="Rectangle_9412" data-name="Rectangle 9412" width="46.077" height="19.119" transform="translate(721.322 402.075) rotate(180)" fill="#edd8d0"/>
        <rect id="Rectangle_9413" data-name="Rectangle 9413" width="46.077" height="19.119" transform="translate(798.904 436.903) rotate(180)" fill="#edd8d0"/>
        <rect id="Rectangle_9414" data-name="Rectangle 9414" width="46.077" height="19.119" transform="translate(643.74 436.903) rotate(180)" fill="#edd8d0"/>
        <rect id="Rectangle_9415" data-name="Rectangle 9415" width="46.077" height="19.119" transform="translate(798.904 501.224) rotate(180)" fill="#edd8d0"/>
        <rect id="Rectangle_9416" data-name="Rectangle 9416" width="46.077" height="19.119" transform="translate(721.322 501.224) rotate(180)" fill="#edd8d0"/>
        <rect id="Rectangle_9417" data-name="Rectangle 9417" width="46.077" height="19.119" transform="translate(798.904 570.85) rotate(180)" fill="#edd8d0"/>
        <rect id="Rectangle_9418" data-name="Rectangle 9418" width="46.077" height="19.119" transform="translate(721.322 570.85) rotate(180)" fill="#edd8d0"/>
        <rect id="Rectangle_9419" data-name="Rectangle 9419" width="46.077" height="19.119" transform="translate(643.74 570.85) rotate(180)" fill="#edd8d0"/>
        <rect id="Rectangle_9420" data-name="Rectangle 9420" width="46.077" height="19.119" transform="translate(798.904 640.505) rotate(180)" fill="#edd8d0"/>
        <rect id="Rectangle_9421" data-name="Rectangle 9421" width="46.077" height="19.119" transform="translate(643.74 640.505) rotate(180)" fill="#edd8d0"/>
        <rect id="Rectangle_9422" data-name="Rectangle 9422" width="46.077" height="19.119" transform="translate(721.322 675.332) rotate(180)" fill="#edd8d0"/>
        <rect id="Rectangle_9423" data-name="Rectangle 9423" width="46.077" height="19.119" transform="translate(643.74 675.332) rotate(180)" fill="#edd8d0"/>
        <rect id="Rectangle_9424" data-name="Rectangle 9424" width="46.077" height="19.119" transform="translate(798.904 710.131) rotate(180)" fill="#edd8d0"/>
        <rect id="Rectangle_9425" data-name="Rectangle 9425" width="46.077" height="19.119" transform="translate(721.322 744.929) rotate(180)" fill="#edd8d0"/>
        <rect id="Rectangle_9426" data-name="Rectangle 9426" width="46.077" height="19.119" transform="translate(798.904 779.756) rotate(180)" fill="#edd8d0"/>
        <rect id="Rectangle_9427" data-name="Rectangle 9427" width="46.077" height="19.119" transform="translate(643.74 779.756) rotate(180)" fill="#edd8d0"/>
        <rect id="Rectangle_9428" data-name="Rectangle 9428" width="289.17" height="664.258" transform="translate(1345.36 822.628) rotate(180)" fill="#dec9c2"/>
        <rect id="Rectangle_9429" data-name="Rectangle 9429" width="29.873" height="664.258" transform="translate(1086.092 822.628) rotate(180)" fill="#c7b4ae"/>
        <rect id="Rectangle_9430" data-name="Rectangle 9430" width="45.174" height="17.691" transform="translate(1314.905 207.886) rotate(180)" fill="#edd8d0"/>
        <rect id="Rectangle_9431" data-name="Rectangle 9431" width="45.174" height="17.691" transform="translate(1238.867 207.886) rotate(180)" fill="#edd8d0"/>
        <rect id="Rectangle_9432" data-name="Rectangle 9432" width="45.174" height="17.691" transform="translate(1314.905 272.325) rotate(180)" fill="#edd8d0"/>
        <rect id="Rectangle_9433" data-name="Rectangle 9433" width="45.174" height="17.691" transform="translate(1238.867 272.325) rotate(180)" fill="#edd8d0"/>
        <rect id="Rectangle_9434" data-name="Rectangle 9434" width="45.174" height="17.691" transform="translate(1162.859 272.325) rotate(180)" fill="#edd8d0"/>
        <rect id="Rectangle_9435" data-name="Rectangle 9435" width="45.174" height="17.691" transform="translate(1314.905 336.763) rotate(180)" fill="#edd8d0"/>
        <rect id="Rectangle_9436" data-name="Rectangle 9436" width="45.174" height="17.691" transform="translate(1162.859 336.763) rotate(180)" fill="#edd8d0"/>
        <rect id="Rectangle_9437" data-name="Rectangle 9437" width="45.174" height="17.691" transform="translate(1238.867 368.967) rotate(180)" fill="#edd8d0"/>
        <rect id="Rectangle_9438" data-name="Rectangle 9438" width="45.174" height="17.691" transform="translate(1314.905 401.201) rotate(180)" fill="#edd8d0"/>
        <rect id="Rectangle_9439" data-name="Rectangle 9439" width="45.174" height="17.691" transform="translate(1238.867 433.405) rotate(180)" fill="#edd8d0"/>
        <rect id="Rectangle_9440" data-name="Rectangle 9440" width="45.174" height="17.691" transform="translate(1314.905 465.668) rotate(180)" fill="#edd8d0"/>
        <rect id="Rectangle_9441" data-name="Rectangle 9441" width="45.174" height="17.691" transform="translate(1162.859 465.668) rotate(180)" fill="#edd8d0"/>
        <rect id="Rectangle_9442" data-name="Rectangle 9442" width="45.174" height="17.691" transform="translate(1314.905 525.21) rotate(180)" fill="#edd8d0"/>
        <rect id="Rectangle_9443" data-name="Rectangle 9443" width="45.174" height="17.691" transform="translate(1238.867 525.21) rotate(180)" fill="#edd8d0"/>
        <rect id="Rectangle_9444" data-name="Rectangle 9444" width="45.174" height="17.691" transform="translate(1314.905 589.648) rotate(180)" fill="#edd8d0"/>
        <rect id="Rectangle_9445" data-name="Rectangle 9445" width="45.174" height="17.691" transform="translate(1238.867 589.648) rotate(180)" fill="#edd8d0"/>
        <rect id="Rectangle_9446" data-name="Rectangle 9446" width="45.174" height="17.691" transform="translate(1162.859 589.648) rotate(180)" fill="#edd8d0"/>
        <rect id="Rectangle_9447" data-name="Rectangle 9447" width="45.174" height="17.691" transform="translate(1314.905 654.057) rotate(180)" fill="#edd8d0"/>
        <rect id="Rectangle_9448" data-name="Rectangle 9448" width="45.174" height="17.691" transform="translate(1162.859 654.057) rotate(180)" fill="#edd8d0"/>
        <rect id="Rectangle_9449" data-name="Rectangle 9449" width="45.174" height="17.691" transform="translate(1238.867 686.291) rotate(180)" fill="#edd8d0"/>
        <rect id="Rectangle_9450" data-name="Rectangle 9450" width="45.174" height="17.691" transform="translate(1162.859 686.291) rotate(180)" fill="#edd8d0"/>
        <rect id="Rectangle_9451" data-name="Rectangle 9451" width="45.174" height="17.691" transform="translate(1314.905 718.495) rotate(180)" fill="#edd8d0"/>
        <rect id="Rectangle_9452" data-name="Rectangle 9452" width="45.174" height="17.691" transform="translate(1238.867 750.729) rotate(180)" fill="#edd8d0"/>
        <rect id="Rectangle_9453" data-name="Rectangle 9453" width="45.174" height="17.691" transform="translate(1314.905 782.933) rotate(180)" fill="#edd8d0"/>
        <rect id="Rectangle_9454" data-name="Rectangle 9454" width="45.174" height="17.691" transform="translate(1162.859 782.933) rotate(180)" fill="#edd8d0"/>
        <rect id="Rectangle_9455" data-name="Rectangle 9455" width="186.232" height="453.078" transform="translate(250.554 822.628) rotate(180)" fill="#dec9c2"/>
        <rect id="Rectangle_9456" data-name="Rectangle 9456" width="29.086" height="12.066" transform="translate(230.94 403.328) rotate(180)" fill="#edd8d0"/>
        <rect id="Rectangle_9457" data-name="Rectangle 9457" width="29.086" height="12.066" transform="translate(181.977 403.328) rotate(180)" fill="#edd8d0"/>
        <rect id="Rectangle_9458" data-name="Rectangle 9458" width="29.086" height="12.066" transform="translate(230.94 447.278) rotate(180)" fill="#edd8d0"/>
        <rect id="Rectangle_9459" data-name="Rectangle 9459" width="29.086" height="12.066" transform="translate(181.977 447.278) rotate(180)" fill="#edd8d0"/>
        <rect id="Rectangle_9460" data-name="Rectangle 9460" width="29.086" height="12.066" transform="translate(132.986 447.278) rotate(180)" fill="#edd8d0"/>
        <rect id="Rectangle_9461" data-name="Rectangle 9461" width="29.086" height="12.066" transform="translate(230.94 491.257) rotate(180)" fill="#edd8d0"/>
        <rect id="Rectangle_9462" data-name="Rectangle 9462" width="29.086" height="12.066" transform="translate(132.986 491.257) rotate(180)" fill="#edd8d0"/>
        <rect id="Rectangle_9463" data-name="Rectangle 9463" width="29.086" height="12.066" transform="translate(181.977 513.232) rotate(180)" fill="#edd8d0"/>
        <rect id="Rectangle_9464" data-name="Rectangle 9464" width="29.086" height="12.066" transform="translate(230.94 535.206) rotate(180)" fill="#edd8d0"/>
        <rect id="Rectangle_9465" data-name="Rectangle 9465" width="29.086" height="12.066" transform="translate(181.977 557.181) rotate(180)" fill="#edd8d0"/>
        <rect id="Rectangle_9466" data-name="Rectangle 9466" width="29.086" height="12.066" transform="translate(230.94 579.156) rotate(180)" fill="#edd8d0"/>
        <rect id="Rectangle_9467" data-name="Rectangle 9467" width="29.086" height="12.066" transform="translate(132.986 579.156) rotate(180)" fill="#edd8d0"/>
        <rect id="Rectangle_9468" data-name="Rectangle 9468" width="29.086" height="12.066" transform="translate(230.94 619.754) rotate(180)" fill="#edd8d0"/>
        <rect id="Rectangle_9469" data-name="Rectangle 9469" width="29.086" height="12.066" transform="translate(181.977 619.754) rotate(180)" fill="#edd8d0"/>
        <rect id="Rectangle_9470" data-name="Rectangle 9470" width="29.086" height="12.066" transform="translate(230.94 663.704) rotate(180)" fill="#edd8d0"/>
        <rect id="Rectangle_9471" data-name="Rectangle 9471" width="29.086" height="12.066" transform="translate(181.977 663.704) rotate(180)" fill="#edd8d0"/>
        <rect id="Rectangle_9472" data-name="Rectangle 9472" width="29.086" height="12.066" transform="translate(132.986 663.704) rotate(180)" fill="#edd8d0"/>
        <rect id="Rectangle_9473" data-name="Rectangle 9473" width="29.086" height="12.066" transform="translate(230.94 707.682) rotate(180)" fill="#edd8d0"/>
        <rect id="Rectangle_9474" data-name="Rectangle 9474" width="29.086" height="12.066" transform="translate(132.986 707.682) rotate(180)" fill="#edd8d0"/>
        <rect id="Rectangle_9475" data-name="Rectangle 9475" width="29.086" height="12.066" transform="translate(181.977 729.657) rotate(180)" fill="#edd8d0"/>
        <rect id="Rectangle_9476" data-name="Rectangle 9476" width="29.086" height="12.066" transform="translate(132.986 729.657) rotate(180)" fill="#edd8d0"/>
        <rect id="Rectangle_9477" data-name="Rectangle 9477" width="29.086" height="12.066" transform="translate(230.94 751.632) rotate(180)" fill="#edd8d0"/>
        <rect id="Rectangle_9478" data-name="Rectangle 9478" width="29.086" height="12.066" transform="translate(181.977 773.607) rotate(180)" fill="#edd8d0"/>
        <rect id="Rectangle_9479" data-name="Rectangle 9479" width="29.086" height="12.066" transform="translate(230.94 795.582) rotate(180)" fill="#edd8d0"/>
        <rect id="Rectangle_9480" data-name="Rectangle 9480" width="29.086" height="12.066" transform="translate(132.986 795.582) rotate(180)" fill="#edd8d0"/>
        <path id="Path_35075" data-name="Path 35075" d="M167.563,349.695c-9.938-4.78-2.011-17.662,5.829-15.621a41.152,41.152,0,0,1,1.749-16.175,2.565,2.565,0,0,1,3.118-1.749,127.477,127.477,0,0,1,30.485,14.572,13.435,13.435,0,0,1,9.909-11.337c10-3.06,17.72,5.1,23.141,12.882a42.206,42.206,0,0,1,2.506-5.188,2.565,2.565,0,0,1,3.468-.9c.816.554,1.574,1.137,2.332,1.72-3.7-10.7-6.062-24.248,4.109-27.308,10.725-3.235,20.139,8.364,26.784,19.731.408-6.12,3.148-11.4,10.609-12.736,11.658-2.069,16.263,12.619,18.273,23.723a51.42,51.42,0,0,1,5.829-7.4,2.565,2.565,0,0,1,3.993.525,25.5,25.5,0,0,1,2.74,5.042c4.751-9.909,12.474-22.121,22.587-23,11.221-.962,15.854,16.437,19.235,26.9a13.348,13.348,0,0,1,16.758-.525,16.67,16.67,0,0,1,14.805-12.27,18.069,18.069,0,0,1,16.787,9.239c2.914-15.447,3.264-29.669,15.33-40.336a8.044,8.044,0,0,1,11.658.962c9.035,14.893,10.842,29.144,12.153,46.165a115.3,115.3,0,0,1,12.212-16.292,2.565,2.565,0,0,1,3.06-.408,39.548,39.548,0,0,1,14.368,14.922c2.448-6.266,7.781-11.221,15.3-9.967a13.114,13.114,0,0,1,10.288,8.743,223.027,223.027,0,0,1,18.274-25.064c4.517-5.333,10.521-12.561,18.332-8.743,12.007,5.654,9.326,20.4,3.818,32.059,10.113-7.694,22.907-14.98,30.077-7.17,7.9,8.569,1.137,17.691-5.829,25.181Z" transform="translate(657.775 472.292)" fill="#c7b4ae"/>
        <path id="Path_35076" data-name="Path 35076" d="M78.589,350.7c-9.938-4.75-1.982-17.632,5.829-15.592a41.036,41.036,0,0,1,1.749-16.175,2.565,2.565,0,0,1,3.118-1.778A129.343,129.343,0,0,1,119.8,331.731a13.435,13.435,0,0,1,9.88-11.337c10-2.914,17.72,5.1,23.141,12.882a38.62,38.62,0,0,1,2.536-5.188,2.536,2.536,0,0,1,3.439-.9l2.332,1.749c-3.7-10.7-6.062-24.277,4.109-27.337,10.725-3.235,20.168,8.394,26.784,19.731.408-6.12,3.148-11.4,10.638-12.707,11.658-2.1,16.233,12.59,18.244,23.694a53.271,53.271,0,0,1,5.829-7.373,2.594,2.594,0,0,1,3.993.5,26.235,26.235,0,0,1,2.74,5.042c4.751-9.909,12.474-22.121,22.587-22.995,11.221-.962,15.855,16.437,19.235,26.9a13.348,13.348,0,0,1,16.758-.5,16.641,16.641,0,0,1,14.805-12.27,18.011,18.011,0,0,1,16.787,9.21c2.914-15.417,3.264-29.669,15.33-40.306a8.044,8.044,0,0,1,11.658.933c9.035,14.893,10.842,29.144,12.153,46.194a115.56,115.56,0,0,1,12.211-16.321,2.565,2.565,0,0,1,2.914-.408,40.277,40.277,0,0,1,14.4,14.922c2.419-6.266,7.752-11.221,15.272-9.967a13.174,13.174,0,0,1,10.288,8.743,226.365,226.365,0,0,1,18.273-25.035c4.547-5.363,10.521-12.591,18.332-8.918,12.007,5.654,9.326,20.4,3.818,32.059,10.113-7.665,22.937-14.951,30.077-7.17,7.9,8.569,1.137,17.691-5.829,25.181Z" transform="translate(487.452 474.256)" fill="#c7b4ae"/>
        <path id="Path_35077" data-name="Path 35077" d="M127.43,851.611H70.22L376.906,35.89h57.21Z" transform="translate(134.432 -9.252)" fill="#fff" opacity="0.5"/>
        <path id="Path_35078" data-name="Path 35078" d="M73.961,851.611H45.37L352.056,35.89h28.62Z" transform="translate(86.858 -9.252)" fill="#fff" opacity="0.5"/>
        <rect id="Rectangle_9481" data-name="Rectangle 9481" width="22.237" height="753.293" transform="translate(0 870.133) rotate(-90)" fill="#fff"/>
        <rect id="Rectangle_9482" data-name="Rectangle 9482" width="16.117" height="852.268" transform="translate(491.432 11.745)" fill="#fff"/>
        <rect id="Rectangle_9483" data-name="Rectangle 9483" width="6.791" height="720.885" transform="translate(737.089 842.358) rotate(90)" fill="#fff"/>
        <rect id="Rectangle_9484" data-name="Rectangle 9484" width="19.235" height="753.293" transform="translate(0 26.667) rotate(-90)" fill="#fff"/>
        <rect id="Rectangle_9485" data-name="Rectangle 9485" width="6.791" height="721.176" transform="translate(737.235 26.638) rotate(90)" fill="#fff"/>
        <path id="Path_35079" data-name="Path 35079" d="M1457.451,30.78H720.3v5.275H2.77V876.548L1457.451,873.4Z" transform="translate(5.303 -19.035)" fill="#fff" opacity="0.35"/>
        <path id="Path_35080" data-name="Path 35080" d="M302.06,851.611H244.85L551.536,35.89h57.21Z" transform="translate(468.749 -9.252)" fill="#fff" opacity="0.5"/>
        <path id="Path_35081" data-name="Path 35081" d="M248.62,851.611H220L526.715,35.89h28.591Z" transform="translate(421.175 -9.252)" fill="#fff" opacity="0.5"/>
        <path id="Path_35082" data-name="Path 35082" d="M440.3,794.082H411.68L674.62,65.94v58.668Z" transform="translate(788.134 48.277)" fill="#fff" opacity="0.6"/>
        <rect id="Rectangle_9486" data-name="Rectangle 9486" width="16.117" height="852.268" transform="translate(959.46 11.745)" fill="#fff"/>
        <rect id="Rectangle_9487" data-name="Rectangle 9487" width="22.237" height="753.293" transform="translate(713.745 870.162) rotate(-90)" fill="#fff"/>
        <rect id="Rectangle_9488" data-name="Rectangle 9488" width="6.791" height="720.885" transform="translate(1450.805 842.329) rotate(90)" fill="#fff"/>
        <rect id="Rectangle_9489" data-name="Rectangle 9489" width="19.235" height="753.293" transform="translate(713.715 26.638) rotate(-90)" fill="#fff"/>
        <rect id="Rectangle_9490" data-name="Rectangle 9490" width="6.791" height="721.176" transform="translate(1450.979 26.638) rotate(90)" fill="#fff"/>
        <rect id="Rectangle_9491" data-name="Rectangle 9491" width="9.618" height="1462.754" transform="translate(0 168.629) rotate(-90)" fill="#fff"/>
        <rect id="Rectangle_9492" data-name="Rectangle 9492" width="9.618" height="1462.754" transform="translate(0 583.061) rotate(-90)" fill="#fff"/>
      </g>
      <g id="Layer_2" data-name="Layer 2" transform="translate(354.997 242.825)">
        <g id="Layer_1" data-name="Layer 1" transform="translate(22.003 5.583)">
          <path id="Path_35388" data-name="Path 35388" d="M105.405,292.261h5.638a3.745,3.745,0,0,0,3.745-3.745V262.26H101.66v26.276a3.745,3.745,0,0,0,3.745,3.725Z" transform="translate(105.247 182.449)" fill="#c7c1b7"/>
          <path id="Path_35389" data-name="Path 35389" d="M67.122,339.157A12.721,12.721,0,0,1,75.264,323.1l59.432-19.56V224.16h19.8v79.724l58.659,19.3a12.721,12.721,0,0,1,8.141,16.059L144.2,313.9h0Z" transform="translate(68.833 143.002)" fill="#c7c1b7"/>
          <path id="Path_35390" data-name="Path 35390" d="M99.221,311.66H121.61V224.791a6.391,6.391,0,0,0-6.472-6.391h-9.607a6.391,6.391,0,0,0-6.391,6.391Z" transform="translate(102.638 137.038)" fill="#c7c1b7"/>
          <path id="Path_35391" data-name="Path 35391" d="M133.29,284.778a12.538,12.538,0,1,1,12.538,12.538,12.538,12.538,0,0,1-12.538-12.538Z" transform="translate(137.995 192.782)" fill="#9d817e"/>
          <path id="Path_35392" data-name="Path 35392" d="M134.63,283.39a9.81,9.81,0,1,1,9.81,9.81,9.81,9.81,0,0,1-9.81-9.81Z" transform="translate(139.383 194.169)" fill="#b38d82"/>
          <path id="Path_35393" data-name="Path 35393" d="M98.72,284.778a12.538,12.538,0,1,1,12.538,12.538A12.538,12.538,0,0,1,98.72,284.778Z" transform="translate(102.203 192.782)" fill="#9d817e"/>
          <path id="Path_35394" data-name="Path 35394" d="M100.06,283.39a9.81,9.81,0,1,1,9.81,9.81A9.81,9.81,0,0,1,100.06,283.39Z" transform="translate(103.591 194.169)" fill="#b38d82"/>
          <path id="Path_35395" data-name="Path 35395" d="M63.13,284.778a12.538,12.538,0,1,1,12.538,12.538A12.538,12.538,0,0,1,63.13,284.778Z" transform="translate(65.356 192.782)" fill="#9d817e"/>
          <path id="Path_35396" data-name="Path 35396" d="M64.47,283.39a9.81,9.81,0,1,1,9.81,9.81A9.81,9.81,0,0,1,64.47,283.39Z" transform="translate(66.743 194.169)" fill="#b38d82"/>
          <path id="Path_35397" data-name="Path 35397" d="M100.61,242.758h32.769c4.8,0,8.691-6.9,8.691-15.428H92C92,235.858,95.806,242.758,100.61,242.758Z" transform="translate(95.246 146.284)" fill="#9d817e"/>
          <path id="Path_35398" data-name="Path 35398" d="M250.8,274.454a11.683,11.683,0,0,1-11.683,11.683H141.708s-2.687-.814-7-2.178c-17.585-5.6-62.526-20.231-65.538-24.933-3.725-5.862-12.6-88.456-12.6-88.456h97.452a11.683,11.683,0,0,1,12.6,10.726l2.28,51.677a32.566,32.566,0,0,0,32.22,29.777h38.061A11.683,11.683,0,0,1,250.8,274.454Z" transform="translate(58.564 87.478)" fill="#bfa19f"/>
          <path id="Path_35399" data-name="Path 35399" d="M211.015,227.543a11.683,11.683,0,0,1-11.683,11.683H95V215.84H199.474A11.683,11.683,0,0,1,211.015,227.543Z" transform="translate(98.352 134.388)" fill="#bfa19f"/>
          <path id="Path_35400" data-name="Path 35400" d="M147.163,285.988H109.123a55.992,55.992,0,0,1-55.545-51.311L51.3,183a11.7,11.7,0,0,1,23.325-1.852l2.28,51.677a32.566,32.566,0,0,0,32.22,29.777h38.041a11.7,11.7,0,1,1,0,23.386Z" transform="translate(53.089 87.627)" fill="#9d817e"/>
          <path id="Path_35401" data-name="Path 35401" d="M18.289,394.173h6.635a3.928,3.928,0,0,0,3.928-3.949V180.38H14.34V390.224a3.949,3.949,0,0,0,3.949,3.948Z" transform="translate(14.841 97.675)" fill="#876a66"/>
          <path id="Path_35402" data-name="Path 35402" d="M47.378,394.173h6.635a3.949,3.949,0,0,0,3.949-3.949V180.38H43.45V390.224a3.949,3.949,0,0,0,3.928,3.948Z" transform="translate(44.98 97.675)" fill="#9d817e"/>
          <path id="Path_35403" data-name="Path 35403" d="M159.8,394.173h6.635a3.928,3.928,0,0,0,3.928-3.949V180.38H155.85V390.224a3.949,3.949,0,0,0,3.949,3.948Z" transform="translate(161.353 97.675)" fill="#876a66"/>
          <path id="Path_35404" data-name="Path 35404" d="M188.847,394.173h6.635a3.949,3.949,0,0,0,3.949-3.949V180.38H185V390.224A3.928,3.928,0,0,0,188.847,394.173Z" transform="translate(191.533 97.675)" fill="#9d817e"/>
          <rect id="Rectangle_9612" data-name="Rectangle 9612" width="293.497" height="12.884" transform="translate(113.648 273.964)" fill="#c6b1ae"/>
          <rect id="Rectangle_9613" data-name="Rectangle 9613" width="111.924" height="12.884" transform="translate(1.724 273.964)" fill="#876a66"/>
          <path id="Path_35405" data-name="Path 35405" d="M228.612,331.629l-2.972-.061,4.234-92,2.992.061Z" transform="translate(233.609 158.957)" fill="#3d2a26"/>
          <path id="Path_35406" data-name="Path 35406" d="M261.674,247.236c-12.619,0-53.774-.489-53.774-6.8s41.155-6.8,53.774-6.8,53.774.489,53.774,6.8S274.293,247.236,261.674,247.236ZM211.6,240.479c4.376,1.73,22.389,3.826,50.069,3.826s45.693-2.035,50.069-3.826c-4.376-1.75-22.389-3.826-50.069-3.826S215.98,238.688,211.6,240.479Z" transform="translate(215.242 152.817)" fill="#3d2a26"/>
          <path id="Path_35407" data-name="Path 35407" d="M211.36,213.44a54.73,54.73,0,1,0,101.6,0Z" transform="translate(214.754 131.904)" fill="#d55838"/>
          <path id="Path_35408" data-name="Path 35408" d="M311.047,217.53c0,4.437-22.735,8.04-50.884,8.04s-50.884-3.6-50.884-8.04,22.755-8.04,50.884-8.04S311.047,213.093,311.047,217.53Z" transform="translate(216.671 127.814)" fill="#3f2524"/>
          <path id="Path_35409" data-name="Path 35409" d="M303.41,216.463c0,3.277-20.5,5.943-45.8,5.943s-45.8-2.666-45.8-5.943,20.516-5.943,45.8-5.943S303.41,213.166,303.41,216.463Z" transform="translate(219.301 128.88)" fill="#7a5f5a"/>
          <path id="Path_35410" data-name="Path 35410" d="M264.6,224.063c-.122-4.071-6.493-4.071-6.371,0,.285,9.729-.977,19.438-8,26.744-2.85,2.972,1.669,7.49,4.518,4.518C262.912,246.818,264.947,235.5,264.6,224.063Z" transform="translate(258.131 139.741)" fill="#fff" opacity="0.42"/>
          <path id="Path_35411" data-name="Path 35411" d="M261.674,244.037c-12.619,0-53.774-.488-53.774-6.8h2.972a.794.794,0,0,0-.163-.509c1.791,1.811,20.516,4.335,50.884,4.335s49.174-2.524,50.884-4.335a.794.794,0,0,0-.163.509h2.972C315.448,243.548,274.293,244.037,261.674,244.037Z" transform="translate(215.242 156.017)" fill="#3d2a26"/>
          <path id="Path_35412" data-name="Path 35412" d="M205.642,333.856l-2.972-.2,11.378-96.292,2.972.2Z" transform="translate(209.828 156.669)" fill="#3d2a26"/>
          <path id="Path_35413" data-name="Path 35413" d="M268.055,333.669l-9.505-95.905,2.972-.224,9.5,95.926Z" transform="translate(267.683 156.855)" fill="#3d2a26"/>
          <rect id="Rectangle_9614" data-name="Rectangle 9614" width="2.972" height="91.977" transform="matrix(1, -0.02, 0.02, 1, 482.905, 398.579)" fill="#3d2a26"/>
          <path id="Path_35414" data-name="Path 35414" d="M303.348,216.515c0,2.422-11.011,4.5-26.867,5.414l-2.849.143c-1.343,0-2.666.122-4.071.163l-2.768.1h-9.261c-4.234,0-8.345,0-12.212-.2l-2.911-.122c-17.83-.814-30.53-2.992-30.53-5.6s10.686-4.437,26.154-5.373l3.033-.163c4.641-.244,9.607-.387,14.8-.407h2.89c3.155,0,6.228,0,9.179.122l2.788.122c1.547,0,3.053.122,4.559.2.957,0,1.913.122,2.829.142C293.049,212.18,303.348,214.174,303.348,216.515Z" transform="translate(219.363 128.829)" fill="#d55838"/>
          <path id="Path_35415" data-name="Path 35415" d="M270.107,230.814c-5.068,9.79,4.518,19.315,13.677,22.145a42.742,42.742,0,0,0,18.155,1.465c-2.605-3.379-5.088-6.839-7.49-10.36s-5.272-7.022-7.8-10.624c-1.73-2.442-3.623-5.577-2.951-8.711.407-1.832,1.873-4.437,4.071-4.58,4.763-.305,7.144,8.935,8.284,12.212A45,45,0,0,0,310.2,252.449a39.794,39.794,0,0,0,9.4-4.559,38.671,38.671,0,0,0,16.67-25.706c.305-2.035.59-4.7.753-7.816a48.849,48.849,0,0,1-15.631,4.966c-2.809.366-7.918.855-10.177-1.18-2.707-2.4,1.038-5.333,3.44-5.679a38.187,38.187,0,0,1,8.61.509,28.352,28.352,0,0,0,13.311-2.035.753.753,0,0,1,.631,0c.2-10.645-1.119-25.035-6.961-37.532a128.1,128.1,0,0,1-17.992,15.733c-2.768,2.157-5.964,4.987-9.525,5.638-1.384.265-4.335.265-4.905-1.506-1.058-3.338,7.205-7.205,9.4-8.325,7.1-3.6,19.051-6.839,20.231-16.181a.672.672,0,0,1,.143-.346,43.68,43.68,0,0,0-13.576-14.37,47.222,47.222,0,0,0-10.075-5.068c-.448,3.358-.712,11.907-4.376,11.683-2.809-.163-4.071-5.068-3.765-7.205a10.177,10.177,0,0,1,3.541-5.841,38.243,38.243,0,0,0-17.646.1,43.071,43.071,0,0,0-5.76,10.747,40.955,40.955,0,0,0-1.608,13.108c0,1.893.2,6.106-1.832,7.246a3.114,3.114,0,0,1-3.725-1c-2.931-3.786.224-11.968,1.425-15.835a88.617,88.617,0,0,1,4.274-11.866,69.2,69.2,0,0,0-23.915,18.074,52.937,52.937,0,0,0,2.361,7.327c1.425,3.216,3.277,6.106,4.885,9.322a.814.814,0,0,1,.346.387,4.978,4.978,0,0,1,.163.59h0a1.119,1.119,0,0,1,0,.346c.448,2.219-.142,4.946-3.094,3.908s-5.109-5.577-6.554-7.979a41.708,41.708,0,0,1-3.562-7.266c-7.714,10.4-12.863,21.534-14.39,29.35-1.343,6.757-.692,14.492,3.257,20.109a17.911,17.911,0,0,0,7.429-5.17c1.425-1.832,2.2-4.071,4.071-5.719s5.088-1.058,5.109,1.852c0,3.562-3.562,7.368-5.862,9.688a26.055,26.055,0,0,1-5.251,4.335C248.227,234.518,260.256,233.053,270.107,230.814ZM317.755,199.1a5.292,5.292,0,0,1,4.071-4.254c1.71-.285,2.381,1.323,2.361,2.748a8.02,8.02,0,0,1-.224,1.811.773.773,0,0,1,.1.611,5.19,5.19,0,0,1-1.873,3.012,3.664,3.664,0,0,1-.387.407.753.753,0,0,1-1.14-.1h-.407a3.949,3.949,0,0,1-2.5-4.172Zm-57.5,2.035a4.742,4.742,0,0,1,4.7-.448h0a.692.692,0,0,1,.468.509,4.681,4.681,0,0,1-1.18,4.742,2.646,2.646,0,0,1-3.949-.326,3.2,3.2,0,0,1-.041-4.5Z" transform="translate(238.214 62.751)" fill="#605f31"/>
          <path id="Path_35416" data-name="Path 35416" d="M205.635,204.553a65.66,65.66,0,0,1-15.387,3.765v.305a45.9,45.9,0,0,0,2.035,4.864,31.2,31.2,0,0,0,18.623-3.684,29.879,29.879,0,0,1,16.039-3.684.773.773,0,0,1,.672,1.16c-2.259,4.905-9.709,6.106-14.41,6.981a132.148,132.148,0,0,1-19.621,1.771,47.892,47.892,0,0,0,14.247,15.978c.794.57,1.608,1.079,2.422,1.567,7.714.387,15.448-2.972,22.083-6.635,1.913-1.058,7.164-4.315,7.816-.285.753,4.681-4.356,6.981-8.019,7.714-3.358.672-6.818.855-10.177,1.425l-5.129.916c17.015,6.33,44.676,6.106,44.493-21.025,0-.122,25.788,15.184,25.32-14.41-1.119.55-2.259,1.058-3.44,1.547-2.87,1.2-8.528,3.888-11.52,1.689-3.745-2.707.57-7.979,3.094-9.668,3.562-2.341,7.1-3.725,10.177-6.839a69.2,69.2,0,0,0,7.979-9.912,40.706,40.706,0,0,0-.9-14.817c-2.849-10.95-11.7-18.135-21.045-23.691l-.427-.244a37.59,37.59,0,0,1,1.913,9.831c.407,5.719,1.16,11.581-.142,17.26-.875,3.786-4.946,14-10.177,13.108-6.106-1.079,1.465-10.767,2.788-12.843a28.984,28.984,0,0,0,2.035-29.329,141.048,141.048,0,0,0-39.547-13.148,61.061,61.061,0,0,1,9.668,18.318c1.323,4.254,4.539,17.015-2.28,18.847-6.472,1.73-4.783-12.456-5.007-15.163-.753-9.525-5.475-17.178-12.07-23.671-6.106-.977-12.212-1.832-18.176-2.666a.794.794,0,0,0-.957.55c-1.384,6.106-2.788,12.212-4.071,18.2a34.6,34.6,0,0,0,1.221,3.44c.753,1.873,2.626,3.44,3.134,5.373.326,1.262-.285,3.2-1.913,2.931s-2.992-3.114-3.643-4.457l-.224-.427c-1.527,7.653-2.87,15.346-3.847,23.1-.122.855-.224,1.73-.326,2.605a28.006,28.006,0,0,0,13.23,8.915c4.824,1.506,10.177,1.181,14.349,4.539a.794.794,0,0,1,0,1.1c-3.765,4.4-11.032,1.058-15.245-.916a43.638,43.638,0,0,1-12.823-9.4c-1.119,10.482-1.567,21.453,1.343,31.528a65.131,65.131,0,0,0,15.448-3.765C206.164,202.721,206.571,204.207,205.635,204.553Zm8.019-52.919a4.641,4.641,0,0,1-4.315-1.018,3.542,3.542,0,0,1,3.094-6.106,2.972,2.972,0,0,1,2.626,2.463.59.59,0,0,1,.366.488c.244,1.588.041,3.541-1.771,4.152Zm34.153,65.131a2.2,2.2,0,0,1,3.44-.448,4.213,4.213,0,0,1,1.038,2.788.672.672,0,0,1,.143,1.14,2.89,2.89,0,0,1-3.7-.183,2.605,2.605,0,0,1-.916-3.277Zm0-60.877c2.219-1.3,4.946-.59,5.292,2.137a9.832,9.832,0,0,1-1.2,5.6.651.651,0,0,1,0,.346c-.244,1.588-1.119,4.274-3.277,3.216a7.368,7.368,0,0,1-2.951-5.353,5.516,5.516,0,0,1,2.076-5.923Zm-21.8,30.2a2.585,2.585,0,0,1,3.908.366.855.855,0,0,1,1.18.672,3.765,3.765,0,0,1-2.035,4.071,3.236,3.236,0,0,1-3.765-.651A3.46,3.46,0,0,1,226.009,186.092Z" transform="translate(194.223 35.014)" fill="#7f8444"/>
          <path id="Path_35417" data-name="Path 35417" d="M271.308,244.929a40.034,40.034,0,0,0-3.236,9.546h-.183a34.131,34.131,0,0,1-3.134-1.506,19.032,19.032,0,0,1,3.338-11.6,18.318,18.318,0,0,0,3.216-9.953.529.529,0,0,0-.733-.488c-3.379,1.18-4.559,5.841-5.333,8.772a81.531,81.531,0,0,0-2.035,12.212,31.526,31.526,0,0,1-9.892-9.851c-.326-.529-.631-1.079-.916-1.608.122-4.905,2.727-9.627,5.455-13.637.794-1.16,3.216-4.315.57-4.926-3.073-.712-4.844,2.4-5.5,4.681s-.9,4.274-1.425,6.391c-.285,1.058-.57,2.035-.875,3.2-3.358-11.093-1.873-28.495,16.079-27.07,0,0-8.813-17.077,10.767-15.285-.407.672-.814,1.364-1.2,2.035-.936,1.75-2.972,5.19-1.669,7.205,1.608,2.5,5.312,0,6.554-1.486a36.639,36.639,0,0,1,5.007-6.106,46.452,46.452,0,0,1,6.961-4.539,28.841,28.841,0,0,1,9.77,1.3c7.124,2.361,11.459,8.325,14.675,14.512l.142.285a25.808,25.808,0,0,0-6.432-1.71,40.7,40.7,0,0,0-11.418-.773c-2.565.366-9.525,2.422-9.179,5.74.427,3.969,7.205-.387,8.65-1.1a20.008,20.008,0,0,1,19.519.2,86.076,86.076,0,0,1,6.818,25.727,41.56,41.56,0,0,0-11.6-7.042c-2.768-1.058-11.052-3.725-12.6.488s8.019,3.643,9.79,3.928a25.136,25.136,0,0,1,15.1,8.833c.366,3.887.631,7.775.9,11.622a.549.549,0,0,1-.407.59c-4.071.57-8.141,1.14-12.212,1.669-.753-.285-1.506-.611-2.219-.957-1.2-.57-2.157-1.832-3.4-2.239-.834-.285-2.035,0-2.035,1.058s1.913,2.035,2.768,2.524l.265.163c-5.129.57-10.3,1.038-15.489,1.262H292.8a17.789,17.789,0,0,1-5.272-8.813c-.753-3.134-.285-6.554-2.32-9.322a.529.529,0,0,0-.712,0c-3.094,2.157-1.241,6.92-.142,9.688a28.048,28.048,0,0,0,5.618,8.569,56.991,56.991,0,0,1-20.8-2.442,38.161,38.161,0,0,1,3.236-9.566C272.55,244.705,271.593,244.359,271.308,244.929Zm35.435-2.381a2.89,2.89,0,0,0,.468,2.788,2.361,2.361,0,0,0,4.234-1.669A1.913,1.913,0,0,0,309.857,242a.407.407,0,0,0-.305-.265A2.136,2.136,0,0,0,306.743,242.548Zm-41.5-24.974a1.364,1.364,0,0,0,.468-2.158,2.849,2.849,0,0,0-1.791-.794.468.468,0,0,0-.753-.163,2.035,2.035,0,0,0,2.035,3.114Zm40.32,3.114a2.035,2.035,0,0,0-1.181-3.46,6.737,6.737,0,0,0-3.745.468h-.224c-1.079,0-2.89.488-2.3,1.913a4.905,4.905,0,0,0,3.4,2.137,3.806,3.806,0,0,0,4.05-.977ZM284.517,232.9a1.567,1.567,0,0,0,0-2.483.55.55,0,0,0-.387-.794,2.544,2.544,0,0,0-2.829,1.119,2.035,2.035,0,0,0,.244,2.422,2.381,2.381,0,0,0,2.972-.183Z" transform="translate(257.998 108.556)" fill="#7f8444"/>
          <path id="Path_35418" data-name="Path 35418" d="M190.326,218.311c.57.509,1.16.957,1.771,1.4a27.723,27.723,0,0,0,9.078.977c3.643-.244,7.083-1.384,10.665-2.035,2.687-.427,10.645,0,8.752,5.149-1.119,3.134-6.106,3.745-9.627,4.071a47.188,47.188,0,0,1,5.19,2.341,34.214,34.214,0,0,1,10.462,9.22,21.716,21.716,0,0,0,8.365,1.934c2.524,0,3.949-1.262,6.106-2.035,1.791-.692,4.356-.529,3.4,2.28s-5.17,3.134-7.633,3.216a41.436,41.436,0,0,1-5.638-.366,14,14,0,0,0,7.531,3.867c8.141,1.181,14.492-5.719,14.247-14.125,8.426,6.513,19.3,4.193,26.215-2.992a14.247,14.247,0,0,0,4.335-11.581c-4.559,4.885-12.68,11.459-16.283,5.78-1.73-2.748,1.832-4.926,3.643-5.943,3.847-2.2,8.019-3.236,11.561-5.74a106.832,106.832,0,0,0-4.335-14.838,64.482,64.482,0,0,0-7.124-13.84,94.543,94.543,0,0,1-3.155,21.31c-.59,2.158-2.3,7.348-5.19,4.641-4.213-3.969,0-11.072,1.649-14.858a33.828,33.828,0,0,0,1.628-16.975,37.772,37.772,0,0,0-5.394-4.62,50.883,50.883,0,0,0-19.214-7.877c.773,2.035,1.445,4.071,2.035,5.882,1.547,4.518,3.786,10.543,2.87,15.346-.509,2.626-3.908,5.312-5.74,2.035-1.16-2.035-.244-4.946-.448-7.144-.509-5.9-3.541-11.805-6.106-16.975a.672.672,0,0,1-.1-.326l-3.012-.285a91.264,91.264,0,0,0-16.812.2,11.744,11.744,0,0,1,5.394,9.871c-.244,3.46-2.605,7.816-6.35,6.818-5.292-1.425-6.106-9.932-5.353-15.672a48.279,48.279,0,0,0-10.624,3.542,22.063,22.063,0,0,0-10.177,10.38c4.356,5.5,9.871,9.159,15.53,12.924,1.384.916,5.862,3.969,3.3,5.862s-6.94-2.544-8.711-4.071c-4.457-3.582-7.449-8.528-10.848-13.148a32.891,32.891,0,0,0-2.28,9.851,56.34,56.34,0,0,0,.305,13.779c6.106-.244,12.375-5.536,18.074-.733a.855.855,0,0,1,0,1.262c-3.033,2.524-8.141,1.913-11.886,2.2-1.811.163-3.643.285-5.455.387A18.684,18.684,0,0,0,190.326,218.311Zm55.463-9.932a6.737,6.737,0,0,1,1.4-5.536,2.178,2.178,0,0,1,2.035-.753c1.058.326,1.628,1.527,2.035,2.544a.754.754,0,0,1,0,.366,7.185,7.185,0,0,1,.672,4.071c-.183,1.465-.957,3.419-2.564,3.48s-3.277-2.483-3.582-4.172Zm-20.7-14.247A4.437,4.437,0,0,1,223.6,188.7a2.5,2.5,0,0,1,4.071-.916.733.733,0,0,1,.468.163,4.356,4.356,0,0,1,1.2,5.149,2.727,2.727,0,0,1-4.234,1.119Zm12.5,31.12a.753.753,0,0,1,0,1.14,4.071,4.071,0,0,1-.529,4.295,2.951,2.951,0,0,1-4.641-.936,3.48,3.48,0,0,1,5.17-4.417Z" transform="translate(190.094 81.665)" fill="#605f31"/>
          <path id="Path_35419" data-name="Path 35419" d="M247.51,241.862l-2.911-.122a92.522,92.522,0,0,0-3.4-8.691c-.346-.753-.692-1.527-1.079-2.28a105.838,105.838,0,0,0-29.879-36.9c-1.4-1.14.59-3.134,2.035-2.035a108.422,108.422,0,0,1,30.53,37.715,9.707,9.707,0,0,1,.448,1.058A85.749,85.749,0,0,1,247.51,241.862Z" transform="translate(217.173 109.201)" fill="#605f31"/>
          <path id="Path_35420" data-name="Path 35420" d="M254.1,275.525h-2.849c-.529-3.969-1.14-7.938-1.832-11.866-1.16-6.859-2.544-13.677-4.071-20.455-3.216-14.247-6.981-28.495-10.787-42.641-3.725-13.84-7.734-27.62-16.283-39.364-1.1-1.465,1.384-2.87,2.442-1.4,8.141,11.255,12.212,24.424,15.937,37.695,4.295,15.815,8.508,31.65,11.988,47.647,1.343,6.106,2.585,12.314,3.623,18.522C252.982,267.608,253.593,271.576,254.1,275.525Z" transform="translate(225.705 75.721)" fill="#605f31"/>
          <path id="Path_35421" data-name="Path 35421" d="M262.868,185.465a161.561,161.561,0,0,0-9.241,23.325c-.387,1.14-.712,2.28-1.038,3.419h0a218.665,218.665,0,0,0-5.984,27.09c-.59,3.562-1.079,7.185-1.526,10.767l-2.849.143c.468-3.7.957-7.368,1.547-11.052a232.03,232.03,0,0,1,5.129-24.241c.407-1.465.834-2.972,1.282-4.437a175.031,175.031,0,0,1,10.177-26.46C261.22,182.371,263.662,183.816,262.868,185.465Z" transform="translate(250.786 100.691)" fill="#605f31"/>
          <path id="Path_35422" data-name="Path 35422" d="M292.664,216.454c-7.327-4.864-14.655-9.831-22.043-14.634-4.071-2.666-8.141-4.641-13.169-2.829-.488.2-.957.427-1.384.651a16.037,16.037,0,0,0-3.7,2.707,23.206,23.206,0,0,0-3.684,4.681,49.6,49.6,0,0,0-6,19.356c-.529,3.765-.835,7.633-1.038,11.418l-2.768.1c.244-3.806.509-7.755,1.018-11.642,1.221-9.627,3.786-18.908,9.953-25.259a20.943,20.943,0,0,1,3.806-3.094,16,16,0,0,1,3.46-1.689,13.331,13.331,0,0,1,9.424.142c4.274,1.649,8.284,4.966,12.09,7.51l15.408,10.177C295.493,215.07,294.089,217.431,292.664,216.454Z" transform="translate(247.307 113.258)" fill="#605f31"/>
          <path id="Path_35423" data-name="Path 35423" d="M104.57,149.956c.529,2.4,2.5,1.893,4.335,2.972,2.219,1.323,6.35,8.61,9.4,8.548,4.071,0-2.707-5.333-.326-6.106.855-.305,9.444,8.833,8.63,2.748-.183-1.343-4.661-6.35-2.239-5.882,2.2,1.771,6.615,6.452,8.406,4.254.855-1.038-1.445-4.071-2.829-5.17-6.879-5.618-2.626-4.172,1.73-.163,2.259,2.035,4.254,1.18,2.911-1.913-2.768-6.411-11.805-9.24-18.074-9.383C113.871,139.759,103.491,144.583,104.57,149.956Z" transform="translate(108.179 55.722)" fill="#ed8150"/>
          <path id="Path_35424" data-name="Path 35424" d="M84.921,270.54S91.943,282.3,95.3,286.314s.224,6.615.224,6.615l-7.388-2.768-7.856-7.47-9.831-8.61Z" transform="translate(72.934 191.022)" fill="#ed8150"/>
          <path id="Path_35425" data-name="Path 35425" d="M66.127,148.916c5.333,11.154,12.68,25.035,21.7,36.026,6.106,7.571,13.169,13.759,20.862,16.751.305.1.611.224.957.305h0c24.119,8.141,53.346,11.215,53.346,11.215-.285-1.1,5.719-9.871,5.719-9.871-1.913,0-35.415-25.666-43.841-28.149-2.809-.773-44.106-88.212-47.831-90.817-5.088-3.623-10.624-5.7-15.021-2.565C48.46,91.519,52.368,119.973,66.127,148.916Z" transform="translate(55.5 -5.967)" fill="#ed8150"/>
          <path id="Path_35426" data-name="Path 35426" d="M25.19,346.792,39.051,351.7s7.1-14.39,13.393-26.459,48.523-72.682,48.523-72.682C113.626,226.239,85.253,186,85.253,186l-35.13,17.341s11.907,22.084,11.337,23.2c-.936,1.832-2.035,3.786-3.094,5.923a115.059,115.059,0,0,0-12.823,36.29c-1.689,9.647-9.749,39.709-15.224,59.554C27.368,339.078,25.19,346.792,25.19,346.792Z" transform="translate(26.075 103.494)" fill="#ed8150"/>
          <path id="Path_35427" data-name="Path 35427" d="M56.61,204.727s1.384,41.073,3.236,51.087a25.116,25.116,0,0,1,.407,4.071c0,.142,0,.346,0,.529.611,8.874,8.569,35.537,21.473,95.946.122.59.244,1.16.326,1.71a157.659,157.659,0,0,1,2.829,19.885l14.247-5.5s-1.038-13.25-1.669-26.907,5.557-87.153,5.557-87.153c-2.28-29.085-24.831-86.339-24.831-86.339Z" transform="translate(58.605 89.061)" fill="#ed8150"/>
          <path id="Path_35428" data-name="Path 35428" d="M27.71,304.884a1.913,1.913,0,0,0,3.053-1.058c4.539-17.239,9.586-33.848,17.361-49.907C54.739,240.4,60.8,226.971,64.407,212.3a2.137,2.137,0,0,0-2.544-3.257,12.049,12.049,0,0,0-6.106,0,115.058,115.058,0,0,0-12.823,36.29C41.245,254.978,33.185,285.04,27.71,304.884Z" transform="translate(28.684 126.941)" fill="#c9643e"/>
          <path id="Path_35429" data-name="Path 35429" d="M58.42,217.932c.611,8.874,8.569,35.537,21.473,95.946.122.59.244,1.16.326,1.71.794-.407,1.567-4.437,1.71-5.536,3.643-27.782-8.325-55.707-4.58-83.144a64.254,64.254,0,0,1,12.355-10.3c2.035-1.384-.285-4.437-2.28-3.053a71.993,71.993,0,0,0-8.894,7.1c.387-1.628.773-3.236,1.323-4.864.366-1.282-.468-2.931-2.035-2.626C72.2,214.207,64.038,214.634,58.42,217.932Z" transform="translate(60.479 131.584)" fill="#c9643e"/>
          <path id="Path_35430" data-name="Path 35430" d="M23.825,312.327a179.233,179.233,0,0,0,20.353,8.752c24.79,9.2,72.153,23.63,111.232,9.444,3.338-9.444,3.338-25.788,3.338-64.826,0-50.66-22.267-124.868-41.379-145.568C96.2,97.252,42.856,142.8,42.856,142.8a50.7,50.7,0,0,0-15.2,16.608,67.289,67.289,0,0,0-9.017,34.845C18.635,224.38,46.112,246.728,23.825,312.327Z" transform="translate(19.277 28.641)" fill="#f0a145"/>
          <path id="Path_35431" data-name="Path 35431" d="M23.9,298.528a179.233,179.233,0,0,0,20.353,8.752c1.079-2.137,1.872-4.5,2.666-6.411a130.768,130.768,0,0,0,7.246-21.249c2.911-12.8,1.3-25.36-2.524-37.735-8.447-27.4-21.371-78.279,6.859-107,1.038-1.058-15.469-6.778-20.353-7.856C33.281,135.171,17.059,157.8,18.667,180.4,20.845,210.52,46.185,232.929,23.9,298.528Z" transform="translate(19.205 42.439)" fill="#e18930"/>
          <path id="Path_35432" data-name="Path 35432" d="M30.2,174.429a43.923,43.923,0,0,0,3.175-13.25,100.342,100.342,0,0,0,0-20.353c-.224-2.483-.488-4.356-.611-5.251a.977.977,0,0,1,0-.305C28.14,112.27,18.086,85,44.81,76.59a55.26,55.26,0,0,1,11.683-2.219h0a112.556,112.556,0,0,1,16.914,0,163.867,163.867,0,0,1,17.423,7.51c3.175,1.608,6.533,3.46,9.749,5.475,9.627,6.106,11.724,18.155,11.378,26.459-.224,5.74-8.569,21.554-7.9,24.587,1.71,7.755,4.071,23.122,6.554,28.922C115.192,177.849,26.675,182.347,30.2,174.429Z" transform="translate(27.968 -12.409)" fill="#f0a145"/>
          <path id="Path_35433" data-name="Path 35433" d="M87.145,130.406C78.7,136.818,66.792,136.9,56.92,140.583c-8.589,3.318-17.484,11.255-26.459,13.25a100.342,100.342,0,0,0,0-20.353,1.364,1.364,0,0,1,.265-.305c-.265-1.608-.529-3.257-.875-4.946a.834.834,0,0,0,0-.305A40.3,40.3,0,0,1,38.3,117.278C49.369,106.817,48.473,81.09,48.473,81.09c2.524,12.843,1.3,32.565-2.972,40.341a89.878,89.878,0,0,1-8.589,12.619c0,.142.1.265.1.448-.265,4.213,25.686-4.4,28.78-5.19a64.052,64.052,0,0,1,20.883-2.4C88.244,127.028,88.427,129.491,87.145,130.406Z" transform="translate(30.899 -5.124)" fill="#e18930"/>
          <path id="Path_35434" data-name="Path 35434" d="M63.05,73.513V84.28s2.89,5.312,0,5.9c-6.371,1.262-15.57-8.671-15.57-8.671V67Z" transform="translate(49.152 -19.712)" fill="#ed8150"/>
          <path id="Path_35435" data-name="Path 35435" d="M47.48,75.681V67.54s7.917,7.551,15.57,7.979C63.05,75.437,53.83,79.915,47.48,75.681Z" transform="translate(49.152 -19.153)" fill="#c9643e"/>
          <path id="Path_35436" data-name="Path 35436" d="M69.868,54.77a85.768,85.768,0,0,1,7.164,22.389c1.018,7.694-13.067,17.83-24.526,7s-8.3-27.314-8.3-27.314Z" transform="translate(45.347 -32.375)" fill="#ed8150"/>
          <path id="Path_35437" data-name="Path 35437" d="M71.334,267.36s-3.44,2.605-3.134,9.77a55.483,55.483,0,0,1,20.13,23.529c1.547,3.562,12.212,1.3,16.283,1.425,0,0,4.193-1.527,1.282-6.33-1.16-1.913-6.717-4.376-8.141-6.106C95.392,295.122,85.012,286.268,71.334,267.36Z" transform="translate(70.585 187.729)" fill="#332322"/>
          <path id="Path_35438" data-name="Path 35438" d="M68.19,272.16l1.1,23.121,4.05.224,1.221-21.7Z" transform="translate(70.594 192.699)" fill="#332322"/>
          <path id="Path_35439" data-name="Path 35439" d="M39.247,270.05a174.507,174.507,0,0,0-.183,18.725c.59,5.19-3.46,5.638-3.46,5.638l-4.62-6.391-2.442-10.563L25,264.86Z" transform="translate(25.878 185.141)" fill="#ed8150"/>
          <path id="Path_35440" data-name="Path 35440" d="M29.856,260.874s-2.951-.733-6.656,5.414A55.524,55.524,0,0,1,27.026,297c-.672,3.826,9.505,7.856,12.762,10.177,0,0,4.335,1.018,4.559-4.58,0-2.239-3.2-7.348-3.46-9.647C35.962,296.309,30.934,284.178,29.856,260.874Z" transform="translate(24.014 180.986)" fill="#332322"/>
          <path id="Path_35441" data-name="Path 35441" d="M29.215,263.52,17.39,283.426l3.257,2.4L33.612,268.4Z" transform="translate(17.999 183.754)" fill="#332322"/>
          <path id="Path_35442" data-name="Path 35442" d="M21.185,114.2c-.834-1.934,39.872-42.111,55.483-36.209,9.749,3.684,5.76,21.88,3.4,29.777-5.19,17.382-47.993,54.791-46.426,56.074a47.872,47.872,0,0,0,13.169,4.7,227.362,227.362,0,0,0,29.96,2.87c17,.875,33.074.835,33.909,1.14,0,0-4.518,11.907-4.966,12.924,0,0-4.234,1.75-11.154,3.908-17.423,5.394-56.338,8.386-81.312-.794C-9.874,180.084.18,136.67,21.185,114.2Z" transform="translate(-0.003 -8.945)" fill="#ed8150"/>
          <path id="Path_35443" data-name="Path 35443" d="M64.76,141.019a227.366,227.366,0,0,1-29.96-2.87,47.872,47.872,0,0,1-13.169-4.7s17-18.318,24.689-26.459c-1.527-1.323-9.424,3.277-17.728,6.513C21.184,122.254,3.008,131.82,16.38,141,28.348,149.12,65.106,141.854,64.76,141.019Z" transform="translate(12.007 21.448)" fill="#c9643e"/>
          <path id="Path_35444" data-name="Path 35444" d="M51.359,136.7c1.1,2.2,2.89,1.2,4.926,1.791,2.5.712,8.3,6.757,11.235,5.923,3.928-1.1-3.949-4.5-1.832-5.9.753-.489,11.337,6.106,9.037.509-.509-1.242-6.106-4.987-3.643-5.129,2.585,1.16,8.019,4.6,9.2,2.035.57-1.221-2.4-3.562-4.071-4.295-8.141-3.725-3.582-3.4,1.628-.59,2.727,1.465,4.417,0,2.341-2.565-4.274-5.536-13.739-6.106-19.845-4.579C57.812,124.492,48.876,131.8,51.359,136.7Z" transform="translate(52.722 38.444)" fill="#ed8150"/>
          <path id="Path_35445" data-name="Path 35445" d="M59.214,126.972c.977-.387,1.852-1.16,2.788-1.628a7.877,7.877,0,0,0,2.992-2.28c1.079-1.669-.692-2.035-2.035-1.913-2.5.427-6.818,4.5-8.569,6.106a14.043,14.043,0,0,0,4.824-.285Z" transform="translate(56.307 36.33)" fill="#ed8150"/>
          <path id="Path_35446" data-name="Path 35446" d="M43.471,70.869h.244a17.158,17.158,0,0,0,2.87,16.893c3.053,3.5,9.179,9.118,11.825,3.338.733-1.588.142-4.437.387-5.923,1.018-6.106,1.893-9.118,7.124-12.334,9.607-5.9,22.979,8.284,23,6.33.142-10.848-2.626-23.264-23.508-22.1a7.856,7.856,0,0,0-.366-11.011c-4.4-4.213-10.6-1.71-15.306.55-5.129,2.463-10.38,6.106-12.212,11.846C35.818,63.725,37.711,69.547,43.471,70.869Z" transform="translate(38.222 -43.752)" fill="#332322"/>
          <path id="Path_35447" data-name="Path 35447" d="M40.733,62.75c3.318-2.035,5.719-5.19,9.118-7.144s7.307-2.89,10.014-5.821c1.669-1.811,4.356.9,2.707,2.707-2.687,2.911-6.249,4.071-9.668,5.8-3.928,2.035-6.513,5.577-10.177,7.755a1.927,1.927,0,1,1-1.995-3.3Z" transform="translate(41.204 -38.156)" fill="#f0a145"/>
          <path id="Path_35448" data-name="Path 35448" d="M107.29,197.817l37.165,19.193a7.755,7.755,0,0,0,10.421-3.318l29.7-57.478a7.714,7.714,0,0,0-3.318-10.4L144.089,126.6a7.734,7.734,0,0,0-10.421,3.318l-29.7,57.417a7.734,7.734,0,0,0,3.318,10.482Z" transform="translate(106.721 41.099)" fill="#6163a0" fill-rule="evenodd"/>
          <path id="Path_35449" data-name="Path 35449" d="M128.718,131.333a9.607,9.607,0,1,0,12.945-4.071A9.607,9.607,0,0,0,128.718,131.333Zm3.033,1.567a6.106,6.106,0,1,1-.441,4.748,6.106,6.106,0,0,1,.441-4.748Z" transform="translate(132.126 41.556)" fill="#6163a0" fill-rule="evenodd"/>
          <path id="Path_35450" data-name="Path 35450" d="M109.554,192.084l31.181,16.1a6.472,6.472,0,0,0,8.732-2.768l26.582-51.474a6.472,6.472,0,0,0-2.788-8.732l-31.161-16.1a6.472,6.472,0,0,0-8.732,2.768l-26.6,51.474a6.493,6.493,0,0,0,2.788,8.732Z" transform="translate(109.789 43.839)" fill="#fffaf1" fill-rule="evenodd"/>
          <path id="Path_35451" data-name="Path 35451" d="M127.358,137.835l13.678,7.063a2.931,2.931,0,0,0,3.949-1.262l2.035-3.806-18.888-9.77-2.035,3.826a2.931,2.931,0,0,0,1.262,3.949Z" transform="translate(130.209 45.576)" fill="#6163a0" fill-rule="evenodd"/>
          <path id="Path_35452" data-name="Path 35452" d="M119.417,135.587a2.036,2.036,0,0,0,1.018,1.1l33.441,17.219A2.2,2.2,0,0,0,155.91,150l-33.461-17.28a2.2,2.2,0,0,0-2.972.936,2.239,2.239,0,0,0-.061,1.934Z" transform="translate(123.435 48.068)" fill="#c7c1b7"/>
          <path id="Path_35453" data-name="Path 35453" d="M117.939,138.381a2.32,2.32,0,0,0,1.018,1.1l33.461,17.28a2.2,2.2,0,0,0,2.015-3.908l-33.461-17.3a2.2,2.2,0,0,0-2.951.957,2.158,2.158,0,0,0-.081,1.872Z" transform="translate(121.92 51.015)" fill="#c7c1b7"/>
          <path id="Path_35454" data-name="Path 35454" d="M115,144.043a2.32,2.32,0,0,0,1.018,1.1l33.461,17.28a2.2,2.2,0,1,0,2.035-3.908l-33.461-17.28a2.2,2.2,0,0,0-3.033,2.809Z" transform="translate(118.898 56.893)" fill="#c7c1b7"/>
          <path id="Path_35455" data-name="Path 35455" d="M113.532,146.891a2.035,2.035,0,0,0,1,1.079l33.461,17.3a2.219,2.219,0,0,0,2.035-3.928l-33.359-17.28a2.219,2.219,0,0,0-2.972.957A2.158,2.158,0,0,0,113.532,146.891Z" transform="translate(117.393 59.825)" fill="#c7c1b7"/>
          <path id="Path_35456" data-name="Path 35456" d="M112.088,149.713a2.137,2.137,0,0,0,1.018,1.1l33.461,17.28a2.2,2.2,0,0,0,2.015-3.908L115.121,146.9a2.2,2.2,0,0,0-3.033,2.809Z" transform="translate(115.865 62.763)" fill="#c7c1b7"/>
          <path id="Path_35457" data-name="Path 35457" d="M107.67,158.23a2.32,2.32,0,0,0,1.018,1.1l33.461,17.28a2.2,2.2,0,1,0,2.035-3.908l-33.441-17.28a2.178,2.178,0,0,0-2.972.936,2.239,2.239,0,0,0-.1,1.873Z" transform="translate(111.307 71.567)" fill="#c7c1b7"/>
          <path id="Path_35458" data-name="Path 35458" d="M109.172,144.694a10.177,10.177,0,0,0,5.5,2.035,6.493,6.493,0,0,0,2.035-.55c-2.035-.143-2.87-3.338-.59-3.664,3.6-.488,7.531-.957,10.706,1.282a11.663,11.663,0,0,1,4.417,9.363,2.035,2.035,0,0,1-3.562.957c-1.221-1.771-2.28-4.274-4.274-5.068-2.463-.957-4.539.773-6.859,1.282a30.694,30.694,0,0,1-14.817-2.687C99.586,146.3,107.076,143.412,109.172,144.694Z" transform="translate(104.92 58.053)" fill="#ed8150"/>
          <path id="Path_35459" data-name="Path 35459" d="M127.672,94.92a2.32,2.32,0,0,1,1.872-1.628,4.7,4.7,0,0,1-1.14-3.664c.407-1.71,1.547-2.035,3.094-1.832a4.071,4.071,0,0,1,.834.122,1.623,1.623,0,0,1,0-.305,1.262,1.262,0,0,1,1-.855,12.375,12.375,0,0,1,7.164,1.811c6.371,3.155,9.871,2.972,12.212,2.178-1.608-1.811-1.872-2.341-3.46-2.626a2.483,2.483,0,0,1-2.035-1.649c-.285-1.119.468-1.628,1.262-2.035a16.14,16.14,0,0,1,5.679,0,3.724,3.724,0,0,1,2.666,1.588,23.345,23.345,0,0,1,3.623,22.389c-.712,1.649-10.4,4.356-10.462,3.908a32.565,32.565,0,0,1-.9-7.856c-6.717.936-14.1.366-14.512-3.2C130.583,100.334,126.512,98.421,127.672,94.92Z" transform="translate(131.971 -1.919)" fill="#ed8150"/>
          <path id="Path_35460" data-name="Path 35460" d="M177.759,267.839c1.73-1.689,17.687,1.852,17.728,2.829.142,3.033-.509,14.532-2.219,15.835s-17.789-.753-17.769-3.664C175.541,280.316,176.111,269.447,177.759,267.839Z" transform="translate(181.697 187.759)" fill="#ed8150"/>
          <path id="Path_35461" data-name="Path 35461" d="M210.863,275.792s6.106,11.581-.224,19.315c0,0-39.1-2.951-50.619-6.208,0,0,1.465-14.37,11.663-14.37a149.981,149.981,0,0,1,20.252,1.608S202.579,282.814,210.863,275.792Z" transform="translate(165.67 195.153)" fill="#40456f"/>
          <path id="Path_35462" data-name="Path 35462" d="M240.349,267.831c.407-2.381,15.408-8.874,16.018-8.141,1.893,2.381,8.141,12.049,7.49,14.125S249,283.645,247.33,281.264C245.865,279.228,239.963,270.11,240.349,267.831Z" transform="translate(248.82 179.728)" fill="#ed8150"/>
          <path id="Path_35463" data-name="Path 35463" d="M270.07,264.84s11.785,5.78,11.174,15.774c0,0-33.4,20.557-44.635,24.668,0,0-7.266-12.477,1.018-18.461a149.306,149.306,0,0,1,17.341-10.584S267.486,275.342,270.07,264.84Z" transform="translate(241.915 185.12)" fill="#40456f"/>
          <path id="Path_35464" data-name="Path 35464" d="M235.877,125.068a53.47,53.47,0,0,1-.529,11.663c-2.32,16.1-12.7,43.129-56.033,46.121C142.21,185.416,137,124.884,137,124.884c3.216-3.847,17.362-6.289,17.362-6.289,4.966,12.782,17.769,30.53,23.2,27.5s37.9-64.928,57.967-74.229C247.743,66.226,235.877,125.068,235.877,125.068Z" transform="translate(141.836 -15.071)" fill="#6163a0"/>
          <path id="Path_35465" data-name="Path 35465" d="M242.774,200.476c-1.038,2.768-2.178,5.679-3.338,8.671-7.958,20.455-17.728,44.31-18.725,56.7-1.832,23.04-12.6,79.216-12.5,106.428.142,22.389-6.106,37.369-5.7,42.5l-20.231-3.908c-7.775-31.955-15.733-109.4-15.733-144.509s3.033-93.382,15.9-121.083c12.212-26.317,61.06,21.534,66.78,27.986C251.281,175.828,247.821,186.737,242.774,200.476Z" transform="translate(172.431 53.216)" fill="#3f2524"/>
          <path id="Path_35466" data-name="Path 35466" d="M229.225,172.515a1.791,1.791,0,0,0-1.771-.142c-4.946-6.595-15.611-13.047-21.249-3.46-3.175,5.373.448,11.724.773,17.3.712,11.235-6.411,21.33-10.808,31.181-15.631,35.089-2.931,73.822-7.225,110.5-2.2,19.214-11.317,37.735-9.81,57.336,4.905,2.239,11.927,3.908,15.611,1.852,1.873-7.551,11.174-125.744,13.006-148.784,1-12.4,10.767-36.25,18.725-56.7,1.16-2.992,2.3-5.9,3.338-8.671C229.632,172.779,229.408,172.678,229.225,172.515Z" transform="translate(185.288 80.77)" fill="#2e1b1a"/>
          <path id="Path_35467" data-name="Path 35467" d="M200,163.765v3.5c.346,14.247,2.035,69.466,8.141,123.5,3.949,34.8,48.156,91.875,77.343,114.163l16.079-8.671,3.623-1.913s-17.992-32.566-26.744-46.121c-22.735-35.028-17.911-55.382-18.033-78.5-.285-47.607,12.09-70.83-.875-106.225-.59-1.628-1.262-3.277-2.035-4.946a151.215,151.215,0,0,0-9.688-18.949,4.844,4.844,0,0,0-2.768-2.035,12.212,12.212,0,0,0-5.312-.346c-9.037,1.079-23.529,8.711-36.026,22.083C202.463,160.732,201.16,162.218,200,163.765Z" transform="translate(207.063 52.843)" fill="#3f2524"/>
          <path id="Path_35468" data-name="Path 35468" d="M170.84,216.472c.55,1.73,45.368,16.283,59.269,18.318,14.939,2.32,33.095-.916,45.958-1.506,9.871-.468,17-1.73,17.952-3.725,2.035-4.193-2.035-41.134-1.221-68.347.142-4.4.224-8.813.265-13.209.265-28.312-1.588-55.484-7.958-60.389-1.4-1.1-3.033-2.239-4.844-3.46a90.205,90.205,0,0,0-9.363-5.618,87.52,87.52,0,0,0-19.275-7.429,79.847,79.847,0,0,0-38.488-.611h0a79.049,79.049,0,0,0-10.624,3.175l-2.585.957c-12.131,4.946-10.441,31.283-8.406,53.367a210.306,210.306,0,0,1,1.445,25.4,50.539,50.539,0,0,1-.733,5.821C189.484,175.419,172.875,204.647,170.84,216.472Z" transform="translate(176.873 -18.223)" fill="#e0dace"/>
          <path id="Path_35469" data-name="Path 35469" d="M217.038,68.8l1.75.224L213.028,82.7l-11.011-8.141L191.84,80.665l7-11.52s4.6-1.242,6.574-.366.936,4.315.936,4.315Z" transform="translate(198.615 -18.194)" fill="#c7c1b7"/>
          <path id="Path_35470" data-name="Path 35470" d="M197.47,65.978V77.8s-2.788,5.129,0,5.7c6.106,1.221,15.021-5.679,15.021-5.679V59.75Z" transform="translate(203.161 -27.219)" fill="#ed8150"/>
          <path id="Path_35471" data-name="Path 35471" d="M211.271,68.726V62.62a27.416,27.416,0,0,1-13.861,5.76S204.574,73.57,211.271,68.726Z" transform="translate(204.382 -24.247)" fill="#c9643e"/>
          <path id="Path_35472" data-name="Path 35472" d="M194.47,52.357a82.961,82.961,0,0,0-1.628,22.694c.794,7.429,16.283,13.759,24.587,1s1.547-27.559,1.547-27.559Z" transform="translate(199.465 -38.877)" fill="#ed8150"/>
          <path id="Path_35473" data-name="Path 35473" d="M191.421,56.454c6.33,6.8,19.092,5.129,28.617,3.46,0,1.018.143,2.035.163,2.849.122,3.6-1,8.243.936,11.52a4.539,4.539,0,0,0,6.228,1.811,3.908,3.908,0,0,0,2.035-3.338c3.033-6.717,1.486-17.891-3.5-22.592-3.155-2.972-7.1-3.277-11.235-3.338a25.279,25.279,0,0,1-9.342-1.3,17.768,17.768,0,0,0-5.455-1.73C191.971,43.305,184.908,49.533,191.421,56.454Z" transform="translate(195.533 -43.767)" fill="#3f2b2a"/>
          <path id="Path_35474" data-name="Path 35474" d="M209.739,70l-1.75-2.483a26.7,26.7,0,0,1-4.681,5.272,6.879,6.879,0,0,0-2.727,4.4Z" transform="translate(207.664 -19.174)" fill="#c7c1b7"/>
          <path id="Path_35475" data-name="Path 35475" d="M199.532,71.42l4.783,3.562-4.132,4.661-4.274-.265-1.669-4.722Z" transform="translate(201.1 -15.136)" fill="#40456f"/>
          <path id="Path_35476" data-name="Path 35476" d="M214.061,69.77s6.737,155.745-6.941,173.635c0,0,40.89-.59,53.815-6.737,0,0-8.874-148.255-18.318-153.852S222.426,70.686,214.061,69.77Z" transform="translate(214.435 -16.844)" fill="#6163a0"/>
          <path id="Path_35477" data-name="Path 35477" d="M199.459,75.33s-11.357,26.622-8.04,55.891l8.04,8.508,6.106-7.124s-5.984-37.959-1.832-56.99Z" transform="translate(197.55 -11.088)" fill="#40456f"/>
          <path id="Path_35478" data-name="Path 35478" d="M222.081,60.647a7.008,7.008,0,0,1,.55-.55c1.608-1.852-1.425-4.213-3.033-2.381a15.611,15.611,0,0,1-6.961,4.824c-3.806,1.262-5.618.183-8.141-2.157a2.035,2.035,0,0,0-2.788.224c-2.32,2.605-8.935-1.018-9.749,3.012-.651,3.2,3.033,8.833,7.083,10.034,10.747,3.216,18.44-3.643,24.424-10.034a1.811,1.811,0,0,0-1.384-2.972Z" transform="translate(198.659 -30.009)" fill="#3f2b2a"/>
          <path id="Path_35479" data-name="Path 35479" d="M191.728,73.15s-12.863,10.319-12.212,31.894c1.221,45.388-4.946,66.047-4.946,66.047l17.219-9.179,5.292-38.672Z" transform="translate(180.734 -13.345)" fill="#40456f"/>
          <path id="Path_35480" data-name="Path 35480" d="M211.361,69.946s-7.714,52.614-7.083,71.359-18.746,86.645-18.746,86.645L169.25,221.5s13.515-47.627,18.115-61.06,0-76.244,9.831-83.978S211.361,69.946,211.361,69.946Z" transform="translate(175.226 -16.735)" fill="#6163a0"/>
          <path id="Path_35481" data-name="Path 35481" d="M225.468,283.864c4.234,19.641,9.953,40.585,18.725,58.74,7.856,16.1,21.269,28.23,34.357,40.218l3.623-1.913s-17.992-32.565-26.744-46.121c-22.735-35.028-17.911-55.382-18.033-78.5-.285-47.607,12.09-70.83-.875-106.225-3.542.814-6.941,2.035-9.485,2.809a1.343,1.343,0,0,0-.834.651,1.4,1.4,0,0,0-.631,1.73c6.778,22.877,4.233,44.33-.183,67.289a148.58,148.58,0,0,0,.081,61.325Z" transform="translate(230.077 66.283)" fill="#2e1b1a"/>
          <path id="Path_35482" data-name="Path 35482" d="M223.137,79.684c-.183.326-9.81,10.38-6.106,28.19,3.053,14.736,9.79,26.256,12.843,40.992,2.992,14.247,1.547,28.312.305,42.742-.59,6.7-1.221,13.413-1.771,20.13-.305,3.46-1.628,16.649.142,19.824,9.871-.488,22.043-2.87,23.02-4.864,1.934-4.213-6.513-49.581-5.7-76.794.142-4.4.224-8.813.265-13.209a41.254,41.254,0,0,0-2.218-4.071c-6.452-10.828-7.694-36.636-15.448-46.609C227.045,84.183,222.079,77.873,223.137,79.684Z" transform="translate(223.819 -6.914)" fill="#40456f"/>
          <path id="Path_35483" data-name="Path 35483" d="M194.376,97.35s10.5-.142,13.82,12.517-10.889,16.629-16.751,15.977-15.815-6.778-15.815-6.778L175,107.018l4.905-4.783,9.22-3.684Z" transform="translate(181.18 11.71)" fill="#c7c1b7" fill-rule="evenodd"/>
          <path id="Path_35484" data-name="Path 35484" d="M176.249,199.537l42.864-5.719a6.371,6.371,0,0,0,5.475-7.205l-10.665-78.218a6.371,6.371,0,0,0-7.164-5.5l-42.864,5.719a6.371,6.371,0,0,0-5.475,7.164L169.084,194a6.391,6.391,0,0,0,7.164,5.536Z" transform="translate(163.954 17.397)" fill="#fffaf1" fill-rule="evenodd"/>
          <path id="Path_35485" data-name="Path 35485" d="M174.488,199.235l42.864-5.7a6.411,6.411,0,0,0,5.5-7.164l-10.665-78.218a6.391,6.391,0,0,0-7.164-5.5l-42.864,5.7a6.391,6.391,0,0,0-5.5,7.185l10.665,78.218a6.371,6.371,0,0,0,7.164,5.475Z" transform="translate(162.131 17.149)" fill="#894731" fill-rule="evenodd"/>
          <path id="Path_35486" data-name="Path 35486" d="M217.143,97.35l-52.919,5.109c-4.681.448-7.734,4.641-9.261,9.1-2.4,6.961-3.562,18.461,2.422,36.636l52.776-8.141s-7.47-19.723-3.786-30.693S217.143,97.35,217.143,97.35Z" transform="translate(158.413 11.71)" fill="#fffaf1" fill-rule="evenodd"/>
          <path id="Path_35487" data-name="Path 35487" d="M201.828,125.548c-5.638-2.157-14.756-2.911-19.56,1.832-2.32,2.28-.875,3.806,1.913,2.768,5.353-2.035,9.668-1.75,1.486.753-1.649.509-4.8,2.361-4.417,3.6.814,2.605,6.452,0,9.057-.753,2.341.448-3.48,3.318-4.071,4.437-2.951,5.149,8.141,0,8.711.692,1.832,1.608-6.106,3.847-2.524,5.394,2.707,1.181,9.037-3.847,11.5-4.213,2.035-.305,3.623.875,4.966-1.1C211.821,134.606,204.23,126.464,201.828,125.548Z" transform="translate(187.507 39.158)" fill="#ed8150"/>
          <path id="Path_35488" data-name="Path 35488" d="M197.363,129.094c-1.465-1.832-5.068-6.269-7.409-7-1.282-.387-3.033-.163-2.218,1.567a7.368,7.368,0,0,0,2.565,2.565c.834.57,1.588,1.425,2.463,1.913a14.248,14.248,0,0,0,4.6.957Z" transform="translate(194.15 37.159)" fill="#ed8150"/>
          <path id="Path_35489" data-name="Path 35489" d="M318.726,207.79C301.649,235.145,192.29,188.76,192.29,188.76l2.035-10.93c1.14-.265,84.854,10.767,85,1.913,0-3.867-30.388-52.715-34.743-71.237a40.32,40.32,0,0,1,2.035-23.63c3.175-8.671,13.169-9.994,21.269-5.618,16.446,8.915,36.636,30.347,48.319,53.509C329.106,158.229,333.461,184.18,318.726,207.79Z" transform="translate(199.081 -9.541)" fill="#6163a0"/>
          <rect id="Rectangle_9619" data-name="Rectangle 9619" width="533.26" height="4.05" transform="translate(6.711 490.097)" fill="#745751"/>
        </g>
      </g>
    </g>
  </g>
</svg>
