<?xml version="1.0" encoding="utf-8"?>
<!-- Generator: Adobe Illustrator 27.9.0, SVG Export Plug-In . SVG Version: 6.00 Build 0)  -->
<svg version="1.1" id="Camada_1" xmlns="http://www.w3.org/2000/svg" xmlns:xlink="http://www.w3.org/1999/xlink" x="0px" y="0px"
	 viewBox="0 0 200 200" style="enable-background:new 0 0 200 200;" xml:space="preserve">
<style type="text/css">
	.st0{fill:#2480BE;}
	.st1{fill:none;stroke:#FFFFFF;stroke-miterlimit:10;}
	.st2{fill:none;stroke:#2580BE;stroke-miterlimit:10;}
	.st3{clip-path:url(#SVGID_00000039130994120291903380000001529129404294992805_);}
	.st4{fill:#2580BE;}
	.st5{opacity:0.6;fill:#FFFFFF;stroke:#2580BE;stroke-miterlimit:10;}
	.st6{clip-path:url(#SVGID_00000075131387280019883570000010001373400454589355_);fill:#2580BE;}
	.st7{clip-path:url(#SVGID_00000075131387280019883570000010001373400454589355_);}
	.st8{fill:#A3D4EF;}
	.st9{fill:#FFFFFF;}
	.st10{fill:#202535;}
	.st11{fill:#0D131E;}
	.st12{fill:#F7C650;}
	.st13{fill:#595858;}
	.st14{fill:#2F80C2;}
	.st15{fill:#343434;}
	.st16{fill:none;}
	.st17{fill:#0D639F;}
	.st18{fill:#2678AD;}
	.st19{opacity:0.2;}
	.st20{fill:#A4CBE4;}
	.st21{fill:#04131E;}
	.st22{fill:#192635;}
	.st23{fill:#EEBB4F;}
	.st24{fill:#5C5A5A;}
	.st25{fill:#2580BE;stroke:#2580BE;stroke-miterlimit:10;}
	.st26{fill:none;stroke:#FFFFFF;stroke-linecap:round;stroke-linejoin:round;stroke-miterlimit:7.3333;}
	.st27{fill:none;stroke:#2580BE;stroke-linecap:round;stroke-linejoin:round;stroke-miterlimit:10;}
	.st28{fill:none;stroke:#343434;stroke-width:0.5;stroke-linecap:round;stroke-linejoin:round;stroke-miterlimit:10;}
	.st29{fill:#2580BE;stroke:#FFFFFF;stroke-miterlimit:10;}
	.st30{fill:#F1F1F1;}
	.st31{fill:#E9E9E9;}
	.st32{fill:none;stroke:#0080AE;stroke-width:1.5;stroke-linecap:round;stroke-linejoin:round;stroke-miterlimit:10;}
	.st33{fill:#F7F7F7;}
	.st34{fill:#1A1A1A;}
	.st35{fill:#333333;}
	.st36{clip-path:url(#SVGID_00000085972294333762854590000005313649988265645702_);}
	.st37{fill:url(#SVGID_00000069389582397879812210000017139280394617769609_);}
	.st38{fill:#2F80AB;}
	
		.st39{clip-path:url(#SVGID_00000085972294333762854590000005313649988265645702_);fill:none;stroke:#0080AE;stroke-width:1.5;stroke-linecap:round;stroke-linejoin:round;stroke-miterlimit:10;}
	.st40{clip-path:url(#SVGID_00000105396802057736556650000011740184180693415856_);}
	.st41{clip-path:url(#SVGID_00000137847798783210096480000006293302068044935100_);}
	.st42{fill:#C6C6C6;}
	.st43{clip-path:url(#SVGID_00000098903025755649153440000010803103758351084984_);}
	.st44{fill:#3C4D72;}
	.st45{clip-path:url(#SVGID_00000091017612895162513600000006210049689214905776_);}
	.st46{clip-path:url(#SVGID_00000034052170056071900540000002953466393081703836_);}
	.st47{fill:none;stroke:#0080AE;stroke-miterlimit:10;}
	.st48{fill:none;stroke:#343434;stroke-miterlimit:10;}
	.st49{fill:#323232;}
	.st50{fill:#FFFFFF;stroke:#FFFFFF;stroke-miterlimit:10;}
</style>
<g>
	<g>
		<path class="st50" d="M74.7,93.7v19"/>
		<path class="st50" d="M125.3,93.7v19"/>
		<path class="st50" d="M84.2,90.5h31.7v25.3c0,1.7-1.4,3.2-3.2,3.2H87.3c-1.7,0-3.2-1.4-3.2-3.2V90.5c0-8.7,7.1-15.8,15.8-15.8
			s15.8,7.1,15.8,15.8"/>
		<path class="st50" d="M87.3,71.5l3.2,6.3"/>
		<path class="st50" d="M112.7,71.5l-3.2,6.3"/>
		<path class="st50" d="M90.5,119v9.5"/>
		<path class="st50" d="M109.5,119v9.5"/>
	</g>
	<g>
		<path class="st1" d="M126.7,29H73.3C66,29,60,36.1,60,44.8v110.4c0,8.7,6,15.8,13.3,15.8h53.3c7.4,0,13.3-7.1,13.3-15.8V44.8
			C140,36.1,134,29,126.7,29z M100,163c-2.3,0-4.1-1.8-4.1-4c0-2.2,1.8-4,4.1-4s4.1,1.8,4.1,4C104.1,161.2,102.3,163,100,163z
			 M108.7,41.4H91.3c-1.1,0-2-0.9-2-2c0-1.1,0.9-2,2-2h17.4c1.1,0,2,0.9,2,2C110.7,40.5,109.8,41.4,108.7,41.4z"/>
	</g>
</g>
</svg>
