<?xml version="1.0" encoding="utf-8"?>
<!-- Generator: Adobe Illustrator 27.9.0, SVG Export Plug-In . SVG Version: 6.00 Build 0)  -->
<svg version="1.1" id="Camada_1" xmlns="http://www.w3.org/2000/svg" xmlns:xlink="http://www.w3.org/1999/xlink" x="0px" y="0px"
	 viewBox="0 0 200 200" style="enable-background:new 0 0 200 200;" xml:space="preserve">
<style type="text/css">
	.st0{fill:#2480BE;}
	.st1{fill:none;stroke:#FFFFFF;stroke-miterlimit:10;}
	.st2{fill:none;stroke:#2580BE;stroke-miterlimit:10;}
	.st3{clip-path:url(#SVGID_00000071528599147802244570000002468061783028331688_);}
	.st4{fill:#2580BE;}
	.st5{opacity:0.6;fill:#FFFFFF;stroke:#2580BE;stroke-miterlimit:10;}
	.st6{clip-path:url(#SVGID_00000111165850903650912790000017382502827495741110_);fill:#2580BE;}
	.st7{clip-path:url(#SVGID_00000111165850903650912790000017382502827495741110_);}
	.st8{fill:#A3D4EF;}
	.st9{fill:#FFFFFF;}
	.st10{fill:#202535;}
	.st11{fill:#0D131E;}
	.st12{fill:#F7C650;}
	.st13{fill:#595858;}
	.st14{fill:#2F80C2;}
	.st15{fill:#343434;}
	.st16{fill:none;}
	.st17{fill:#0D639F;}
	.st18{fill:#2678AD;}
	.st19{opacity:0.2;}
	.st20{fill:#A4CBE4;}
	.st21{fill:#04131E;}
	.st22{fill:#192635;}
	.st23{fill:#EEBB4F;}
	.st24{fill:#5C5A5A;}
	.st25{fill:#2580BE;stroke:#2580BE;stroke-miterlimit:10;}
	.st26{fill:none;stroke:#FFFFFF;stroke-linecap:round;stroke-linejoin:round;stroke-miterlimit:7.3333;}
	.st27{fill:none;stroke:#2580BE;stroke-linecap:round;stroke-linejoin:round;stroke-miterlimit:10;}
	.st28{fill:none;stroke:#343434;stroke-width:0.5;stroke-linecap:round;stroke-linejoin:round;stroke-miterlimit:10;}
	.st29{fill:#2580BE;stroke:#FFFFFF;stroke-miterlimit:10;}
	.st30{fill:#F1F1F1;}
	.st31{fill:#E9E9E9;}
	.st32{fill:none;stroke:#0080AE;stroke-width:1.5;stroke-linecap:round;stroke-linejoin:round;stroke-miterlimit:10;}
	.st33{fill:#F7F7F7;}
	.st34{fill:#1A1A1A;}
	.st35{fill:#333333;}
	.st36{clip-path:url(#SVGID_00000016781286735384117600000001053504096042884017_);}
	.st37{fill:url(#SVGID_00000074442977186043174150000005321260800301208212_);}
	.st38{fill:#2F80AB;}
	
		.st39{clip-path:url(#SVGID_00000016781286735384117600000001053504096042884017_);fill:none;stroke:#0080AE;stroke-width:1.5;stroke-linecap:round;stroke-linejoin:round;stroke-miterlimit:10;}
	.st40{clip-path:url(#SVGID_00000165213867167282002070000011216318344973708698_);}
	.st41{clip-path:url(#SVGID_00000100384427767527104490000000591918828583170981_);}
	.st42{fill:#C6C6C6;}
	.st43{clip-path:url(#SVGID_00000095337818697499226440000012578321243353997716_);}
	.st44{fill:#3C4D72;}
	.st45{clip-path:url(#SVGID_00000028289392323248730800000010065001955560608132_);}
	.st46{clip-path:url(#SVGID_00000027596879086889789890000006069890012697857726_);}
	.st47{fill:none;stroke:#0080AE;stroke-miterlimit:10;}
	.st48{fill:none;stroke:#343434;stroke-miterlimit:10;}
	.st49{fill:#323232;}
	.st50{fill:#FFFFFF;stroke:#FFFFFF;stroke-miterlimit:10;}
</style>
<g>
	<g>
		<path class="st1" d="M180.7,145.6c0,2.9-2.3,5.2-5.2,5.2h-151c-2.9,0-5.2-2.3-5.2-5.2v-112c0-2.9,2.3-5.2,5.2-5.2h151
			c2.9,0,5.2,2.3,5.2,5.2V145.6z"/>
		<line class="st1" x1="19.3" y1="129.9" x2="180.7" y2="129.9"/>
		<line class="st1" x1="74" y1="171.6" x2="126" y2="171.6"/>
		<line class="st1" x1="84.4" y1="171.6" x2="84.4" y2="153.4"/>
		<line class="st1" x1="115.6" y1="171.6" x2="115.6" y2="153.4"/>
	</g>
	<g>
		<path class="st9" d="M91.8,70.3c-7.8,0-10.3,7.8-10.3,14.2c0,7.8,5.2,19.4,10.3,19.4c2.8-0.1,4.3-1.3,7.8-1.3
			c3.4,0,3.9,1.3,7.8,1.3s10.3-7.8,10.3-12.9c-0.1,0-6.4-1-6.5-7.8c0-5.6,6.2-7.6,6.5-7.8c-2.6-3.9-7.6-5.1-9.1-5.2
			c-3.7-0.3-7.3,2.6-9.1,2.6C97.8,72.9,94.7,70.3,91.8,70.3z"/>
		<path class="st9" d="M96.5,67.1c5.4,0,9.8-4.4,9.8-9.8C100.8,57.4,96.5,61.7,96.5,67.1"/>
	</g>
</g>
</svg>
