<svg width="121" height="41" viewBox="0 0 121 41" fill="none" xmlns="http://www.w3.org/2000/svg">
    <g clip-path="url(#laf9nznrda)">
        <path d="M110.803.967h-100.6c-.367 0-.73 0-1.095.002-.306.002-.61.008-.919.013-.672.008-1.341.067-2.004.176a6.665 6.665 0 0 0-1.9.627A6.437 6.437 0 0 0 .861 6.488 12.993 12.993 0 0 0 .683 8.49c-.01.307-.01.615-.015.921v23.114c.005.311.006.612.015.922.008.671.068 1.34.18 2.002.11.663.32 1.306.624 1.905.303.598.701 1.143 1.179 1.614.473.477 1.019.875 1.618 1.179a6.7 6.7 0 0 0 1.901.63c.663.11 1.333.168 2.004.177.31.007.613.01.919.01.366.003.728.003 1.095.003h100.6c.359 0 .724 0 1.084-.002.304 0 .617-.004.922-.01.67-.01 1.338-.068 2-.178a6.815 6.815 0 0 0 1.908-.63 6.293 6.293 0 0 0 1.617-1.18 6.405 6.405 0 0 0 1.182-1.613c.302-.6.51-1.242.619-1.905.111-.661.173-1.33.185-2.002.004-.31.004-.611.004-.922.008-.363.008-.724.008-1.093V10.503c0-.366 0-.73-.008-1.092 0-.306 0-.614-.004-.92a13.57 13.57 0 0 0-.185-2.003 6.648 6.648 0 0 0-.619-1.903 6.469 6.469 0 0 0-2.799-2.8 6.78 6.78 0 0 0-1.908-.627c-.661-.11-1.33-.17-2-.177-.305-.004-.618-.01-.922-.012-.36-.002-.725-.002-1.084-.002z" fill="#fff"/>
        <path d="M9.113 40.092c-.305 0-.602-.004-.904-.01a12.696 12.696 0 0 1-1.87-.164 5.884 5.884 0 0 1-1.656-.548 5.406 5.406 0 0 1-1.397-1.017 5.321 5.321 0 0 1-1.02-1.396 5.721 5.721 0 0 1-.544-1.657 12.413 12.413 0 0 1-.166-1.875c-.007-.211-.015-.913-.015-.913v-23.1s.009-.692.015-.895a12.37 12.37 0 0 1 .165-1.872 5.755 5.755 0 0 1 .544-1.663 5.565 5.565 0 0 1 4.07-2.964c.62-.101 1.248-.156 1.876-.164l.902-.012h102.769l.913.012a12.37 12.37 0 0 1 1.858.163 5.932 5.932 0 0 1 1.671.548 5.589 5.589 0 0 1 2.415 2.42 5.74 5.74 0 0 1 .535 1.649c.104.624.162 1.255.174 1.887.003.283.003.587.003.89.008.375.008.732.008 1.092v20.929c0 .363 0 .717-.008 1.075 0 .325 0 .623-.004.93-.011.62-.069 1.24-.171 1.853a5.716 5.716 0 0 1-.54 1.67 5.47 5.47 0 0 1-1.015 1.386 5.414 5.414 0 0 1-1.4 1.022 5.855 5.855 0 0 1-1.668.55c-.618.101-1.243.156-1.869.163-.293.007-.599.01-.897.01l-1.084.003-101.69-.002z" fill="#000"/>
        <path d="M25.437 21.268a4.949 4.949 0 0 1 2.357-4.152 5.066 5.066 0 0 0-3.992-2.158c-1.679-.176-3.307 1.005-4.162 1.005-.873 0-2.19-.988-3.609-.958a5.315 5.315 0 0 0-4.473 2.727c-1.934 3.349-.491 8.27 1.361 10.977.927 1.325 2.01 2.805 3.428 2.753 1.387-.058 1.905-.885 3.58-.885 1.658 0 2.144.885 3.59.851 1.489-.024 2.426-1.33 3.32-2.669a10.963 10.963 0 0 0 1.52-3.092 4.782 4.782 0 0 1-2.92-4.4zM22.706 13.178a4.872 4.872 0 0 0 1.114-3.491 4.957 4.957 0 0 0-3.207 1.66 4.635 4.635 0 0 0-1.144 3.361 4.099 4.099 0 0 0 3.236-1.53zM42.97 28.107h-4.733l-1.136 3.356h-2.005l4.483-12.418h2.083l4.483 12.418h-2.039l-1.135-3.357zm-4.242-1.55h3.752l-1.85-5.447h-.052l-1.85 5.448zM55.828 26.937c0 2.813-1.506 4.62-3.778 4.62a3.07 3.07 0 0 1-2.849-1.583h-.043v4.484H47.3V22.41h1.799v1.506h.034a3.213 3.213 0 0 1 2.883-1.6c2.297 0 3.812 1.816 3.812 4.622zm-1.91 0c0-1.833-.947-3.038-2.393-3.038-1.42 0-2.375 1.23-2.375 3.038 0 1.824.956 3.046 2.375 3.046 1.446 0 2.393-1.197 2.393-3.046zM65.793 26.937c0 2.813-1.506 4.62-3.778 4.62a3.07 3.07 0 0 1-2.849-1.583h-.043v4.484h-1.858V22.41h1.798v1.506h.035a3.213 3.213 0 0 1 2.883-1.6c2.297 0 3.812 1.816 3.812 4.622zm-1.91 0c0-1.833-.947-3.038-2.393-3.038-1.42 0-2.375 1.23-2.375 3.038 0 1.824.955 3.046 2.375 3.046 1.446 0 2.393-1.197 2.393-3.046zM72.379 28.003c.138 1.231 1.334 2.04 2.969 2.04 1.566 0 2.693-.809 2.693-1.919 0-.964-.68-1.541-2.289-1.936l-1.61-.388c-2.28-.551-3.338-1.617-3.338-3.348 0-2.142 1.867-3.614 4.518-3.614 2.624 0 4.423 1.472 4.484 3.614H77.93c-.113-1.24-1.137-1.987-2.634-1.987-1.497 0-2.522.757-2.522 1.858 0 .878.655 1.395 2.255 1.79l1.368.336c2.548.603 3.607 1.626 3.607 3.443 0 2.323-1.85 3.778-4.794 3.778-2.754 0-4.613-1.421-4.733-3.667h1.902zM84.015 20.267v2.142h1.721v1.472h-1.721v4.991c0 .776.344 1.137 1.101 1.137a5.81 5.81 0 0 0 .612-.043v1.463c-.34.063-.687.092-1.033.086-1.833 0-2.547-.689-2.547-2.445v-5.19H80.83v-1.47h1.316v-2.143h1.868zM86.733 26.936c0-2.848 1.678-4.638 4.294-4.638 2.625 0 4.295 1.79 4.295 4.639 0 2.856-1.66 4.638-4.295 4.638-2.633 0-4.294-1.782-4.294-4.639zm6.696 0c0-1.954-.896-3.107-2.402-3.107-1.505 0-2.4 1.162-2.4 3.107 0 1.962.895 3.107 2.4 3.107 1.506 0 2.402-1.145 2.402-3.107zM96.855 22.41h1.772v1.54h.043a2.16 2.16 0 0 1 2.178-1.635c.214-.001.427.022.636.069v1.738a2.594 2.594 0 0 0-.835-.112 1.87 1.87 0 0 0-1.854 1.286 1.873 1.873 0 0 0-.082.797v5.37h-1.858v-9.054zM110.053 28.804c-.25 1.643-1.851 2.771-3.899 2.771-2.633 0-4.268-1.764-4.268-4.595 0-2.84 1.643-4.682 4.19-4.682 2.505 0 4.08 1.72 4.08 4.466v.636h-6.394v.113a2.353 2.353 0 0 0 1.458 2.391c.31.127.643.185.977.173a2.05 2.05 0 0 0 2.091-1.273h1.765zm-6.282-2.702h4.526a2.173 2.173 0 0 0-2.221-2.298 2.292 2.292 0 0 0-2.305 2.298zM36.339 15.665V9.698h2.398c1.121 0 1.795.57 1.795 1.488a1.307 1.307 0 0 1-1.046 1.282v.07a1.41 1.41 0 0 1 1.344 1.435c0 1.05-.765 1.692-2.039 1.692h-2.452zm.927-3.44h1.1c.819 0 1.244-.303 1.244-.87 0-.55-.401-.872-1.087-.872h-1.257v1.741zm1.34 2.654c.834 0 1.277-.34 1.277-.972 0-.624-.46-.951-1.331-.951h-1.286v1.923h1.34zM41.782 14.391c0-.81.604-1.278 1.675-1.344l1.22-.07v-.39c0-.475-.315-.743-.922-.743-.496 0-.84.182-.939.5h-.86c.09-.773.818-1.27 1.84-1.27 1.129 0 1.766.563 1.766 1.514v3.077h-.856v-.633h-.07a1.515 1.515 0 0 1-1.353.707 1.36 1.36 0 0 1-1.5-1.348zm2.895-.385v-.376l-1.1.07c-.62.042-.901.253-.901.65 0 .405.351.64.835.64a1.064 1.064 0 0 0 1.166-.984zM46.837 9.83a.576.576 0 1 1 .575.542.55.55 0 0 1-.575-.542zm.132 1.332h.886v4.503h-.886v-4.503zM50.904 14.068l-.984 1.597h-.976l1.493-2.242-1.505-2.261h1.038l.968 1.587h.07l.959-1.587h.988l-1.484 2.224 1.5 2.279h-1.02l-.98-1.597h-.067zM53.756 14.391c0-.81.603-1.278 1.675-1.344l1.22-.07v-.39c0-.475-.315-.743-.923-.743-.496 0-.84.182-.938.5h-.86c.09-.773.818-1.27 1.84-1.27 1.128 0 1.765.563 1.765 1.514v3.077h-.855v-.633h-.07a1.514 1.514 0 0 1-1.353.707 1.36 1.36 0 0 1-1.501-1.348zm2.894-.385v-.376l-1.1.07c-.62.042-.9.253-.9.65 0 .405.351.64.834.64a1.064 1.064 0 0 0 1.166-.984zM58.927 11.162h.855v.69h.067a1.221 1.221 0 0 1 1.216-.765c.133-.002.266.01.396.037V12a2.432 2.432 0 0 0-.496-.054 1.057 1.057 0 0 0-1.15 1.059v2.658h-.888v-4.502zM64.886 11.162h.856v.715h.066a1.348 1.348 0 0 1 1.344-.802 1.466 1.466 0 0 1 1.558 1.675v2.915h-.888v-2.692c0-.724-.315-1.084-.972-1.084a1.034 1.034 0 0 0-1.075 1.141v2.635h-.89v-4.503zM69.828 14.391c0-.81.604-1.278 1.675-1.344l1.22-.07v-.39c0-.475-.315-.743-.922-.743-.496 0-.84.182-.939.5h-.86c.09-.773.818-1.27 1.84-1.27 1.129 0 1.765.563 1.765 1.514v3.077h-.855v-.633h-.07a1.515 1.515 0 0 1-1.353.707 1.36 1.36 0 0 1-1.5-1.348zm2.895-.385v-.376l-1.1.07c-.62.042-.901.253-.901.65 0 .405.351.64.835.64a1.064 1.064 0 0 0 1.166-.984z" fill="#fff"/>
    </g>
    <defs>
        <clipPath id="laf9nznrda">
            <path fill="#fff" transform="translate(.668 .967)" d="M0 0h119.664v40H0z"/>
        </clipPath>
    </defs>
</svg>
