<svg id="Group_19612" data-name="Group 19612" xmlns="http://www.w3.org/2000/svg" width="24" height="24" viewBox="0 0 24 24">
  <path id="Path_37020" data-name="Path 37020" d="M0,0H24V24H0Z" fill="none"/>
  <path id="Path_37021" data-name="Path 37021" d="M15,8a5,5,0,0,1,0,8" fill="none" stroke="#fff" stroke-linecap="round" stroke-linejoin="round" stroke-width="1.5"/>
  <path id="Path_37022" data-name="Path 37022" d="M17.7,5a9,9,0,0,1,0,14" fill="none" stroke="#fff" stroke-linecap="round" stroke-linejoin="round" stroke-width="1.5"/>
  <path id="Path_37023" data-name="Path 37023" d="M6,15H4a1,1,0,0,1-1-1V10A1,1,0,0,1,4,9H6L9.5,4.5A.8.8,0,0,1,11,5V19a.8.8,0,0,1-1.5.5L6,15" fill="none" stroke="#fff" stroke-linecap="round" stroke-linejoin="round" stroke-width="1.5"/>
</svg>
