<svg id="Group_19616" data-name="Group 19616" xmlns="http://www.w3.org/2000/svg" width="24" height="24" viewBox="0 0 24 24">
  <path id="Path_37034" data-name="Path 37034" d="M0,0H24V24H0Z" fill="none"/>
  <path id="Path_37035" data-name="Path 37035" d="M6.5,7h11" fill="none" stroke="#fff" stroke-linecap="round" stroke-linejoin="round" stroke-width="1.5"/>
  <path id="Path_37036" data-name="Path 37036" d="M6.5,17h11" fill="none" stroke="#fff" stroke-linecap="round" stroke-linejoin="round" stroke-width="1.5"/>
  <path id="Path_37037" data-name="Path 37037" d="M6,20V18a6,6,0,0,1,12,0v2a1,1,0,0,1-1,1H7A1,1,0,0,1,6,20Z" fill="none" stroke="#fff" stroke-linecap="round" stroke-linejoin="round" stroke-width="1.5"/>
  <path id="Path_37038" data-name="Path 37038" d="M6,4V6A6,6,0,1,0,18,6V4a1,1,0,0,0-1-1H7A1,1,0,0,0,6,4Z" fill="none" stroke="#fff" stroke-linecap="round" stroke-linejoin="round" stroke-width="1.5"/>
</svg>
