<svg id="icon_linkedin" xmlns="http://www.w3.org/2000/svg" width="24.722" height="24.722" viewBox="0 0 24.722 24.722">
  <path id="Path_54" data-name="Path 54" d="M77.688,722.368a10.669,10.669,0,1,1-10.669,10.669,10.681,10.681,0,0,1,10.669-10.669m0-1.692a12.361,12.361,0,1,0,12.361,12.361,12.361,12.361,0,0,0-12.361-12.361Z" transform="translate(-65.327 -720.676)" fill="#ffb400"/>
  <path id="Path_55" data-name="Path 55" d="M72.4,730.451h2.509v8.059H72.4Zm1.255-4.005A1.453,1.453,0,1,1,72.2,727.9a1.452,1.452,0,0,1,1.454-1.451" transform="translate(-65.327 -720.676)" fill="#ffb400"/>
  <path id="Path_56" data-name="Path 56" d="M76.483,730.451h2.4v1.1h.033a2.634,2.634,0,0,1,2.372-1.3c2.536,0,3,1.668,3,3.839v4.42h-2.5v-3.918c0-.936-.018-2.138-1.3-2.138-1.3,0-1.5,1.018-1.5,2.069v3.987h-2.5Z" transform="translate(-65.327 -720.676)" fill="#ffb400"/>
</svg>
