
<svg width="55" height="55" viewBox="0 0 55 55" fill="none" xmlns="http://www.w3.org/2000/svg">
    <path d="M12.4,1.7C18.3,1.7,23,6.5,23,12.4C23,18.3,18.3,23,12.4,23C6.5,23,1.7,18.3,1.7,12.4
	C1.7,6.5,6.5,1.7,12.4,1.7 M12.4,0C5.5,0,0,5.5,0,12.4c0,6.8,5.5,12.4,12.4,12.4s12.4-5.5,12.4-12.4c0,0,0,0,0,0
	C24.7,5.5,19.2,0,12.4,0z" fill="#FFB400"/>
    <path d="M11.4,10.9c0,0.7,0,1.3,0,1.9c-0.2,0-0.4,0-0.6,0c-1,0-1.7,0.7-1.8,1.7c0,0.9,0.6,1.7,1.6,1.8
	c0.8,0.1,1.7-0.5,1.9-1.4c0-0.2,0-0.4,0-0.5c0-2.5,0-5,0-7.6c0-0.1,0-0.2,0-0.3c0.6,0,1.2,0,1.9,0c0.2,1.8,1.1,2.8,3,3
	c0,0.6,0,1.2,0,1.9c-1.1,0-2-0.4-3-1c0,0.1,0,0.2,0,0.3c0,1.3,0,2.6,0,3.9c0,1.8-1.2,3.3-2.9,3.6c-2,0.4-3.9-0.9-4.3-2.9
	c-0.4-1.9,1-3.9,3-4.2C10.6,10.9,11,10.9,11.4,10.9z" fill="#EFD200"/>
</svg>
