<svg xmlns="http://www.w3.org/2000/svg" width="22" height="16" viewBox="0 0 22 16">
  <path id="icon-book" d="M13,6.532v-1.7a8.781,8.781,0,0,1,1.688-.525A9.092,9.092,0,0,1,16.5,4.132a8.058,8.058,0,0,1,1.275.1q.625.1,1.225.25v1.6a6.953,6.953,0,0,0-2.5-.45,6.923,6.923,0,0,0-1.825.238A8.038,8.038,0,0,0,13,6.532Zm0,5.5v-1.7a8.783,8.783,0,0,1,1.688-.525A9.092,9.092,0,0,1,16.5,9.632a8.058,8.058,0,0,1,1.275.1q.625.1,1.225.25v1.6a6.953,6.953,0,0,0-2.5-.45,7.3,7.3,0,0,0-1.825.225A6.918,6.918,0,0,0,13,12.032Zm0-2.75v-1.7a8.781,8.781,0,0,1,1.688-.525A9.092,9.092,0,0,1,16.5,6.882a8.058,8.058,0,0,1,1.275.1q.625.1,1.225.25v1.6a6.953,6.953,0,0,0-2.5-.45,6.923,6.923,0,0,0-1.825.238A8.038,8.038,0,0,0,13,9.282Zm-7.5,3.35a9.955,9.955,0,0,1,2.288.262A11.024,11.024,0,0,1,10,13.682V3.832a8.565,8.565,0,0,0-2.175-.9,9.182,9.182,0,0,0-4.112-.125A8.662,8.662,0,0,0,2,3.332v9.9a11.348,11.348,0,0,1,1.738-.45A10.259,10.259,0,0,1,5.5,12.632Zm6.5,1.05a11.017,11.017,0,0,1,2.213-.788,9.943,9.943,0,0,1,2.287-.262,10.276,10.276,0,0,1,1.763.15,11.355,11.355,0,0,1,1.737.45v-9.9a8.667,8.667,0,0,0-1.712-.525,9.186,9.186,0,0,0-4.113.125,8.564,8.564,0,0,0-2.175.9Zm-1,2.95a9.6,9.6,0,0,0-2.6-1.475,8.193,8.193,0,0,0-2.9-.525,7.83,7.83,0,0,0-2.062.275,9.052,9.052,0,0,0-1.938.775.962.962,0,0,1-1.012-.025A.966.966,0,0,1,0,14.782V2.732a1.071,1.071,0,0,1,.138-.525A.86.86,0,0,1,.55,1.832a10.435,10.435,0,0,1,2.4-.9A10.811,10.811,0,0,1,11,2.132a10.753,10.753,0,0,1,5.5-1.5,10.888,10.888,0,0,1,2.55.3,10.436,10.436,0,0,1,2.4.9.866.866,0,0,1,.413.375A1.078,1.078,0,0,1,22,2.732v12.05a1.015,1.015,0,0,1-1.5.9,9.053,9.053,0,0,0-1.938-.775,7.83,7.83,0,0,0-2.062-.275,8.193,8.193,0,0,0-2.9.525A9.6,9.6,0,0,0,11,16.632Z" transform="translate(0 -0.632)" fill="#fff"/>
</svg>
