<svg id="icon_facebook" xmlns="http://www.w3.org/2000/svg" width="24.722" height="24.721" viewBox="0 0 24.722 24.721">
  <path id="Path_47" data-name="Path 47" d="M77.688,570.025a10.668,10.668,0,1,1-10.669,10.668,10.681,10.681,0,0,1,10.669-10.668m0-1.692a12.361,12.361,0,1,0,12.361,12.36,12.361,12.361,0,0,0-12.361-12.36Z" transform="translate(-65.327 -568.333)" fill="#ffb400"/>
  <path id="Path_48" data-name="Path 48" d="M79.278,576.1c.449-.016.9,0,1.349-.005h.186v-2.338c-.24-.024-.492-.059-.743-.071-.461-.02-.923-.044-1.384-.033a3.4,3.4,0,0,0-1.955.6,2.922,2.922,0,0,0-1.174,1.953,6.718,6.718,0,0,0-.081,1c-.013.525,0,1.05,0,1.575v.2H73.236V581.6h2.225v6.566h2.718v-6.556H80.4c.114-.868.224-1.728.341-2.624h-.5c-.631,0-2.079,0-2.079,0s.007-1.295.022-1.857C78.205,576.361,78.661,576.126,79.278,576.1Z" transform="translate(-65.327 -568.333)" fill="#ffb400" fill-rule="evenodd"/>
</svg>
