<svg id="icon_twitter" xmlns="http://www.w3.org/2000/svg" width="24.722" height="24.721" viewBox="0 0 24.722 24.721">
  <path id="Path_49" data-name="Path 49" d="M77.688,608.111a10.668,10.668,0,1,1-10.669,10.668,10.681,10.681,0,0,1,10.669-10.668m0-1.692a12.361,12.361,0,1,0,12.361,12.36,12.361,12.361,0,0,0-12.361-12.36Z" transform="translate(-65.327 -606.419)" fill="#ffb400"/>
  <path id="Path_50" data-name="Path 50" d="M75.434,622.441a2.915,2.915,0,0,1-2.7-2.017,2.878,2.878,0,0,0,1.246-.038.214.214,0,0,0,.041-.019,2.9,2.9,0,0,1-1.887-1.333,2.826,2.826,0,0,1-.426-1.546,2.869,2.869,0,0,0,1.293.353,2.927,2.927,0,0,1-1.2-1.763,2.883,2.883,0,0,1,.312-2.106,8.312,8.312,0,0,0,5.994,3.037c-.017-.115-.035-.216-.046-.318a2.906,2.906,0,0,1,4.94-2.4.145.145,0,0,0,.154.047,5.862,5.862,0,0,0,1.691-.65.2.2,0,0,1,.038-.02l.02,0a2.977,2.977,0,0,1-1.245,1.582,5.566,5.566,0,0,0,1.618-.436l.012.013c-.111.146-.218.3-.334.436a5.676,5.676,0,0,1-1.056,1,.1.1,0,0,0-.048.091,7.952,7.952,0,0,1-.055,1.291,8.528,8.528,0,0,1-.748,2.588,8.4,8.4,0,0,1-1.571,2.291,7.764,7.764,0,0,1-3.994,2.225,8.73,8.73,0,0,1-1.619.193,8.215,8.215,0,0,1-4.651-1.248l-.068-.045a5.855,5.855,0,0,0,2.907-.4A5.731,5.731,0,0,0,75.434,622.441Z" transform="translate(-65.327 -606.419)" fill="#ffb400" fill-rule="evenodd"/>
</svg>
