<svg id="icon_youtube" xmlns="http://www.w3.org/2000/svg" width="24.722" height="24.722" viewBox="0 0 24.722 24.722">
  <path id="Path_57" data-name="Path 57" d="M77.688,684.283a10.668,10.668,0,1,1-10.669,10.668,10.681,10.681,0,0,1,10.669-10.668m0-1.693a12.361,12.361,0,1,0,12.361,12.361A12.361,12.361,0,0,0,77.688,682.59Z" transform="translate(-65.327 -682.59)" fill="#ffb400"/>
  <path id="Path_58" data-name="Path 58" d="M72.526,699.241a1.515,1.515,0,0,1-1-.97c-.432-1.188-.559-6.158.272-7.138a1.617,1.617,0,0,1,1.087-.577c2.241-.241,9.17-.206,9.969.081a1.565,1.565,0,0,1,.98.943c.473,1.228.489,5.7-.063,6.881a1.518,1.518,0,0,1-.7.709C82.234,699.609,73.626,699.6,72.526,699.241Zm3.561-2.33,4.037-2.094-4.037-2.106Z" transform="translate(-65.327 -682.59)" fill="#ffb400" fill-rule="evenodd"/>
</svg>
