<svg id="icon_instagram" xmlns="http://www.w3.org/2000/svg" width="24.722" height="24.721" viewBox="0 0 24.722 24.721">
  <path id="Path_51" data-name="Path 51" d="M77.688,646.2a10.668,10.668,0,1,1-10.669,10.668A10.681,10.681,0,0,1,77.688,646.2m0-1.692a12.361,12.361,0,1,0,12.361,12.36,12.361,12.361,0,0,0-12.361-12.36Z" transform="translate(-65.327 -644.505)" fill="#ffb400"/>
  <path id="Path_52" data-name="Path 52" d="M84.259,653.629a3.472,3.472,0,0,0-1.059-2.235,3.626,3.626,0,0,0-2.4-.975,47.125,47.125,0,0,0-6.477.073,3.3,3.3,0,0,0-2.832,2.542,36.569,36.569,0,0,0-.068,7.351,3.313,3.313,0,0,0,2.63,2.855,38.762,38.762,0,0,0,7.248.048,3.318,3.318,0,0,0,2.868-2.618A41.027,41.027,0,0,0,84.259,653.629Zm-1.205,6.543a2.216,2.216,0,0,1-2.084,1.977,38.952,38.952,0,0,1-6.753-.094,2.145,2.145,0,0,1-1.628-1.85,43.7,43.7,0,0,1,0-6.607,2.213,2.213,0,0,1,2.075-1.97,46.341,46.341,0,0,1,6.445.026,2.218,2.218,0,0,1,1.974,2.088A46.983,46.983,0,0,1,83.054,660.172Zm-5.234-6.639a3.357,3.357,0,1,0,3.355,3.359A3.358,3.358,0,0,0,77.82,653.533Zm-.023,5.526a2.171,2.171,0,1,1,2.19-2.151A2.17,2.17,0,0,1,77.8,659.059Zm4.3-5.653a.786.786,0,1,1-.784-.788A.786.786,0,0,1,82.094,653.406Z" transform="translate(-65.327 -644.505)" fill="#ffb400"/>
  <path id="Path_53" data-name="Path 53" d="M84.259,653.629a3.472,3.472,0,0,0-1.059-2.235,3.626,3.626,0,0,0-2.4-.975,47.125,47.125,0,0,0-6.477.073,3.3,3.3,0,0,0-2.832,2.542,36.569,36.569,0,0,0-.068,7.351,3.313,3.313,0,0,0,2.63,2.855,38.762,38.762,0,0,0,7.248.048,3.318,3.318,0,0,0,2.868-2.618A41.027,41.027,0,0,0,84.259,653.629Zm-1.205,6.543a2.216,2.216,0,0,1-2.084,1.977,38.952,38.952,0,0,1-6.753-.094,2.145,2.145,0,0,1-1.628-1.85,43.7,43.7,0,0,1,0-6.607,2.213,2.213,0,0,1,2.075-1.97,46.341,46.341,0,0,1,6.445.026,2.218,2.218,0,0,1,1.974,2.088A46.983,46.983,0,0,1,83.054,660.172Zm-5.234-6.639a3.357,3.357,0,1,0,3.355,3.359A3.358,3.358,0,0,0,77.82,653.533Zm-.023,5.526a2.171,2.171,0,1,1,2.19-2.151A2.17,2.17,0,0,1,77.8,659.059Zm4.3-5.653a.786.786,0,1,1-.784-.788A.786.786,0,0,1,82.094,653.406Z" transform="translate(-65.327 -644.505)" fill="#ffb400"/>
</svg>
