<svg width="136" height="41" viewBox="0 0 136 41" fill="none" xmlns="http://www.w3.org/2000/svg">
    <g clip-path="url(#w0hqckn0ka)">
        <path d="M130.668 40.967h-125c-2.75 0-5-2.25-5-5v-30c0-2.75 2.25-5 5-5h125c2.75 0 5 2.25 5 5v30c0 2.75-2.25 5-5 5z" fill="#000"/>
        <path d="M130.668 1.767a4.2 4.2 0 0 1 4.2 4.2v30a4.2 4.2 0 0 1-4.2 4.2h-125a4.2 4.2 0 0 1-4.2-4.2v-30a4.2 4.2 0 0 1 4.2-4.2h125zm0-.8h-125c-2.75 0-5 2.25-5 5v30c0 2.75 2.25 5 5 5h125c2.75 0 5-2.25 5-5v-30c0-2.75-2.25-5-5-5z" fill="#fff"/>
        <path d="M68.808 22.717c-2.35 0-4.27 1.79-4.27 4.25 0 2.45 1.92 4.25 4.27 4.25 2.35 0 4.27-1.8 4.27-4.25 0-2.46-1.92-4.25-4.27-4.25zm0 6.83c-1.29 0-2.4-1.06-2.4-2.58 0-1.53 1.11-2.58 2.4-2.58 1.29 0 2.4 1.05 2.4 2.58 0 1.52-1.12 2.58-2.4 2.58zm-9.32-6.83c-2.35 0-4.27 1.79-4.27 4.25 0 2.45 1.92 4.25 4.27 4.25 2.35 0 4.27-1.8 4.27-4.25 0-2.46-1.92-4.25-4.27-4.25zm0 6.83c-1.29 0-2.4-1.06-2.4-2.58 0-1.53 1.11-2.58 2.4-2.58 1.29 0 2.4 1.05 2.4 2.58 0 1.52-1.11 2.58-2.4 2.58zm-11.08-5.52v1.8h4.32c-.13 1.01-.47 1.76-.98 2.27-.63.63-1.61 1.32-3.33 1.32-2.66 0-4.74-2.14-4.74-4.8 0-2.66 2.08-4.8 4.74-4.8 1.43 0 2.48.56 3.25 1.29l1.27-1.27c-1.08-1.03-2.51-1.82-4.53-1.82-3.64 0-6.7 2.96-6.7 6.61 0 3.64 3.06 6.61 6.7 6.61 1.97 0 3.45-.64 4.61-1.85 1.19-1.19 1.56-2.87 1.56-4.22 0-.42-.03-.81-.1-1.13h-6.07v-.01zm45.31 1.4c-.35-.95-1.43-2.71-3.64-2.71-2.19 0-4.01 1.72-4.01 4.25 0 2.38 1.8 4.25 4.22 4.25 1.95 0 3.08-1.19 3.54-1.88l-1.45-.97c-.48.71-1.14 1.18-2.09 1.18s-1.63-.44-2.06-1.29l5.69-2.35-.2-.48zm-5.8 1.42c-.05-1.64 1.27-2.48 2.22-2.48.74 0 1.37.37 1.58.9l-3.8 1.58zm-4.62 4.12h1.87v-12.5h-1.87v12.5zm-3.06-7.3h-.07c-.42-.5-1.22-.95-2.24-.95-2.13 0-4.08 1.87-4.08 4.27 0 2.38 1.95 4.24 4.08 4.24 1.01 0 1.82-.45 2.24-.97h.06v.61c0 1.63-.87 2.5-2.27 2.5-1.14 0-1.85-.82-2.14-1.51l-1.63.68c.47 1.13 1.71 2.51 3.77 2.51 2.19 0 4.04-1.29 4.04-4.43v-7.64h-1.77v.69h.01zm-2.15 5.88c-1.29 0-2.37-1.08-2.37-2.56 0-1.5 1.08-2.59 2.37-2.59 1.27 0 2.27 1.1 2.27 2.59.01 1.48-.99 2.56-2.27 2.56zm24.39-11.08h-4.47v12.5h1.87v-4.74h2.61c2.07 0 4.1-1.5 4.1-3.88s-2.05-3.88-4.11-3.88zm.04 6.02h-2.65v-4.29h2.65c1.4 0 2.19 1.16 2.19 2.14 0 .98-.79 2.15-2.19 2.15zm11.54-1.79c-1.35 0-2.75.6-3.33 1.91l1.66.69c.35-.69 1.01-.92 1.7-.92.96 0 1.95.58 1.96 1.61v.13c-.34-.19-1.06-.48-1.95-.48-1.79 0-3.6.98-3.6 2.81 0 1.67 1.46 2.75 3.1 2.75 1.25 0 1.95-.56 2.38-1.22h.06v.97h1.8v-4.79c.01-2.22-1.65-3.46-3.78-3.46zm-.23 6.85c-.61 0-1.46-.31-1.46-1.06 0-.96 1.06-1.33 1.98-1.33.82 0 1.21.18 1.7.42a2.257 2.257 0 0 1-2.22 1.97zm10.58-6.58-2.14 5.42h-.06l-2.22-5.42h-2.01l3.33 7.58-1.9 4.21h1.95l5.13-11.79h-2.08zm-16.8 8h1.87v-12.5h-1.87v12.5z" fill="#fff"/>
        <path d="M11.107 8.507c-.29.31-.46.79-.46 1.4v22.12c0 .62.17 1.1.46 1.4l.07.07 12.39-12.38v-.3l-12.39-12.38-.07.07z" fill="url(#zst6qvxz8b)"/>
        <path d="m27.697 25.247-4.13-4.13v-.3l4.13-4.13.09.05 4.89 2.78c1.4.79 1.4 2.09 0 2.89l-4.89 2.78-.09.06z" fill="url(#psjg7fzm7c)"/>
        <path d="m27.787 25.187-4.22-4.22-12.46 12.46c.46.49 1.22.55 2.08.06l14.6-8.3z" fill="url(#r0zvd3y05d)"/>
        <path d="m27.788 16.747-14.61-8.3c-.86-.49-1.62-.43-2.08.06l12.47 12.46 4.22-4.22z" fill="url(#x1ou4iv7we)"/>
        <path opacity=".2" d="m27.697 25.097-14.52 8.25c-.81.46-1.54.43-2 .01l-.07.07.07.07c.47.42 1.19.45 2-.01l14.61-8.3-.09-.09z" fill="#000"/>
        <path opacity=".12" d="M11.107 33.287c-.29-.31-.46-.79-.46-1.4v.15c0 .62.17 1.1.46 1.4l.07-.07-.07-.08zM32.678 22.267l-4.99 2.83.09.09 4.89-2.78c.7-.4 1.05-.92 1.05-1.44-.05.47-.4.94-1.04 1.3z" fill="#000"/>
        <path opacity=".25" d="m13.178 8.587 19.5 11.08c.63.36.99.82 1.05 1.3 0-.52-.35-1.05-1.05-1.44l-19.5-11.08c-1.4-.79-2.54-.13-2.54 1.47v.15c0-1.61 1.15-2.27 2.54-1.48z" fill="#fff"/>
        <path d="M42.008 13.967v-6h1.84c.92 0 1.66.28 2.21.83.55.56.83 1.28.83 2.17 0 .89-.28 1.61-.83 2.17-.56.55-1.3.83-2.22.83h-1.83zm.77-.74h1.06c.69 0 1.24-.2 1.65-.6.41-.4.61-.95.61-1.67 0-.71-.2-1.26-.61-1.66-.41-.4-.95-.6-1.65-.6h-1.06v4.53zM47.968 13.967v-6h.77v6h-.77zM51.798 14.097c-.44 0-.86-.14-1.28-.43-.42-.29-.69-.68-.82-1.2l.7-.28c.08.33.25.61.51.83.26.23.55.34.88.34.33 0 .62-.09.86-.26.24-.18.36-.41.36-.72 0-.33-.12-.59-.36-.77-.24-.18-.61-.35-1.13-.51-.53-.17-.93-.38-1.21-.65-.27-.27-.41-.6-.41-1.02 0-.43.17-.8.51-1.12.34-.32.79-.48 1.33-.48.51 0 .92.13 1.24.38.32.25.53.53.62.83l-.7.29c-.05-.19-.17-.37-.37-.53-.2-.16-.45-.24-.77-.24-.3 0-.55.08-.76.25-.21.17-.31.37-.31.62 0 .22.1.41.29.57.19.15.48.29.85.41.3.1.54.19.74.28.2.09.4.21.6.36.2.15.36.33.46.55.1.22.16.48.16.77 0 .29-.06.55-.18.78-.12.23-.28.41-.48.54-.2.13-.41.24-.64.31-.21.07-.45.1-.69.1zM55.678 13.967h-.77v-6h2.04c.51 0 .95.17 1.32.51.37.34.56.76.56 1.28 0 .51-.19.94-.56 1.28-.37.34-.81.51-1.32.51h-1.27v2.42zm0-3.17h1.29c.32 0 .58-.11.78-.33.2-.22.29-.46.29-.72 0-.26-.1-.5-.29-.72-.2-.22-.46-.33-.78-.33h-1.29v2.1zM64.708 13.187c-.59.61-1.32.91-2.2.91-.88 0-1.61-.3-2.2-.91-.59-.61-.88-1.35-.88-2.22 0-.87.29-1.62.88-2.22.59-.61 1.32-.91 2.2-.91.87 0 1.6.3 2.2.91.59.61.89 1.35.89 2.22 0 .88-.3 1.62-.89 2.22zm-3.83-.5c.44.45.99.67 1.63.67.64 0 1.19-.22 1.63-.67.44-.45.67-1.02.67-1.72s-.22-1.27-.67-1.72c-.44-.45-.99-.67-1.63-.67-.64 0-1.19.22-1.63.67-.44.45-.67 1.02-.67 1.72s.23 1.27.67 1.72zM66.678 13.967v-6h.94l2.92 4.67h.03l-.03-1.16v-3.51h.77v6h-.8l-3.05-4.89h-.03l.03 1.16v3.73h-.78zM72.678 13.967v-6h.77v6h-.77zm.72-6.47h-.67l.44-1.07h.84l-.61 1.07zM76.308 13.967l-2.11-6h.85l1.64 4.87h.03l1.72-4.87h.85l-2.18 6h-.8zM83.668 8.707h-2.73v1.9h2.46v.72h-2.46v1.9h2.73v.74h-3.5v-6h3.5v.74zM84.868 13.967v-6h.77v5.26h2.6v.74h-3.37zM91.218 13.967v-6h.94l2.92 4.67h.03l-.03-1.16v-3.51h.77v6h-.8l-3.05-4.89h-.03l.03 1.16v3.73h-.78zM102.128 13.187c-.59.61-1.32.91-2.2.91-.88 0-1.61-.3-2.2-.91-.59-.61-.88-1.35-.88-2.22 0-.87.29-1.62.88-2.22.59-.61 1.32-.91 2.2-.91.87 0 1.6.3 2.2.91.59.61.89 1.35.89 2.22-.01.88-.3 1.62-.89 2.22zm-3.83-.5c.44.45.99.67 1.63.67.64 0 1.19-.22 1.63-.67.44-.45.67-1.02.67-1.72s-.22-1.27-.67-1.72c-.44-.45-.99-.67-1.63-.67-.64 0-1.19.22-1.63.67-.44.45-.67 1.02-.67 1.72s.23 1.27.67 1.72z" fill="#fff" stroke="#fff" stroke-width=".2" stroke-miterlimit="10"/>
    </g>
    <defs>
        <linearGradient id="zst6qvxz8b" x1="22.467" y1="9.677" x2="5.685" y2="26.459" gradientUnits="userSpaceOnUse">
            <stop stop-color="#00A0FF"/>
            <stop offset=".007" stop-color="#00A1FF"/>
            <stop offset=".26" stop-color="#00BEFF"/>
            <stop offset=".512" stop-color="#00D2FF"/>
            <stop offset=".76" stop-color="#00DFFF"/>
            <stop offset="1" stop-color="#00E3FF"/>
        </linearGradient>
        <linearGradient id="psjg7fzm7c" x1="34.502" y1="20.968" x2="10.305" y2="20.968" gradientUnits="userSpaceOnUse">
            <stop stop-color="#FFE000"/>
            <stop offset=".409" stop-color="#FFBD00"/>
            <stop offset=".775" stop-color="orange"/>
            <stop offset="1" stop-color="#FF9C00"/>
        </linearGradient>
        <linearGradient id="r0zvd3y05d" x1="25.494" y1="23.263" x2="2.736" y2="46.021" gradientUnits="userSpaceOnUse">
            <stop stop-color="#FF3A44"/>
            <stop offset="1" stop-color="#C31162"/>
        </linearGradient>
        <linearGradient id="x1ou4iv7we" x1="7.965" y1="1.143" x2="18.128" y2="11.306" gradientUnits="userSpaceOnUse">
            <stop stop-color="#32A071"/>
            <stop offset=".069" stop-color="#2DA771"/>
            <stop offset=".476" stop-color="#15CF74"/>
            <stop offset=".801" stop-color="#06E775"/>
            <stop offset="1" stop-color="#00F076"/>
        </linearGradient>
        <clipPath id="w0hqckn0ka">
            <path fill="#fff" transform="translate(.668 .967)" d="M0 0h135v40H0z"/>
        </clipPath>
    </defs>
</svg>
