<svg width="104" height="39" viewBox="0 0 104 39" fill="none" xmlns="http://www.w3.org/2000/svg">
    <rect x="1.331" y="1.467" width="102.001" height="37" rx="5.5" fill="#221F2C"/>
    <path d="M36.712 16.686c-1.68 0-2.39.723-3.56.723-1.2 0-2.115-.718-3.57-.718a4.986 4.986 0 0 0-3.91 2.119c-1.355 1.883-1.125 5.43 1.07 8.45.785 1.083 1.835 2.296 3.21 2.309h.025c1.195 0 1.55-.7 3.195-.714h.025c1.62 0 1.945.709 3.135.709h.025c1.375-.013 2.48-1.357 3.265-2.435.473-.637.878-1.321 1.21-2.041a3.563 3.563 0 0 1-.545-6.7 4.915 4.915 0 0 0-3.575-1.708v.006z" fill="#EFD200"/>
    <path d="M36.904 10.365a6.15 6.15 0 0 0-4.009 2.222 5.595 5.595 0 0 0-1.308 4.278h.113a5.219 5.219 0 0 0 3.924-2.12 5.988 5.988 0 0 0 1.28-4.38zM58.432 25.967l-.016-11.2h-1.312l-4.608 7.872-4.672-7.872h-1.312v11.2h1.536v-8.112l4.048 6.752h.736l4.048-6.8.016 8.16h1.536zm6.225-8.56c-1.36 0-2.624.384-3.504 1.088l.64 1.152c.656-.56 1.68-.912 2.688-.912 1.52 0 2.272.752 2.272 2.048v.304h-2.432c-2.528 0-3.408 1.12-3.408 2.48 0 1.472 1.216 2.496 3.136 2.496 1.328 0 2.272-.448 2.784-1.216v1.12h1.456v-5.12c0-2.32-1.312-3.44-3.632-3.44zm-.352 7.472c-1.168 0-1.872-.528-1.872-1.376 0-.72.432-1.312 1.952-1.312h2.368v1.184c-.384.976-1.296 1.504-2.448 1.504zm10.57 1.184c1.52 0 2.784-.64 3.456-1.824l-1.168-.736c-.544.832-1.376 1.216-2.304 1.216-1.664 0-2.912-1.152-2.912-2.992 0-1.808 1.248-2.976 2.912-2.976.928 0 1.76.384 2.304 1.216l1.168-.752c-.672-1.184-1.936-1.808-3.456-1.808-2.608 0-4.48 1.792-4.48 4.32 0 2.528 1.872 4.336 4.48 4.336z" fill="#EFD200"/>
    <rect x="1.331" y="1.467" width="102.001" height="37" rx="5.5" stroke="#fff"/>
</svg>
