<svg width="79" height="19" viewBox="0 0 79 19" fill="none" xmlns="http://www.w3.org/2000/svg">
    <path d="M34.803 4.38c1.273 0 2.359.482 3.26 1.445.9.964 1.35 2.146 1.35 3.544 0 1.398-.45 2.58-1.35 3.544-.901.963-1.988 1.445-3.26 1.445-1.323 0-2.344-.46-3.062-1.38v4.895h-2.438V4.643h2.438v1.115c.718-.919 1.739-1.378 3.062-1.378zm-2.324 6.908c.491.498 1.115.746 1.871.746s1.383-.25 1.88-.746c.497-.497.746-1.136.746-1.919 0-.781-.249-1.42-.746-1.919-.498-.497-1.125-.746-1.88-.746-.756 0-1.38.25-1.871.746-.492.499-.737 1.138-.737 1.919 0 .781.245 1.42.737 1.919zM49.26 4.644h2.438v9.45H49.26v-1.116c-.73.92-1.757 1.38-3.08 1.38-1.26 0-2.34-.482-3.241-1.445-.901-.964-1.351-2.146-1.351-3.544 0-1.398.45-2.58 1.35-3.544.901-.963 1.982-1.445 3.242-1.445 1.323 0 2.35.46 3.08 1.38V4.644zm-4.497 6.644c.491.498 1.115.746 1.871.746s1.383-.25 1.88-.746c.497-.497.746-1.136.746-1.919 0-.781-.249-1.42-.746-1.919-.499-.497-1.125-.746-1.88-.746-.755 0-1.38.25-1.871.746-.492.499-.737 1.138-.737 1.919 0 .781.245 1.42.737 1.919zM59.352 14.358c-1.424 0-2.61-.479-3.561-1.437-.951-.958-1.428-2.141-1.428-3.553 0-1.41.475-2.596 1.428-3.554.95-.958 2.138-1.437 3.561-1.437.92 0 1.758.22 2.514.662a4.394 4.394 0 0 1 1.72 1.777l-2.099 1.228a2.147 2.147 0 0 0-.86-.926 2.497 2.497 0 0 0-1.296-.34c-.73 0-1.335.242-1.814.728-.479.485-.718 1.106-.718 1.862 0 .743.24 1.357.718 1.842.48.485 1.083.728 1.814.728.492 0 .93-.11 1.313-.331.385-.22.672-.526.861-.916l2.117 1.21a4.735 4.735 0 0 1-1.758 1.786c-.753.449-1.591.671-2.512.671zM73.928 4.705h-3.367a4.404 4.404 0 0 0-4.39 4.39v.753c0 .999.338 1.92.904 2.66-.133.904-.27 1.707-.27 1.707l1.729-.476c.607.319 1.296.5 2.027.5h3.367a4.404 4.404 0 0 0 4.39-4.39v-.754a4.404 4.404 0 0 0-4.39-4.39zm1.853 5.142a1.855 1.855 0 0 1-1.853 1.853h-3.367a1.855 1.855 0 0 1-1.853-1.853v-.753c0-1.022.831-1.854 1.853-1.854h3.367c1.022 0 1.853.832 1.853 1.854v.753zM10.358 10.107a1.9 1.9 0 1 0 0-3.801 1.9 1.9 0 0 0 0 3.801z" fill="#F5F6F8"/>
    <path d="M21.137 8.106v-.202a7.112 7.112 0 0 0-.913-3.48c-.002 0-.002-.004-.003-.005a.383.383 0 0 0-.032-.057A7.171 7.171 0 0 0 14.949.83h-.002c-.442-.066-.73-.064-.772-.064l-.038.002a4.551 4.551 0 0 0-.136-.002H7.817A7.144 7.144 0 0 0 .68 7.903v.852a7.08 7.08 0 0 0 1.254 4.03 7.177 7.177 0 0 0 3.07 2.526c2.383 3.304 5.22 3.405 5.34 3.408l4.292.048v-2.885a6.691 6.691 0 0 0 2.61-.772 7.146 7.146 0 0 0 3.89-6.355v-.102c.005-.175.005-.36 0-.547zm-6.499 2.462 3.03 3.03a6.055 6.055 0 0 1-3.03 1.209v-4.24zm4.654-5.65c.086.164.728 1.434.79 3.195v.535c0 .029-.002.057-.003.086l-.005.086c0 .03-.004.058-.005.087l-.006.086-.008.085-.008.088-.01.086-.01.085a1.897 1.897 0 0 0-.011.085l-.012.086a1.678 1.678 0 0 1-.015.082c-.004.03-.01.06-.013.09l-.016.079-.016.09-.017.078-.02.092c-.005.025-.01.05-.018.074a2.277 2.277 0 0 1-.022.095l-.018.07-.025.097-.018.064-.03.102c-.005.02-.012.041-.019.062-.011.035-.02.069-.032.103l-.022.067-.032.098a2.64 2.64 0 0 1-.058.163l-.036.089-.028.072c-.02.053-.043.106-.065.159l-.001.003-.04.089-.015.027-.032.065-.016.03-.037.067-.014.025c-.018.03-.034.061-.054.092l-.01.018-.048.077a.388.388 0 0 0-.02.03c-.014.023-.028.043-.041.066l-.021.03-.05.074a3.47 3.47 0 0 1-.08.111c-.005.009-.012.017-.018.026l-.049.066-.023.032a25 25 0 0 1-.067.091l-.06.078-.007.008a4.494 4.494 0 0 1-.088.112l-.046.057c-.008.01-.015.02-.023.028l-.045.054-.02.024-.06.072-.012.013-.049.057-.007.008-3.748-3.797V1.86c.338.046.84.142 1.376.34 1.37.509 2.456 1.42 3.23 2.706l.003.013zm-5.708 4.368c0 .022-.002.043 0 .065v5.486l-4.914.003c-1.243 0-2.031-.118-2.495-.227a9.546 9.546 0 0 1-.188-.056l-.025-.008a6.92 6.92 0 0 1-.225-.078c-.007-.003-.014-.006-.021-.007a6.06 6.06 0 0 1-.708-2.838v-.853a6.09 6.09 0 0 1 6.083-6.083h2.493v4.596zm-11.85-.528v-.852a6.082 6.082 0 0 1 6.083-6.083h5.816v1.815h-2.542a7.136 7.136 0 0 0-7.137 7.136v.854c0 .605.078 1.207.231 1.789l-.016-.011c-1.464-1.038-2.386-2.695-2.431-4.487-.003-.055-.003-.108-.003-.161zm8.635 8.91c-.117-.004-1.8-.102-3.552-1.844.329.046.663.07 1 .07h5.766v1.809l-3.214-.035z" fill="#F5F6F8"/>
</svg>
