<?xml version="1.0" encoding="utf-8"?>
<!-- Generator: Adobe Illustrator 27.9.0, SVG Export Plug-In . SVG Version: 6.00 Build 0)  -->
<svg version="1.1" id="Camada_1" xmlns="http://www.w3.org/2000/svg" xmlns:xlink="http://www.w3.org/1999/xlink" x="0px" y="0px"
	 viewBox="0 0 130 130" style="enable-background:new 0 0 130 130;" xml:space="preserve">
<style type="text/css">
	.st0{clip-path:url(#SVGID_00000086686597774621289690000001630719009296958637_);fill:#F5F5F5;}
	.st1{clip-path:url(#SVGID_00000086686597774621289690000001630719009296958637_);}
	.st2{clip-path:url(#SVGID_00000117648514583854025860000015381743208899060632_);}
	.st3{fill:#F2F2F2;}
	.st4{fill:#FFFFFF;}
	.st5{fill:#EAEAEA;}
	.st6{fill:none;stroke:#0080AF;stroke-width:1.5;stroke-linecap:round;stroke-linejoin:round;stroke-miterlimit:10;}
	.st7{fill:#DBDBDB;}
	.st8{fill:#1A1A1A;}
	.st9{fill:#333333;}
	.st10{fill:none;stroke:#ADADAD;stroke-miterlimit:10;}
	.st11{fill:none;stroke:#FFFFFF;stroke-miterlimit:10;}
	.st12{fill:none;stroke:#666666;stroke-width:2.75;stroke-linecap:round;stroke-linejoin:round;stroke-miterlimit:7.3333;}
	.st13{fill:#666666;}
	.st14{clip-path:url(#SVGID_00000008831207350794207630000012381932625162108326_);}
	.st15{clip-path:url(#SVGID_00000134932330574944252750000006064979625270757004_);}
	.st16{clip-path:url(#SVGID_00000015315023950112177570000015916615228791519138_);}
	.st17{fill:#4D4D4D;}
	.st18{clip-path:url(#SVGID_00000089547500788841698610000002118597228729632661_);}
	.st19{fill:#2F80A6;}
	.st20{clip-path:url(#SVGID_00000005973928886789540480000006596258836202195616_);}
	.st21{clip-path:url(#SVGID_00000096045226297104601400000000086318365182519960_);}
	.st22{clip-path:url(#SVGID_00000060726934055877708920000018052650258694800782_);}
	.st23{clip-path:url(#SVGID_00000155145078074353385230000017381256180768400810_);}
	.st24{clip-path:url(#SVGID_00000096045226297104601400000000086318365182519960_);fill:#F8D817;}
	.st25{clip-path:url(#SVGID_00000173138787103644729540000011074747896271740046_);}
	.st26{clip-path:url(#SVGID_00000085243822362956683990000010084583192692233658_);}
	.st27{clip-path:url(#SVGID_00000173138787103644729540000011074747896271740046_);fill:#03679F;}
	.st28{clip-path:url(#SVGID_00000005261889639865011350000017996173281610067086_);}
	.st29{clip-path:url(#SVGID_00000134941351160412316610000001703883772465208245_);}
	.st30{clip-path:url(#SVGID_00000133506672101966496680000011113665075392006576_);}
	.st31{clip-path:url(#SVGID_00000134941351160412316610000001703883772465208245_);fill:#E0C017;}
	.st32{clip-path:url(#SVGID_00000088836223746693482250000004129371956970588837_);fill:#036787;}
	.st33{clip-path:url(#SVGID_00000088836223746693482250000004129371956970588837_);}
	.st34{clip-path:url(#SVGID_00000082338173716809446210000011552204873389687721_);}
	.st35{clip-path:url(#SVGID_00000007401436621317395460000012031238275586648242_);}
	.st36{clip-path:url(#SVGID_00000082338173716809446210000011552204873389687721_);fill:#E0C017;}
	.st37{clip-path:url(#SVGID_00000180359731624540363880000012463664558794936235_);}
	.st38{clip-path:url(#SVGID_00000140724041941415382330000002262127435170462127_);}
	.st39{clip-path:url(#SVGID_00000180359731624540363880000012463664558794936235_);fill:#E0C017;}
	.st40{fill:none;stroke:#0080AF;stroke-width:2;stroke-linecap:round;stroke-linejoin:round;stroke-miterlimit:10;}
	.st41{clip-path:url(#SVGID_00000119832333163996678620000002537379410281896357_);}
	.st42{fill:url(#SVGID_00000030462562250521626830000005023380171215275416_);}
	.st43{fill:#2F80AC;}
	
		.st44{clip-path:url(#SVGID_00000119832333163996678620000002537379410281896357_);fill:none;stroke:#0080AF;stroke-width:1.5;stroke-linecap:round;stroke-linejoin:round;stroke-miterlimit:10;}
	.st45{fill:url(#SVGID_00000045612761869169613630000006600716036741583258_);}
	.st46{clip-path:url(#SVGID_00000059279082776176161920000008095481459623552659_);}
	.st47{clip-path:url(#SVGID_00000090282558690546246980000003674262410646985132_);}
	.st48{fill:#C7C7C7;}
	.st49{clip-path:url(#SVGID_00000155130061595286629970000000656529919950912656_);}
	.st50{fill:#3C4D72;}
	.st51{clip-path:url(#SVGID_00000036934010571406303910000011748138225627834551_);}
	.st52{clip-path:url(#SVGID_00000090294284041525703680000005015595049495543454_);}
	.st53{fill:none;stroke:#0080AF;stroke-miterlimit:10;}
	.st54{fill:#0285C7;}
	.st55{fill:#80A73F;}
	.st56{clip-path:url(#SVGID_00000020358980654280724490000004357520846680131747_);}
	.st57{clip-path:url(#SVGID_00000059991165030003427040000013003733025397620405_);}
	.st58{opacity:0.95;}
	.st59{fill:url(#SVGID_00000025432806001267935630000012384729140776785311_);}
	.st60{fill:none;stroke:#4D4D4D;stroke-width:10;stroke-miterlimit:10;}
	.st61{fill:none;stroke:#C7C7C7;stroke-miterlimit:10;}
	.st62{fill:#CE1C24;}
	.st63{clip-path:url(#SVGID_00000033365663647762992740000018402790469428481949_);}
	.st64{clip-path:url(#SVGID_00000119096705630715722420000008746597418962761092_);fill:#47AC34;}
	.st65{clip-path:url(#SVGID_00000119096705630715722420000008746597418962761092_);}
	.st66{clip-path:url(#SVGID_00000098215456143848432640000016843709995050120639_);}
	
		.st67{clip-path:url(#SVGID_00000119096705630715722420000008746597418962761092_);fill:none;stroke:#FFFFFF;stroke-width:2;stroke-miterlimit:10;}
	.st68{clip-path:url(#SVGID_00000114065385487399960810000017104342663008297867_);fill:#0084FF;}
	.st69{clip-path:url(#SVGID_00000114065385487399960810000017104342663008297867_);fill:#FFFFFF;}
	.st70{clip-path:url(#SVGID_00000114065385487399960810000017104342663008297867_);}
	.st71{clip-path:url(#SVGID_00000100365003494215517480000006629928443269320340_);}
	.st72{fill:url(#SVGID_00000105406961907248623300000005100248423630020262_);}
	.st73{clip-path:url(#SVGID_00000122688190382177865070000003703481307104288669_);}
	.st74{fill:#2580C0;}
	.st75{fill:#4D4D4D;stroke:#4D4D4D;stroke-miterlimit:10;}
	.st76{fill:none;stroke:#4D4D4D;stroke-miterlimit:10;}
	.st77{fill:none;stroke:#4D4D4D;stroke-linecap:round;stroke-linejoin:round;stroke-miterlimit:10;}
	.st78{clip-path:url(#SVGID_00000030475967055014691320000013028309781189423035_);fill:#2580C0;}
	.st79{clip-path:url(#SVGID_00000030475967055014691320000013028309781189423035_);}
	.st80{fill:#A5D6F1;}
	.st81{fill:#202535;}
	.st82{fill:#0D131E;}
	.st83{fill:#F9C850;}
	.st84{fill:#595858;}
	.st85{fill:none;stroke:#949494;stroke-miterlimit:10;}
</style>
<g>
	<defs>
		<path id="SVGID_00000070087653829372320930000006878997400360563841_" d="M70.1-81.4c0,25.7-20.9,46.6-46.6,46.6
			c-5.5,0-10.7-0.9-15.6-2.7C-0.8-34-10.7-29-10.7-29s0,0,1.7-19c-8.7-8.5-14-20.3-14-33.4c0-25.7,20.9-46.6,46.6-46.6
			S70.1-107.1,70.1-81.4z"/>
	</defs>
	<clipPath id="SVGID_00000137820878172405937630000004799539766494857626_">
		<use xlink:href="#SVGID_00000070087653829372320930000006878997400360563841_"  style="overflow:visible;"/>
	</clipPath>
	
		<g id="eUaP1i.tif_00000034047778811762924170000000721872877158882483_" style="clip-path:url(#SVGID_00000137820878172405937630000004799539766494857626_);">
		
			<image style="overflow:visible;" width="850" height="500" id="Layer_0_00000156546642082409218330000012733469494407503506_" xlink:href="4CCCA53092E70117.png"  transform="matrix(0.1546 0 0 -0.2112 -43.7375 64.6624)">
		</image>
	</g>
</g>
<g>
	<g>
		<defs>
			<path id="SVGID_00000124139227068890509860000009176865494909958297_" d="M215.1-81.4c0,25.7-20.9,46.6-46.6,46.6
				c-5.5,0-10.7-0.9-15.6-2.7c-8.8,3.5-18.7,8.4-18.7,8.4s0,0,1.7-19c-8.7-8.5-14-20.3-14-33.4c0-25.7,20.9-46.6,46.6-46.6
				S215.1-107.1,215.1-81.4z"/>
		</defs>
		<clipPath id="SVGID_00000088852278961452838700000000695277029636780461_">
			<use xlink:href="#SVGID_00000124139227068890509860000009176865494909958297_"  style="overflow:visible;"/>
		</clipPath>
		<g style="clip-path:url(#SVGID_00000088852278961452838700000000695277029636780461_);">
			<defs>
				<circle id="SVGID_00000174578636331725115970000001488228696856349080_" cx="168.1" cy="-82.6" r="28.9"/>
			</defs>
			<clipPath id="SVGID_00000134221205718665861370000006464814148689240965_">
				<use xlink:href="#SVGID_00000174578636331725115970000001488228696856349080_"  style="overflow:visible;"/>
			</clipPath>
			
				<g id="MIVcMu_00000084531110205883081690000012433472822278921377_" style="clip-path:url(#SVGID_00000134221205718665861370000006464814148689240965_);">
				
					<image style="overflow:visible;" width="1280" height="600" id="MIVcMu" xlink:href="4CCCA53092E70115.jpg"  transform="matrix(0.2921 0 0 0.2921 -101.7444 -169.25)">
				</image>
			</g>
		</g>
	</g>
</g>
<g>
	<g>
		<circle class="st74" cx="65" cy="65" r="64.5"/>
	</g>
	<g>
		<defs>
			<circle id="SVGID_00000148633345884147107450000002463981284183583410_" cx="65" cy="65" r="64.5"/>
		</defs>
		<use xlink:href="#SVGID_00000148633345884147107450000002463981284183583410_"  style="overflow:visible;fill:#2580C0;"/>
		<clipPath id="SVGID_00000017513523530587155750000017246947992553937054_">
			<use xlink:href="#SVGID_00000148633345884147107450000002463981284183583410_"  style="overflow:visible;"/>
		</clipPath>
	</g>
</g>
<g>
	<g>
		<defs>
			<circle id="SVGID_00000111158647991385112950000017623923782751863941_" cx="65" cy="65" r="63"/>
		</defs>
		<use xlink:href="#SVGID_00000111158647991385112950000017623923782751863941_"  style="overflow:visible;fill:#2580C0;"/>
		<clipPath id="SVGID_00000100375823458220722430000014786848739180210338_">
			<use xlink:href="#SVGID_00000111158647991385112950000017623923782751863941_"  style="overflow:visible;"/>
		</clipPath>
		
			<circle style="clip-path:url(#SVGID_00000100375823458220722430000014786848739180210338_);fill:#2580C0;" cx="65.1" cy="64.5" r="47.7"/>
		<g style="clip-path:url(#SVGID_00000100375823458220722430000014786848739180210338_);">
			<g>
				<g>
					<g>
						<path class="st80" d="M18.9,58.9c1,12.6,13.9,13.1,23,7.6c5.4-3.3,8.7-4.3,7.2-16.8s-7.7-22.2-13.9-21.4
							C28.9,28.9,17.3,38.5,18.9,58.9z"/>
						<path class="st4" d="M19.9,61.5c0.7,9.9,17.2,7.1,17.4,6c0,0,8.9-2.7,8.7-9.8c-0.2-9.9-7.4-24.7-12.6-24.1
							C28.1,34.2,18.7,45.5,19.9,61.5z"/>
						<g>
							
								<ellipse transform="matrix(0.9999 -1.620862e-02 1.620862e-02 0.9999 -0.8561 0.5717)" class="st81" cx="34.8" cy="53.1" rx="8.5" ry="11.2"/>
							<path class="st4" d="M37.4,40.1l3.8,3.5l2.4,5.4c-1.2,0.8-2.6,1.2-4.2,1c-3-0.5-5-3.4-4.4-6.3C35.3,42.2,36.2,40.9,37.4,40.1
								z"/>
						</g>
					</g>
					<g>
						<path class="st80" d="M110.6,58.4c-0.8,12.6-13.8,13.2-22.9,7.8C82.2,63,79,62,80.3,49.5S87.7,27.2,94,27.9
							C100.2,28.6,112,38.1,110.6,58.4z"/>
						<path class="st4" d="M109.7,61.1c-0.6,9.9-17.1,7.3-17.3,6.2c0,0-8.9-2.6-8.8-9.7c0.1-9.9,7.1-24.8,12.4-24.2
							S110.7,45,109.7,61.1z"/>
						<g>
							
								<ellipse transform="matrix(5.984001e-03 -1 1 5.984001e-03 41.2406 147.0739)" class="st81" cx="94.6" cy="52.8" rx="11.2" ry="8.5"/>
							<path class="st4" d="M91.9,39.9l-3.8,3.6l-2.4,5.5c1.2,0.8,2.7,1.2,4.2,0.9c3-0.6,4.9-3.4,4.4-6.4
								C94,41.9,93.1,40.6,91.9,39.9z"/>
						</g>
					</g>
				</g>
				<g>
					<path class="st81" d="M81.5,88.6c0.1,11.3-7.3,20.2-16.5,20.2s-16.7-8.8-16.7-20c-0.1-11.3,0.9-24.6,16.5-24.7
						C80.4,64.1,81.5,77.4,81.5,88.6z"/>
					<path class="st82" d="M79.9,87.1c0.1,11.3-6.7,16.1-15,16.2c-8.3,0-15.1-4.7-15.1-16c-0.1-11.3,6.6-24.8,14.9-24.8
						S79.9,75.8,79.9,87.1z"/>
					<path class="st83" d="M82,72.2c0,0-9.4-23.5-17.1-23.5c-0.1,0-0.2,0-0.3,0c-0.1,0-0.2,0-0.3,0c-7.7,0-16.9,23.7-16.9,23.7
						c-2.6,7.1,11.3,15.1,15.7,17.4c0.5,0.3,1.1,0.4,1.6,0.3c0.6,0,1.1-0.1,1.6-0.3C70.8,87.4,84.7,79.3,82,72.2z"/>
					<path class="st81" d="M85.4,74.9c0,0-1.2-2-3.1-4.8C78.2,63.9,70.7,54,65.1,54c-0.1,0-0.2,0-0.3,0c-0.1,0-0.2,0-0.3,0
						C58.9,54,51.1,64.6,47,70.9c-1.7,2.6-2.8,4.5-2.8,4.5C41.5,82.1,58.7,91,63.3,93.3c0.5,0.2,1.1,0.4,1.7,0.3
						c0.6,0,1.2-0.1,1.7-0.3C71.3,90.9,88.2,81.7,85.4,74.9z"/>
					<path class="st84" d="M72.5,77.8c0,7.8-5.3,14.1-4.8,14.1c0,0,1.5-6.3,1.5-14.1s-2.8-14.1-1.6-14.1
						C68.7,63.8,72.5,70,72.5,77.8z"/>
				</g>
			</g>
		</g>
	</g>
</g>
</svg>
