<svg width="24" height="25" viewBox="0 0 24 25" fill="none" xmlns="http://www.w3.org/2000/svg">
    <path d="M12 .967a12 12 0 1 0 0 24 12 12 0 0 0 0-24zm3.15 2.1a10.41 10.41 0 0 1 6.75 6.75l-5.123.346a5.539 5.539 0 0 0-1.952-1.961l.325-5.135zM4.656 5.623A10.31 10.31 0 0 1 8.85 3.067l.329 5.135a5.667 5.667 0 0 0-1.954 1.955l-5.129-.34a10.425 10.425 0 0 1 2.56-4.194zM8.85 22.867a10.41 10.41 0 0 1-6.75-6.75l5.135-.325a5.585 5.585 0 0 0 1.95 1.95l-.335 5.125zM12 16.89a3.923 3.923 0 1 1 .004-7.85A3.923 3.923 0 0 1 12 16.892v-.002zm7.344 3.42a10.348 10.348 0 0 1-4.194 2.557l-.34-5.13a5.557 5.557 0 0 0 1.967-1.972l5.123.346a10.33 10.33 0 0 1-2.556 4.2z" fill="#EFD200"/>
</svg>
