<?xml version="1.0" encoding="utf-8"?>
<!-- Generator: Adobe Illustrator 27.9.0, SVG Export Plug-In . SVG Version: 6.00 Build 0)  -->
<svg version="1.1" id="Camada_1" xmlns="http://www.w3.org/2000/svg" xmlns:xlink="http://www.w3.org/1999/xlink" x="0px" y="0px"
	 viewBox="0 0 200 200" style="enable-background:new 0 0 200 200;" xml:space="preserve">
<style type="text/css">
	.st0{fill:#2480BE;}
	.st1{fill:none;stroke:#FFFFFF;stroke-miterlimit:10;}
	.st2{fill:none;stroke:#2580BE;stroke-miterlimit:10;}
	.st3{clip-path:url(#SVGID_00000054243300438768612980000016634945354962317704_);}
	.st4{fill:#2580BE;}
	.st5{opacity:0.6;fill:#FFFFFF;stroke:#2580BE;stroke-miterlimit:10;}
	.st6{clip-path:url(#SVGID_00000004540987884400609870000011003801114385059256_);fill:#2580BE;}
	.st7{clip-path:url(#SVGID_00000004540987884400609870000011003801114385059256_);}
	.st8{fill:#A3D4EF;}
	.st9{fill:#FFFFFF;}
	.st10{fill:#202535;}
	.st11{fill:#0D131E;}
	.st12{fill:#F7C650;}
	.st13{fill:#595858;}
	.st14{fill:#2F80C2;}
	.st15{fill:#343434;}
	.st16{fill:none;}
	.st17{fill:#0D639F;}
	.st18{fill:#2678AD;}
	.st19{opacity:0.2;}
	.st20{fill:#A4CBE4;}
	.st21{fill:#04131E;}
	.st22{fill:#192635;}
	.st23{fill:#EEBB4F;}
	.st24{fill:#5C5A5A;}
	.st25{fill:#2580BE;stroke:#2580BE;stroke-miterlimit:10;}
	.st26{fill:none;stroke:#FFFFFF;stroke-linecap:round;stroke-linejoin:round;stroke-miterlimit:7.3333;}
	.st27{fill:none;stroke:#2580BE;stroke-linecap:round;stroke-linejoin:round;stroke-miterlimit:10;}
	.st28{fill:none;stroke:#343434;stroke-width:0.5;stroke-linecap:round;stroke-linejoin:round;stroke-miterlimit:10;}
	.st29{fill:#2580BE;stroke:#FFFFFF;stroke-miterlimit:10;}
	.st30{fill:#F1F1F1;}
	.st31{fill:#E9E9E9;}
	.st32{fill:none;stroke:#0080AE;stroke-width:1.5;stroke-linecap:round;stroke-linejoin:round;stroke-miterlimit:10;}
	.st33{fill:#F7F7F7;}
	.st34{fill:#1A1A1A;}
	.st35{fill:#333333;}
	.st36{clip-path:url(#SVGID_00000118398595180747410280000008515129373321622433_);}
	.st37{fill:url(#SVGID_00000172416261488942797890000015237926804209363855_);}
	.st38{fill:#2F80AB;}
	
		.st39{clip-path:url(#SVGID_00000118398595180747410280000008515129373321622433_);fill:none;stroke:#0080AE;stroke-width:1.5;stroke-linecap:round;stroke-linejoin:round;stroke-miterlimit:10;}
	.st40{clip-path:url(#SVGID_00000139288866296325494480000017302694354227493023_);}
	.st41{clip-path:url(#SVGID_00000088820327636729374470000011290054795660010885_);}
	.st42{fill:#C6C6C6;}
	.st43{clip-path:url(#SVGID_00000155122110376929855300000006843764728270784164_);}
	.st44{fill:#3C4D72;}
	.st45{clip-path:url(#SVGID_00000154418938163543307200000011256213315217868456_);}
	.st46{clip-path:url(#SVGID_00000142881965546129494580000003922365339422123689_);}
	.st47{fill:none;stroke:#0080AE;stroke-miterlimit:10;}
	.st48{fill:none;stroke:#343434;stroke-miterlimit:10;}
	.st49{fill:#323232;}
	.st50{fill:#FFFFFF;stroke:#FFFFFF;stroke-miterlimit:10;}
</style>
<g>
	<g>
		<path class="st1" d="M180.7,145.6c0,2.9-2.3,5.2-5.2,5.2h-151c-2.9,0-5.2-2.3-5.2-5.2v-112c0-2.9,2.3-5.2,5.2-5.2h151
			c2.9,0,5.2,2.3,5.2,5.2V145.6z"/>
		<line class="st1" x1="19.3" y1="129.9" x2="180.7" y2="129.9"/>
		<line class="st1" x1="74" y1="171.6" x2="126" y2="171.6"/>
		<line class="st1" x1="84.4" y1="171.6" x2="84.4" y2="153.4"/>
		<line class="st1" x1="115.6" y1="171.6" x2="115.6" y2="153.4"/>
	</g>
	<g id="hvnGrq.tif_00000163784363166193844620000005958435023789785535_">
		<g>
			<path class="st9" d="M121.7,82.1c0,4.7-0.2,9.5,0,14.2c0.2,5.2-2.4,8.2-8.5,7.4c-9.7-1.2-19.3-2.4-29-3.6
				c-3.7-0.5-5.8-2.8-5.8-6.5c0-7.4,0.1-14.8,0-22.1c-0.1-4,1.8-6.5,6.4-7c8.5-1.1,16.9-2.1,25.4-3.2c1.9-0.2,3.8-0.4,5.7-0.5
				c3.4,0,5.7,2.4,5.7,5.8C121.7,71.8,121.7,77,121.7,82.1z M110.5,81.7c2.8,0,5.5,0,8.3,0c1.1,0,1.7-0.3,1.7-1.5
				c0-4.6,0.1-9.1-0.1-13.7c-0.1-2.8-2-4.5-4.8-4.5c-1.1,0-2.3,0.2-3.4,0.3c-3.3,0.4-6.5,0.8-9.8,1.2c-0.9,0.1-1.7,0.2-1.7,1.6
				c0.1,5,0.1,10.1,0,15.1c0,1.1,0.4,1.5,1.5,1.5C105,81.7,107.8,81.7,110.5,81.7z M100.8,92c0,2.3,0.1,4.7,0,7
				c-0.1,1.6,0.6,2.1,2,2.2c3.7,0.4,7.3,0.9,11,1.3c4,0.5,6.6-1.3,6.7-4.8c0.1-4.4,0-8.7,0-13.1c0-1.1-0.4-1.6-1.6-1.6
				c-5.6,0-11.1,0-16.7,0c-1.1,0-1.5,0.4-1.4,1.5C100.8,86.9,100.8,89.4,100.8,92z M99.3,100.6c0-5.8,0-11.1-0.1-16.5
				c0-0.4-0.9-1.1-1.3-1.1c-5.6-0.1-11.1,0-16.7-0.1c-1,0-1.6,0.4-1.6,1.5c0,3.2-0.1,6.4,0,9.5c0.1,2.9,1.4,4.3,4.3,4.8
				c2.2,0.4,4.4,0.7,6.6,0.9C93.4,100,96.2,100.3,99.3,100.6z M99.3,64.3c-0.5-0.1-0.8-0.1-1.1-0.1c-5,0.6-9.9,1.2-14.9,1.9
				c-1.9,0.3-3.4,1.5-3.4,3.6c-0.2,3.6-0.2,7.3-0.1,10.9c0,0.4,0.8,1,1.3,1c5.7,0.1,11.4,0.1,17.1,0c0.4,0,1.2-0.7,1.2-1.1
				C99.3,75.2,99.3,69.9,99.3,64.3z"/>
		</g>
	</g>
</g>
</svg>
